<?xml version="1.0" encoding="UTF-8" standalone="no"?>
<!-- Created with Inkscape (http://www.inkscape.org/) -->

<svg
   xmlns:dc="http://purl.org/dc/elements/1.1/"
   xmlns:cc="http://creativecommons.org/ns#"
   xmlns:rdf="http://www.w3.org/1999/02/22-rdf-syntax-ns#"
   xmlns:svg="http://www.w3.org/2000/svg"
   xmlns="http://www.w3.org/2000/svg"
   xmlns:sodipodi="http://sodipodi.sourceforge.net/DTD/sodipodi-0.dtd"
   xmlns:inkscape="http://www.inkscape.org/namespaces/inkscape"
   width="297mm"
   height="210mm"
   viewBox="0 0 297 210"
   version="1.1"
   id="svg8"
   inkscape:version="0.92.4 5da689c313, 2019-01-14"
   sodipodi:docname="footer-img.svg">
  <defs
     id="defs2" />
  <sodipodi:namedview
     id="base"
     pagecolor="#ffffff"
     bordercolor="#666666"
     borderopacity="1.0"
     inkscape:pageopacity="0.0"
     inkscape:pageshadow="2"
     inkscape:zoom="0.71433855"
     inkscape:cx="607.48375"
     inkscape:cy="361.09026"
     inkscape:document-units="mm"
     inkscape:current-layer="layer1"
     showgrid="false" />
  <metadata
     id="metadata5">
    <rdf:RDF>
      <cc:Work
         rdf:about="">
        <dc:format>image/svg+xml</dc:format>
        <dc:type
           rdf:resource="http://purl.org/dc/dcmitype/StillImage" />
        <dc:title></dc:title>
      </cc:Work>
    </rdf:RDF>
  </metadata>
  <g
     inkscape:label="Layer 1"
     inkscape:groupmode="layer"
     id="layer1"
     transform="translate(0,-87)">
    <path
       style="fill:#333333;fill-opacity:1;stroke-width:0.08025177"
       d="m 191.09397,272.60168 c -1.31556,-0.64879 -2.25096,-1.58488 -2.89133,-2.89344 -0.49031,-1.00196 -0.6311,-1.63391 -0.62576,-2.80882 0.006,-1.48264 0.40797,-2.69165 1.26122,-3.8005 1.31759,-1.7123 3.2079,-2.5825 5.38152,-2.47733 2.88894,0.13976 5.22937,2.1362 5.86767,5.00526 0.10389,0.46701 0.12633,0.84179 0.0948,1.58416 -0.048,1.13194 -0.25998,1.89707 -0.78782,2.84457 -0.62874,1.12862 -1.98513,2.31642 -3.13724,2.74728 -0.73466,0.27475 -0.74121,0.26466 -0.78934,-1.21716 -0.0357,-1.09493 -0.0607,-1.2702 -0.22069,-1.54099 -0.0993,-0.16804 -0.18057,-0.31735 -0.18057,-0.33182 0,-0.0145 0.19364,-0.0504 0.43032,-0.08 0.54435,-0.0681 1.29515,-0.42153 1.64639,-0.77521 0.81152,-0.81717 1.01248,-2.55619 0.4095,-3.54361 -0.21151,-0.34635 -0.22878,-0.4279 -0.18685,-0.88276 0.0262,-0.28462 0.005,-0.64855 -0.0463,-0.84223 -0.0853,-0.31471 -0.11318,-0.34107 -0.36045,-0.34107 -0.29928,0 -0.72259,0.15872 -1.16039,0.43509 -0.28552,0.18023 -0.30471,0.18166 -0.93319,0.0693 -0.66404,-0.11877 -1.76882,-0.0944 -2.26467,0.05 -0.22457,0.0654 -0.33893,0.0338 -0.86702,-0.23949 -0.75175,-0.38901 -1.12626,-0.41782 -1.2486,-0.096 -0.0458,0.12033 -0.074,0.51204 -0.0627,0.87048 0.0178,0.5677 -0.003,0.68058 -0.15576,0.87568 -0.54721,0.69566 -0.54124,2.25271 0.0122,3.19719 0.38209,0.65197 1.13681,1.10947 2.03297,1.23229 0.19405,0.0266 0.34184,0.0704 0.32843,0.0973 -0.0134,0.0268 -0.0947,0.23626 -0.18054,0.46531 -0.17261,0.46041 -0.24904,0.50364 -0.89355,0.50537 -0.40506,6.2e-4 -0.76224,-0.17451 -0.9404,-0.4623 -0.0367,-0.0594 -0.1768,-0.23323 -0.31116,-0.38624 -0.1828,-0.20819 -0.28716,-0.26625 -0.41463,-0.23068 -0.11873,0.033 -0.13791,0.025 -0.0633,-0.0268 0.0862,-0.0599 0.081,-0.0844 -0.0266,-0.12565 -0.18859,-0.0724 -0.50466,-0.0637 -0.55339,0.0151 -0.0226,0.0366 0.1168,0.1984 0.30975,0.35968 0.20681,0.17288 0.43558,0.47242 0.55731,0.72975 0.33958,0.71782 0.81203,0.97223 1.70039,0.91566 l 0.5137,-0.0328 v 0.64983 c 0,0.98482 -0.12938,1.03533 -1.24391,0.48568 z m 0.44138,-1.64954 c 0,-0.0442 0.0542,-0.0802 0.12037,-0.0802 0.0663,0 0.12038,0.0361 0.12038,0.0802 0,0.0442 -0.0542,0.0803 -0.12038,0.0803 -0.0662,0 -0.12037,-0.0361 -0.12037,-0.0803 z m -0.50608,-0.0513 c -0.0283,-0.0283 -0.0331,-0.0808 -0.0108,-0.11688 0.05,-0.0809 0.27612,-0.003 0.27612,0.0965 0,0.0824 -0.18884,0.0968 -0.26532,0.0203 z m 0.98758,-0.0289 c 0,-0.0442 0.0542,-0.0803 0.12039,-0.0803 0.0662,0 0.12037,0.0361 0.12037,0.0803 0,0.0442 -0.0542,0.0802 -0.12037,0.0802 -0.0662,0 -0.12039,-0.0361 -0.12039,-0.0802 z m -1.4077,-0.2461 c -0.0291,-0.0471 -0.0337,-0.10486 -0.0101,-0.12841 0.0575,-0.0575 0.21401,0.0437 0.21401,0.13848 0,0.10256 -0.13856,0.0957 -0.20394,-0.0101 z m 14.08748,-0.104 c -0.93512,-0.20314 -1.67561,-0.76956 -2.01803,-1.54366 -0.54839,-1.23976 -0.50965,-3.41479 0.0817,-4.58627 0.29946,-0.59321 0.88445,-1.13134 1.46163,-1.34452 0.58784,-0.21712 2.21799,-0.22733 2.89822,-0.0182 0.25155,0.0773 0.47411,0.16774 0.49459,0.20087 0.0204,0.0331 -0.0246,0.33057 -0.1001,0.66102 l -0.1373,0.60081 -0.27704,-0.0217 c -0.15235,-0.0121 -0.65619,-0.0301 -1.11965,-0.0401 -1.02092,-0.0222 -1.34602,0.10162 -1.68985,0.64377 -0.41477,0.65404 -0.50317,2.05241 -0.1899,3.00438 0.14758,0.44853 0.62675,0.91647 1.01225,0.98859 0.14608,0.0274 0.46423,0.0383 0.707,0.0246 l 0.44138,-0.0251 0.023,-0.73842 0.0229,-0.73843 -0.50452,-0.024 -0.50454,-0.0239 v -0.68215 -0.68214 l 1.30408,-0.0221 1.3041,-0.0221 v 1.96653 1.96651 l -0.32951,0.16812 c -0.70961,0.36202 -1.96225,0.48707 -2.88056,0.28758 z m 7.98793,-0.004 c -0.47246,-0.13226 -0.87284,-0.52584 -0.99971,-0.98273 -0.0471,-0.1697 -0.0859,-0.85925 -0.0862,-1.53236 l -4.2e-4,-1.22385 h -0.40127 -0.40125 v -0.56176 c 0,-0.39567 0.0296,-0.5619 0.10031,-0.5622 0.0551,-2.2e-4 0.23574,-0.0381 0.40126,-0.084 l 0.30095,-0.0835 v -0.71849 -0.7185 h 0.80252 0.80251 v 0.72227 0.72226 h 0.56514 0.56513 l -0.0234,0.62196 -0.0234,0.62194 -0.54169,0.0238 -0.5417,0.0238 9e-4,1.09979 c 6.2e-4,0.6049 0.035,1.15341 0.0765,1.21892 0.0464,0.0734 0.25387,0.13501 0.54048,0.16051 l 0.46515,0.0413 0.0234,0.52906 c 0.0163,0.36756 -0.009,0.55624 -0.0837,0.61803 -0.17928,0.14878 -1.10204,0.18703 -1.54186,0.0639 z m 9.26438,-0.01 c -0.41049,-0.12655 -0.65433,-0.32555 -0.86002,-0.70183 -0.12218,-0.22351 -0.1447,-0.53266 -0.16637,-2.28484 l -0.025,-2.02636 h 0.80753 0.80753 v 1.71651 c 0,1.56687 0.0133,1.73296 0.15248,1.90484 0.17375,0.21457 0.62874,0.24526 1.04987,0.0708 l 0.24218,-0.1003 v -1.79884 -1.79883 l 0.78244,0.0229 0.78247,0.023 v 2.44768 2.44767 l -0.53145,0.0235 c -0.47468,0.021 -0.53593,0.006 -0.57346,-0.13719 -0.0418,-0.15967 -0.0441,-0.15971 -0.36258,-0.005 -0.67194,0.32464 -1.45424,0.39785 -2.10555,0.19706 z m 6.35524,0.003 c -0.23532,-0.0661 -0.50518,-0.17425 -0.59968,-0.24045 -0.22583,-0.15818 -0.26957,-0.15219 -0.32087,0.0439 -0.0388,0.14849 -0.0958,0.16202 -0.59118,0.14045 l -0.54821,-0.0239 -0.0209,-3.6314 -0.0209,-3.63139 h 0.80333 0.80333 v 1.20378 c 0,0.66208 0.0317,1.20378 0.0705,1.20378 0.0387,0 0.2001,-0.0542 0.35855,-0.12039 0.42007,-0.1755 1.34972,-0.15805 1.72094,0.0323 0.8364,0.42893 1.18092,1.47331 0.99896,3.02826 -0.16754,1.43166 -0.63487,1.99772 -1.71508,2.07738 -0.32095,0.0237 -0.67001,-0.007 -0.93879,-0.0825 z m 0.80554,-1.33586 c 0.1864,-0.0954 0.30347,-0.56145 0.30401,-1.21018 6.3e-4,-1.129 -0.40359,-1.51975 -1.2964,-1.25226 l -0.31233,0.0936 0.0221,1.17039 0.0221,1.17039 0.36114,0.0919 c 0.35789,0.0911 0.63514,0.0714 0.89931,-0.0638 z m -20.3442,1.24536 c -0.031,-0.031 -0.0564,-1.15173 -0.0564,-2.49061 v -2.43429 h 0.80367 0.80369 l -0.0212,2.46774 -0.0212,2.46774 -0.72616,0.0229 c -0.39938,0.0125 -0.7515,-0.003 -0.78245,-0.0335 z m 6.20334,-3.59784 v -3.65436 h 0.80252 0.80251 v 1.36427 1.36428 h 1.04328 1.04327 v -1.36428 -1.36427 h 0.80333 0.80335 l -0.0209,3.63138 -0.0209,3.6314 -0.78246,0.023 -0.78246,0.023 v -1.56782 -1.56782 h -1.04154 -1.04153 l -0.0218,1.54485 -0.0218,1.54484 -0.78245,0.0229 -0.78245,0.023 z m -24.67742,3.40779 c -0.0274,-0.0442 0.006,-0.0802 0.0755,-0.0802 0.0688,0 0.12512,0.0361 0.12512,0.0802 0,0.0442 -0.034,0.0802 -0.0755,0.0802 -0.0415,0 -0.0978,-0.0361 -0.12511,-0.0802 z m 18.84429,-5.25357 c -0.42343,-0.18417 -0.63026,-0.77514 -0.41712,-1.19191 0.15866,-0.31023 0.41068,-0.4525 0.80489,-0.45439 0.32742,-9e-4 0.40323,0.0329 0.62194,0.2819 0.4089,0.4657 0.27348,1.1385 -0.27532,1.36781 -0.33218,0.13879 -0.40824,0.13844 -0.73439,-0.004 z"
       id="path2141"
       inkscape:connector-curvature="0"
       inkscape:export-xdpi="96"
       inkscape:export-ydpi="96" />
    <g
       transform="matrix(0.05327929,0,0,0.05327929,234.52694,255.80089)"
       id="logo-black"
       inkscape:export-xdpi="96"
       inkscape:export-ydpi="96">
      <g
         id="test-tube_1_">
        <path
           inkscape:connector-curvature="0"
           id="tube_1_"
           class="st0"
           d="m 698.1,345.5 v 0 c -5,0 -9.9,-0.9 -14.6,-2.7 -19.7,-7.5 -30.1,-28.9 -24.7,-48.7 l -0.2,-0.1 1.3,-3.4 100.1,-260 c 1.5,-3.8 0.8,-13 0.1,-18.1 -0.2,-1.2 -0.2,-2.3 0.1,-3.4 l 0.1,-0.2 c 0.1,-0.2 0.1,-0.4 0.2,-0.6 C 762.1,4.1 767,2 775,2 c 9.6,0 22.9,3 36.5,8.2 11.4,4.4 21.8,9.9 29.1,15.4 8.6,6.5 12,12.3 10.1,17.3 -0.1,0.2 -0.2,0.4 -0.3,0.6 l -0.1,0.2 c -0.5,1 -1.2,1.8 -2.1,2.5 -4.4,3.9 -10.9,10.5 -12,13.5 l -101.3,263.5 -0.2,-0.1 c -7.1,13.7 -21.1,22.4 -36.6,22.4 z m -31.3,-53.3 -0.3,0.7 c -6.4,17.2 2.3,36.6 19.5,43.2 3.9,1.5 7.9,2.2 12,2.2 13.9,0 26.2,-8.3 31.3,-21.3 l 0.4,-0.9 99.6,-258.9 c 2.1,-5.6 12,-14.5 14,-16.3 l 0.2,-0.2 c 0.2,-0.1 0.3,-0.2 0.3,-0.3 l 0.1,-0.1 c 0.1,-0.7 -0.8,-3.8 -7.8,-9.2 -6.7,-5.1 -16.4,-10.2 -27.3,-14.4 -12.6,-4.9 -25.4,-7.8 -34,-7.8 -5.7,0 -7.6,1.2 -7.9,1.8 v 0.1 c 0,0.1 0,0.2 0,0.4 v 0.1 c 0.2,1.5 2.1,14.8 -0.5,21.7 z"
           style="fill:#333333;fill-opacity:1" />
        <path
           inkscape:connector-curvature="0"
           id="liquid_1_"
           class="st0"
           d="m 794.9,127.6 c 0,0 -13.8,15.9 -26.4,21.6 -12.5,5.6 -21.9,4.2 -33.2,10.8 -11.3,6.6 -17,15.8 -17,15.8 l -46,119.7 c -5,13.5 2.4,29.3 16.1,34.6 13.7,5.3 29.2,-1.7 34.5,-15.1 v 0 z m -46.4,69.1 c 2.2,-1 4.8,0 5.7,2.2 1,2.2 0,4.8 -2.2,5.7 -2.2,1 -4.8,0 -5.7,-2.2 -1,-2.2 0,-4.8 2.2,-5.7 z M 730.1,177 c 1.5,-0.6 3.2,0 3.8,1.5 0.6,1.5 0,3.2 -1.5,3.8 -1.5,0.6 -3.2,0 -3.8,-1.5 -0.6,-1.5 0.1,-3.2 1.5,-3.8 z m -20.3,67.7 c -2.2,1 -4.8,0 -5.7,-2.2 -1,-2.2 0,-4.8 2.2,-5.7 2.2,-1 4.8,0 5.7,2.2 1,2.2 0,4.7 -2.2,5.7 z m 4,-15.7 c -1.8,-4.1 0,-8.9 4.1,-10.8 4.1,-1.8 8.9,0 10.8,4.1 1.8,4.1 0,8.9 -4.1,10.8 -4.2,1.8 -9,0 -10.8,-4.1 z m 10.5,41.5 c 1.5,-0.6 3.2,0 3.8,1.5 0.6,1.5 0,3.2 -1.5,3.8 -1.5,0.6 -3.2,0 -3.8,-1.5 -0.6,-1.4 0,-3.1 1.5,-3.8 z"
           style="fill:#333333;fill-opacity:1" />
        <ellipse
           id="top_1_"
           transform="matrix(0.359,-0.9333,0.9333,0.359,489.0185,768.7965)"
           class="st0"
           cx="804.20001"
           cy="28.4"
           rx="7.3000002"
           ry="27.799999"
           style="fill:#333333;fill-opacity:1" />
      </g>
      <path
         inkscape:connector-curvature="0"
         id="jekyll-text"
         class="st0"
         d="m 194.9,160.8 c 4.4,3.5 12.4,1.5 17.8,-4.4 5.6,-6.2 6.5,-14.1 2.1,-17.7 -4.4,-3.5 -12.4,-1.5 -17.8,4.7 -5.7,6.2 -6.6,13.8 -2.1,17.4 z m -13,11.5 c -1.2,0 -3.2,2.1 -1.5,2.9 2.4,0.9 3.5,2.9 3.5,5.9 -2.1,12.1 -17.1,26 -23.1,30.7 -1.5,1.5 0.6,4.7 2.1,3.5 3.2,-2.6 10,-7.9 15.6,-15 -9.1,20.4 -26.9,46.6 -33.7,55.8 -26.6,36.9 -67,70.8 -94.8,70.8 -22.2,0 -41,-15 -45.1,-37.2 -0.3,-2.4 -3.5,-2.9 -2.9,0.3 5,30.4 28.4,42.1 56.7,42.1 31,0 67.4,-22.5 87.4,-45.4 32.4,-37.2 53.5,-79.9 47.8,-104.1 -2.3,-9.1 -8.5,-10.6 -12,-10.3 z m 199.2,80.8 c 8.5,-2.1 15.6,-6.8 15.6,-14.2 0,-0.7 -1.5,-0.7 -1.5,0 0,4.4 -5,8 -10.6,8.9 -13.2,2.1 -39.5,-13.5 -51.9,-29.5 13.2,5 40.4,-2.3 53.2,-11.4 11.8,-8.5 16.5,-18 17.5,-25.7 1.5,-12.6 -12.4,-20.1 -31.6,-12.6 -12.4,5 -27.2,15.9 -42.5,36.3 16.2,-26.9 48.1,-70.5 79.4,-98.5 38.1,-33.9 60.2,-27.4 26,8.5 -14.1,14.7 -40.7,33.9 -59.1,42.2 -5.6,2.4 -2.9,5.6 1.2,3.8 19.5,-8.5 45.4,-26.3 61.1,-41 46.3,-44.5 7.7,-78.1 -43.7,-31 -34.8,32.2 -57.6,65.8 -77.3,109.4 -6.8,8.2 -11.8,15 -18.1,20.4 -0.7,0.6 -1.3,1.3 -1.8,1.9 -17,14.6 -43.8,34.3 -60.5,34.6 -11.8,0.3 -16.8,-8.5 -14.7,-20.1 3.2,-18 21.9,-39.2 37.8,-46.6 20.7,-9.4 32.8,8.8 5.6,23.6 -10.3,5.3 -22.8,8.2 -27.8,8.2 -5.9,0 -5.3,2.4 -0.3,2.6 8.2,0.3 21.6,-3.2 30.4,-7.4 27.8,-13.2 29.5,-38 -0.6,-38.9 -32.8,-1.2 -72,26.9 -71.7,62 0.3,15.9 13,24.5 30.4,24.5 29,-0.3 54.9,-22.4 76,-41.7 3,-2.5 6,-5.3 8.9,-8.2 -7.4,18.9 -11.2,36.3 -9.4,49.2 1.2,9.4 6.5,13.8 10.6,17.3 0.9,0.6 2.6,0 1.5,-1.8 -6.2,-7.4 -4.4,-29.3 4.1,-50.4 7.1,14.2 34.8,32.1 63.8,25.6 z m -34.8,-61.5 c 33.9,-30.4 47.2,-3.2 25.7,13.2 -11.2,8.5 -33.4,15 -40.4,10.9 l -1.5,-0.9 c -0.9,-1.5 -1.8,-2.9 -2.4,-4.4 5.5,-6.7 12,-12.8 18.6,-18.8 z m 188.3,-34.4 c 13.5,1.5 7.9,-15 -5.9,-10.9 -6.2,1.8 -12.1,13.5 -16.5,23.9 -13.5,20.4 -36.3,48 -52.3,62.5 -14.1,12.1 -27.2,15.3 -11.2,-7.4 6.5,-9.1 14.7,-18.9 19.5,-28.6 11.2,-24.5 -12.7,-35.4 -31.9,-20.7 -11.2,8.5 -26.3,26.3 -38.1,36 -3.2,2.6 -2.4,6.5 0.9,3.8 9.4,-7.6 26,-25.1 40.1,-35.4 11.8,-9.1 16.5,-3.2 9.7,4.4 -9.4,10.9 -26,29.8 -30.1,41.9 -5.9,18 1.2,26 12.9,26 16.2,0 40.4,-25.4 56.7,-45.4 5.3,-6.8 11.2,-14.7 16.2,-22.4 -14.1,27.4 -28.9,55.2 -47.2,80.2 -26,35.4 -58.5,62 -89.2,62 -22.2,0 -41.3,-15 -45.4,-37.2 -0.3,-2.4 -3.2,-2.9 -2.9,0.3 5,30.4 28.4,42.1 56.7,42.1 31,0 60.8,-18 81.7,-40.1 42.2,-44.5 47.2,-94.7 60.2,-122.7 6.1,-12.3 11.7,-12.9 16.1,-12.3 z m 171.6,-43 c 6.2,-10.6 5.9,-18.9 -8.5,-18.9 -10.9,0.3 -30.7,7.9 -39.8,15 -2.1,2.1 -1.2,3.2 1.5,2.1 1.8,-0.6 3.8,-1.8 5.9,-2.6 10.3,-5.6 6.2,6.2 3.8,10.6 -12.4,21.6 -34.2,51.9 -45.7,67 -5.5,7.4 -11.7,14.8 -17.8,21.1 -11.1,10.5 -33,29.2 -49.5,35.4 -53.8,20.1 14.7,-71.4 20.4,-78.7 12.7,-15.9 41,-43.6 49.5,-57.5 6.2,-10.6 5.9,-18.9 -8.5,-18.9 -10.9,0.3 -30.7,7.9 -39.8,15 -2.1,2.1 -1.2,3.2 1.5,2.1 1.8,-0.6 3.8,-1.8 5.9,-2.6 10.3,-5.6 6.2,6.2 3.8,10.6 -12.4,21.6 -34.2,51.9 -45.7,67 -9.4,12.6 -21,25.4 -29.8,32.4 -3.5,2.9 -1.5,5.6 2.1,3.2 3.2,-2.1 7.9,-6.8 13.2,-12.4 -9.7,19.5 -17.8,46.9 7.9,50.1 21.9,3 47.9,-19.4 64.7,-35.9 1.8,-1.8 3.9,-3.8 6,-6 0.5,-0.5 1,-1 1.5,-1.5 -9.7,19.5 -17.7,46.8 8,50 28.1,3.8 62.9,-33.9 76.4,-47.7 2.6,-2.6 1.8,-7.1 -2.6,-2.6 -7.9,8.2 -34.8,32.7 -54.4,40.1 -53.8,20.1 14.7,-71.4 20.4,-78.7 12.7,-16.1 41.1,-43.7 49.6,-57.7 z"
         style="fill:#333333;fill-opacity:1" />
    </g>
    <path
       style="fill:#333333;fill-opacity:1;stroke-width:0.02612957"
       d="m 174.78227,272.70028 c -0.33382,-0.0637 -0.29887,0.007 -0.29887,-0.60238 v -0.53087 l 0.34622,-0.0127 c 0.53491,-0.0197 0.73555,-0.10973 0.94822,-0.42571 0.0927,-0.13779 0.38814,-0.8545 0.38565,-0.93571 -2.3e-4,-0.0164 -0.48455,-1.40375 -1.07567,-3.08297 -0.59111,-1.67924 -1.07475,-3.06377 -1.07475,-3.07677 0,-0.0134 0.31724,-0.0236 0.74153,-0.0236 h 0.74153 l 0.0675,0.21557 c 0.0372,0.11856 0.32956,1.0592 0.64987,2.09031 0.32029,1.0311 0.58882,1.87476 0.59673,1.87479 0.008,2e-5 0.0409,-0.0911 0.0734,-0.20245 0.0325,-0.11137 0.31281,-1.05203 0.62297,-2.09036 l 0.56392,-1.88786 h 0.74379 c 0.69766,0 0.7427,0.003 0.7262,0.0458 -0.01,0.0252 -0.56972,1.64958 -1.24454,3.60984 -0.67482,1.96026 -1.26594,3.65409 -1.31359,3.76406 -0.27763,0.64064 -0.75944,1.09808 -1.31011,1.24385 -0.21593,0.0572 -0.66196,0.0708 -0.89003,0.0272 z m -36.94561,-0.13778 c -0.21648,-0.0498 -0.23077,-0.0628 -1.90092,-1.7291 -0.91616,-0.91408 -1.66576,-1.67064 -1.66576,-1.68127 0,-0.0106 0.16907,-0.28108 0.3757,-0.60103 l 0.37569,-0.58173 0.24488,-0.004 c 0.13469,-0.003 0.27239,-0.009 0.30599,-0.0137 0.0545,-0.009 0.21682,0.21618 1.51157,2.09379 0.79775,1.15689 1.45722,2.12016 1.46547,2.1406 0.0173,0.0428 -0.1917,0.2389 -0.33374,0.31316 -0.097,0.0507 -0.29189,0.0833 -0.37888,0.0633 z m -0.4553,-2.78201 c -1.33539,-1.93041 -1.46313,-2.12408 -1.42712,-2.16388 0.0403,-0.0444 0.23028,-0.008 3.16977,0.60125 0.11824,0.0246 0.14254,0.0402 0.17241,0.11152 0.0473,0.11273 0.16343,0.24635 0.2557,0.29407 0.0419,0.0217 0.0711,0.0476 0.065,0.0579 -0.006,0.0102 -0.11937,0.68283 -0.25165,1.4948 l -0.24049,1.47632 -0.12059,0.12411 c -0.0663,0.0682 -0.12862,0.12412 -0.13846,0.12412 -0.01,0 -0.67789,-0.95407 -1.48455,-2.12017 z m 2.24518,1.3551 c 0,-0.10418 0.40305,-2.46421 0.42203,-2.47115 0.0139,-0.005 0.0795,-0.0508 0.14603,-0.10145 l 0.12084,-0.0922 0.81831,0.16632 c 0.45008,0.0915 0.81833,0.17246 0.81833,0.17995 0,0.008 -0.52325,0.53677 -1.16277,1.17617 -0.63953,0.6394 -1.16277,1.15347 -1.16277,1.14239 z m 16.79422,-0.84221 c -1.04795,-0.17618 -1.85164,-0.86045 -2.18728,-1.86226 -0.2433,-0.72621 -0.23656,-1.8072 0.016,-2.56466 0.31971,-0.95891 1.00524,-1.63341 1.90542,-1.87475 0.23265,-0.0624 0.30792,-0.0699 0.7172,-0.0716 0.35816,-8.5e-4 0.50257,0.009 0.6663,0.0465 1.06114,0.24603 1.69699,0.98617 1.91061,2.22403 0.0236,0.13632 0.0467,0.47591 0.0549,0.80426 l 0.0141,0.56832 h -2.03005 -2.03006 l 0.0168,0.12411 c 0.03,0.22195 0.11547,0.50114 0.21225,0.69352 0.13472,0.2678 0.43177,0.56079 0.69557,0.68607 0.35743,0.16974 0.78636,0.20451 1.2184,0.0987 0.34393,-0.0842 0.66613,-0.27634 0.91037,-0.54288 l 0.15222,-0.16613 0.37772,0.35935 0.37771,0.35935 -0.1482,0.18344 c -0.39507,0.48896 -0.99874,0.8253 -1.67948,0.93572 -0.28699,0.0465 -0.89054,0.046 -1.17044,-8.5e-4 z m 1.70552,-3.88104 c 0,-0.49021 -0.25955,-1.02286 -0.59389,-1.2188 -0.2687,-0.15747 -0.7024,-0.21227 -1.017,-0.12851 -0.41128,0.1095 -0.74946,0.46462 -0.90769,0.95315 -0.0586,0.18096 -0.12051,0.43834 -0.12051,0.50108 0,0.0153 0.50281,0.0248 1.31954,0.0248 h 1.31955 z m 3.90142,3.87009 c -0.42968,-0.11642 -0.71235,-0.33673 -0.88044,-0.68621 -0.18884,-0.39263 -0.18223,-0.3053 -0.19218,-2.53607 l -0.009,-2.00545 h -0.50847 -0.50846 v -0.52258 -0.52259 h 0.50953 0.50952 v -0.75776 -0.75776 h 0.69244 0.69244 v 0.75776 0.75776 h 0.54871 0.54873 v 0.52259 0.52258 h -0.54873 -0.54871 v 1.7886 c 0,1.86563 0.006,1.97585 0.11309,2.13501 0.10634,0.15781 0.20211,0.1918 0.54014,0.1918 0.16527,0 0.33894,-0.009 0.38594,-0.019 l 0.0855,-0.019 -0.007,0.54103 -0.007,0.54102 -0.19598,0.0485 c -0.13389,0.0331 -0.3284,0.052 -0.61404,0.0596 -0.35633,0.01 -0.44582,0.003 -0.60592,-0.0396 z m -14.27486,-3.16349 v -3.10941 h 0.64959 0.6496 l 0.0165,0.13718 c 0.009,0.0755 0.0168,0.21948 0.0171,0.32009 5.9e-4,0.23479 0.0237,0.27328 0.10072,0.16915 0.18097,-0.24478 0.72886,-0.57002 1.12719,-0.66912 0.29685,-0.0738 0.95743,-0.0678 1.23551,0.0112 0.59963,0.17059 0.98118,0.53676 1.17701,1.12955 0.13407,0.40581 0.13116,0.34795 0.14118,2.81476 l 0.009,2.30594 h -0.69362 -0.69362 l -1.8e-4,-2.08384 c -1.2e-4,-1.29093 -0.0103,-2.14633 -0.0269,-2.2481 -0.0634,-0.39035 -0.21896,-0.62377 -0.50055,-0.7508 -0.14068,-0.0635 -0.20706,-0.076 -0.45295,-0.0857 -0.16411,-0.007 -0.35041,8.5e-4 -0.43284,0.0187 -0.32995,0.0685 -0.64607,0.28942 -0.84675,0.59175 l -0.0915,0.13788 v 2.21006 2.21005 h -0.69246 -0.69244 z m 16.82743,-1.30647 v -4.4159 h 0.69245 0.69242 v 4.4159 4.4159 h -0.69242 -0.69245 z m 3.00491,1.30647 v -3.10941 h 0.69243 0.69243 v 3.10941 3.10943 h -0.69243 -0.69243 z m 3.39684,0.52318 v -2.58624 l -0.47686,-0.007 -0.47687,-0.007 v -0.50953 -0.50952 l 0.47392,-0.007 0.47391,-0.007 0.0128,-0.54161 c 0.0147,-0.62043 0.0401,-0.75181 0.2156,-1.11646 0.24528,-0.50965 0.66267,-0.83828 1.24547,-0.98063 0.39703,-0.097 1.00565,-0.0959 1.38332,0.003 l 0.0947,0.0247 -0.0111,0.47675 c -0.006,0.26222 -0.016,0.50063 -0.0219,0.5298 -0.0102,0.0507 -0.0293,0.053 -0.42315,0.0523 -0.48291,-8.5e-4 -0.61191,0.0311 -0.8036,0.1999 -0.23162,0.20387 -0.30133,0.43279 -0.30133,0.98949 v 0.36452 h 0.62711 0.62712 v 0.52259 0.5226 h -0.62712 -0.62711 v 2.58682 2.58683 h -0.69244 -0.69244 v -2.58623 z m -37.34809,0.89195 -0.33388,-0.33462 0.67107,-0.28399 c 0.63074,-0.26692 0.67316,-0.28114 0.70579,-0.23652 0.0302,0.0413 0.0234,0.065 -0.0515,0.18142 -0.0474,0.0737 -0.20694,0.32206 -0.35451,0.552 -0.14757,0.22994 -0.27613,0.42668 -0.2857,0.43721 -0.01,0.0105 -0.16764,-0.13145 -0.35129,-0.3155 z m 7.69416,-0.25294 c -0.54307,-0.11502 -0.90717,-0.2042 -0.92066,-0.22549 -0.0123,-0.0194 -0.0225,-0.0546 -0.0227,-0.0784 -1.9e-4,-0.0237 -0.0416,-0.10426 -0.0919,-0.17901 -0.0503,-0.0748 -0.0914,-0.15713 -0.0914,-0.18307 0,-0.0525 0.33733,-2.12412 0.34679,-2.12968 0.003,-0.002 0.0607,-0.0237 0.12755,-0.0485 0.0669,-0.0247 0.15273,-0.0738 0.19078,-0.10915 0.0381,-0.0352 0.0843,-0.0641 0.10272,-0.0641 0.0288,0 3.12352,1.29807 3.14718,1.32009 0.0307,0.0286 -0.15337,0.22849 -0.93206,1.01198 -0.48206,0.48503 -0.8948,0.88045 -0.9172,0.87873 -0.0225,-0.002 -0.44497,-0.0888 -0.93906,-0.1934 z m -8.91309,-0.96596 c -0.32323,-0.32349 -0.57295,-0.58817 -0.55493,-0.58817 0.0473,0 2.57764,0.52568 2.59064,0.53822 0.006,0.006 0.006,0.0151 0,0.0206 -0.008,0.008 -0.94546,0.40735 -1.42189,0.6066 -0.0144,0.006 -0.29059,-0.25375 -0.61382,-0.57725 z m 5.25484,0.20902 c -0.96378,-0.20006 -1.56011,-0.33536 -1.57391,-0.35713 -0.0123,-0.0193 -0.0225,-0.0601 -0.0226,-0.0907 -2.7e-4,-0.0486 0.13857,-0.11488 1.09051,-0.5205 0.6,-0.25566 1.49574,-0.638 1.99053,-0.84964 0.7464,-0.31927 0.9077,-0.37974 0.9472,-0.35509 0.0262,0.0163 0.0476,0.0475 0.0476,0.0692 0,0.0217 -0.0764,0.50764 -0.16984,1.07986 -0.0934,0.57223 -0.16982,1.0455 -0.16982,1.05172 0,0.006 -0.0206,0.0114 -0.0458,0.0116 -0.0884,2.3e-4 -0.31285,0.12524 -0.3702,0.20576 -0.0361,0.0507 -0.0795,0.0806 -0.11498,0.0793 -0.0313,-8.5e-4 -0.75527,-0.14709 -1.6087,-0.32424 z m -4.28826,-0.89024 c -0.63953,-0.13513 -1.2833,-0.27095 -1.4306,-0.30183 -0.25738,-0.0539 -0.26783,-0.0588 -0.26758,-0.12459 2.7e-4,-0.1452 0.15913,-0.33632 0.85405,-1.02907 l 0.70151,-0.69934 0.76175,1.10183 0.76173,1.10183 -0.0807,0.1005 c -0.0444,0.0553 -0.0935,0.0996 -0.10905,0.0984 -0.0156,-8.5e-4 -0.55154,-0.11263 -1.19106,-0.24776 z m 2.50844,0.0129 c 0,-0.0225 1.11993,-1.77383 1.38987,-2.17355 l 0.10145,-0.15025 0.13621,-2.3e-4 c 0.1695,-2.3e-4 0.37205,-0.0901 0.47252,-0.20953 0.0879,-0.10447 -0.029,-0.13999 1.06162,0.32256 l 0.82308,0.34906 0.008,0.0924 c 0.005,0.0579 -0.005,0.0974 -0.0261,0.10584 -0.0187,0.008 -0.83361,0.35427 -1.81085,0.77083 -0.97725,0.41656 -1.86206,0.79362 -1.96625,0.83792 -0.10419,0.0442 -0.18944,0.0691 -0.18944,0.055 z m -1.57265,-1.31359 -0.78565,-1.14718 0.73333,-0.73332 0.73333,-0.73334 0.7659,0.32301 c 1.19643,0.50457 1.0981,0.45356 1.07825,0.55934 -0.0203,0.10821 0.0433,0.34506 0.11832,0.44039 0.029,0.0368 0.0528,0.0795 0.0528,0.0948 0,0.0152 -0.33585,0.54841 -0.74634,1.18477 l -0.74634,1.15701 -0.20895,8.5e-4 -0.20894,8.6e-4 -0.78565,-1.14718 z m 8.34428,0.20291 c -0.8241,-0.34895 -1.5051,-0.64119 -1.51334,-0.64943 -0.009,-0.009 -0.01,-0.0198 -0.004,-0.0258 0.006,-0.006 0.30484,-0.13551 0.66412,-0.28787 l 0.65324,-0.27702 0.79989,0.80392 c 0.73294,0.73664 0.93711,0.97318 0.90659,1.05031 -0.004,0.0111 -0.68232,-0.26514 -1.50642,-0.6141 z m -1.80586,-1.06066 c -0.034,-0.0276 -0.0795,-0.0599 -0.10104,-0.072 -0.0341,-0.0192 -0.0231,-0.12188 0.085,-0.78939 0.0683,-0.42207 0.1295,-0.77274 0.13588,-0.77928 0.0131,-0.0134 1.15935,1.12554 1.15935,1.15183 0,0.0148 -0.15943,0.0858 -1.02025,0.45442 -0.19607,0.084 -0.19751,0.0841 -0.25894,0.0345 z m -1.72755,-0.42939 -0.95554,-0.40652 -0.0465,-0.13514 c -0.0255,-0.0743 -0.0482,-0.1646 -0.0505,-0.20061 -0.003,-0.0452 0.19898,-0.37981 0.64933,-1.07755 l 0.65324,-1.01206 0.62257,0.62233 0.62256,0.62234 -0.15126,0.94263 -0.15126,0.94263 -0.11272,0.0547 c -0.062,0.0301 -0.11535,0.0545 -0.11855,0.0542 -0.003,-2.3e-4 -0.43584,-0.18347 -0.9614,-0.40704 z m -2.94427,-1.24791 c -0.47785,-0.2023 -0.86881,-0.37453 -0.86881,-0.3827 0,-0.009 0.51443,-0.52738 1.14317,-1.15376 1.24257,-1.23791 1.20848,-1.21055 1.50239,-1.20546 0.11375,0.002 0.18015,0.0202 0.2736,0.075 0.14427,0.0846 0.84898,0.76454 0.83794,0.80855 -0.004,0.0165 -0.30655,0.49345 -0.67206,1.05995 l -0.66454,1.03 -0.22387,-5e-5 c -0.19388,-5e-5 -0.23959,0.009 -0.34142,0.0682 l -0.1176,0.0682 -0.8688,-0.36782 z m 31.86772,0.31398 c -0.28649,-0.0637 -0.48555,-0.267 -0.54582,-0.55733 -0.0766,-0.36866 0.13796,-0.75643 0.47351,-0.85608 0.17916,-0.0532 0.42751,-0.0521 0.59704,0.003 0.6286,0.20302 0.6489,1.18001 0.0286,1.37883 -0.17665,0.0567 -0.38769,0.0688 -0.55336,0.032 z"
       id="path909"
       inkscape:connector-curvature="0"
       inkscape:export-xdpi="96"
       inkscape:export-ydpi="96" />
  </g>
</svg>
