<?xml version="1.0" encoding="UTF-8" standalone="no"?>
<!-- Generator: Adobe Illustrator 16.0.0, SVG Export Plug-In . SVG Version: 6.00 Build 0)  -->

<svg
   xmlns:dc="http://purl.org/dc/elements/1.1/"
   xmlns:cc="http://creativecommons.org/ns#"
   xmlns:rdf="http://www.w3.org/1999/02/22-rdf-syntax-ns#"
   xmlns:svg="http://www.w3.org/2000/svg"
   xmlns="http://www.w3.org/2000/svg"
   xmlns:sodipodi="http://sodipodi.sourceforge.net/DTD/sodipodi-0.dtd"
   xmlns:inkscape="http://www.inkscape.org/namespaces/inkscape"
   version="1.1"
   x="0px"
   y="0px"
   width="200"
   height="200"
   viewBox="0 0 200 200"
   xml:space="preserve"
   id="svg9"
   sodipodi:docname="logo_note.svg"
   inkscape:version="0.92.5 (2060ec1f9f, 2020-04-08)"><metadata
   id="metadata15"><rdf:RDF><cc:Work
       rdf:about=""><dc:format>image/svg+xml</dc:format><dc:type
         rdf:resource="http://purl.org/dc/dcmitype/StillImage" /><dc:title /></cc:Work></rdf:RDF></metadata><defs
   id="defs13" /><sodipodi:namedview
   pagecolor="#ffffff"
   bordercolor="#666666"
   borderopacity="1"
   objecttolerance="10"
   gridtolerance="10"
   guidetolerance="10"
   inkscape:pageopacity="0"
   inkscape:pageshadow="2"
   inkscape:window-width="640"
   inkscape:window-height="480"
   id="namedview11"
   showgrid="false"
   inkscape:showpageshadow="false"
   inkscape:zoom="2.81"
   inkscape:cx="100"
   inkscape:cy="100"
   inkscape:current-layer="svg9" />

<g
   id="Guides"
   style="display:none"
   transform="translate(0,176)">
</g>
<g
   aria-label=""
   style="font-style:normal;font-weight:normal;font-size:203.10093689px;line-height:1.25;font-family:sans-serif;letter-spacing:0px;word-spacing:0px;fill:#000000;fill-opacity:1;stroke:none;stroke-width:5.07752323"
   id="text821"><path
     d="M 159.10237,57.551909 H 74.612383 V 40.897632 H 159.10237 Z M 125.38762,125.38762 H 74.612383 V 108.32714 H 125.38762 Z M 159.10237,91.672867 H 74.612383 V 74.612388 h 84.489987 z m 8.73334,-76.162852 H 66.285245 q -7.108533,0 -12.186056,4.874423 -4.874423,4.671321 -4.874423,11.779854 V 133.71476 q 0,7.10853 4.874423,12.18606 5.077523,4.87442 12.186056,4.87442 H 167.83571 q 7.10854,0 11.77986,-4.87442 4.87442,-5.07753 4.87442,-12.18606 V 32.164292 q 0,-7.108533 -4.87442,-11.779854 -4.67132,-4.874423 -11.77986,-4.874423 z M 32.164288,49.224771 H 15.510011 V 167.83572 q 0,7.10853 4.671321,11.77985 4.874423,4.87442 11.982956,4.87442 H 150.77523 V 167.83572 H 32.164288 Z"
     style="font-style:normal;font-variant:normal;font-weight:normal;font-stretch:normal;font-family:'JetBrainsMonoExtraBold Nerd Font';-inkscape-font-specification:'JetBrainsMonoExtraBold Nerd Font';stroke-width:5.07752323"
     id="path814" /></g>

</svg>