<?xml version="1.0" encoding="UTF-8" standalone="no"?>
<svg
   xmlns:dc="http://purl.org/dc/elements/1.1/"
   xmlns:cc="http://creativecommons.org/ns#"
   xmlns:rdf="http://www.w3.org/1999/02/22-rdf-syntax-ns#"
   xmlns:svg="http://www.w3.org/2000/svg"
   xmlns="http://www.w3.org/2000/svg"
   xmlns:sodipodi="http://sodipodi.sourceforge.net/DTD/sodipodi-0.dtd"
   xmlns:inkscape="http://www.inkscape.org/namespaces/inkscape"
   version="1.1"
   x="0px"
   y="0px"
   width="200"
   height="200"
   viewBox="0 0 200 200"
   xml:space="preserve"
   id="svg9"
   sodipodi:docname="logo_about_vlog.svg"
   inkscape:version="1.0.1 (3bc2e813f5, 2020-09-07, custom)"><metadata
   id="metadata15"><rdf:RDF><cc:Work
       rdf:about=""><dc:format>image/svg+xml</dc:format><dc:type
         rdf:resource="http://purl.org/dc/dcmitype/StillImage" /><dc:title /></cc:Work></rdf:RDF></metadata><defs
   id="defs13" /><sodipodi:namedview
   pagecolor="#ffffff"
   bordercolor="#666666"
   borderopacity="1"
   objecttolerance="10"
   gridtolerance="10"
   guidetolerance="10"
   inkscape:pageopacity="0"
   inkscape:pageshadow="2"
   inkscape:window-width="640"
   inkscape:window-height="480"
   id="namedview11"
   showgrid="false"
   inkscape:showpageshadow="false"
   inkscape:zoom="2.635"
   inkscape:cx="100"
   inkscape:cy="100"
   inkscape:current-layer="text821"
   inkscape:document-rotation="0" />

<g
   id="Guides"
   style="display:none"
   transform="translate(0,176)">
</g>
<g
   aria-label=""
   style="font-style:normal;font-weight:normal;font-size:203.10093689px;line-height:1.25;font-family:sans-serif;letter-spacing:0px;word-spacing:0px;fill:#000000;fill-opacity:1;stroke:none;stroke-width:5.07752323"
   id="text821"><g
     aria-label=""
     id="text835"
     style="font-size:184.531px;line-height:1.25;font-family:sans-serif;letter-spacing:0px;word-spacing:0px;stroke-width:23.424"><path
       d="M 192.2655,43.902574 V 155.91289 q 0,4.24422 -4.05968,6.08953 -1.10719,0.55359 -2.58343,0.55359 -2.76797,0 -4.61328,-1.84531 l -41.51947,-41.51948 v 16.97686 q 0,12.36357 -8.67296,21.03653 -8.48843,8.67296 -20.85201,8.67296 H 37.443989 q -12.363577,0 -21.036535,-8.67296 -8.6729569,-8.67296 -8.6729569,-21.03653 V 63.647391 q 0,-12.363577 8.6729569,-20.852003 8.672958,-8.672958 21.036535,-8.672958 h 72.520681 q 12.36358,0 20.85201,8.672958 8.67296,8.488426 8.67296,20.852003 v 17.161384 l 41.51947,-41.519476 q 1.84531,-1.84531 4.61328,-1.84531 1.84531,0 2.58343,0.369062 4.05968,1.84531 4.05968,6.089523 z"
       style="font-style:normal;font-variant:normal;font-weight:normal;font-stretch:normal;font-family:'JetBrainsMonoExtraBold Nerd Font';-inkscape-font-specification:'JetBrainsMonoExtraBold Nerd Font';stroke-width:23.424"
       id="path840" /></g></g>






</svg>
