<?xml version="1.0" encoding="UTF-8" standalone="no"?>
<!-- Created with Inkscape (http://www.inkscape.org/) -->

<svg
   xmlns:dc="http://purl.org/dc/elements/1.1/"
   xmlns:cc="http://creativecommons.org/ns#"
   xmlns:rdf="http://www.w3.org/1999/02/22-rdf-syntax-ns#"
   xmlns:svg="http://www.w3.org/2000/svg"
   xmlns="http://www.w3.org/2000/svg"
   xmlns:sodipodi="http://sodipodi.sourceforge.net/DTD/sodipodi-0.dtd"
   xmlns:inkscape="http://www.inkscape.org/namespaces/inkscape"
   version="1.1"
   id="svg2"
   width="150"
   height="150"
   viewBox="0 0 150 150"
   sodipodi:docname="logo_blank.svg"
   inkscape:version="0.92.4 5da689c313, 2019-01-14">
  <metadata
     id="metadata8">
    <rdf:RDF>
      <cc:Work
         rdf:about="">
        <dc:format>image/svg+xml</dc:format>
        <dc:type
           rdf:resource="http://purl.org/dc/dcmitype/StillImage" />
        <dc:title />
        <dc:creator>
          <cc:Agent>
            <dc:title>Rizqi Nur Assyaufi</dc:title>
          </cc:Agent>
        </dc:creator>
        <dc:publisher>
          <cc:Agent>
            <dc:title>bandithijo.com</dc:title>
          </cc:Agent>
        </dc:publisher>
      </cc:Work>
    </rdf:RDF>
  </metadata>
  <defs
     id="defs6" />
  <sodipodi:namedview
     pagecolor="#ffffff"
     bordercolor="#666666"
     borderopacity="1"
     objecttolerance="10"
     gridtolerance="10"
     guidetolerance="10"
     inkscape:pageopacity="0"
     inkscape:pageshadow="2"
     inkscape:window-width="640"
     inkscape:window-height="480"
     id="namedview4"
     showgrid="false"
     inkscape:zoom="3.74"
     inkscape:cx="47.15419"
     inkscape:cy="81.295652"
     inkscape:current-layer="layer1"
     showguides="true"
     inkscape:guide-bbox="true"
     inkscape:snap-bbox="true"
     inkscape:snap-nodes="true"
     inkscape:snap-intersection-paths="true"
     inkscape:object-paths="true">
    <inkscape:grid
       type="xygrid"
       id="grid824" />
  </sodipodi:namedview>
  <g
     inkscape:groupmode="layer"
     id="layer1"
     inkscape:label="Layer 1">
    <g
       id="g964">
      <path
         sodipodi:nodetypes="cc"
         inkscape:connector-curvature="0"
         id="path820"
         d="M 74.9113,2.7718039 C 52.314595,12.203853 67.377174,27.427328 75.1013,41.835419"
         style="fill:none;fill-rule:evenodd;stroke:#000000;stroke-width:1.5;stroke-linecap:round;stroke-linejoin:round;stroke-miterlimit:4;stroke-dasharray:none;stroke-opacity:0.70588237" />
      <path
         sodipodi:nodetypes="cccccccc"
         inkscape:connector-curvature="0"
         id="path825"
         d="M 75.1013,41.835419 69.19815,65.109373 60.122983,66.810967 43.863308,56.79047 49.346222,68.701627 17.394071,74.940804 49.724354,82.503444 75.1013,71.44031"
         style="fill:none;fill-rule:evenodd;stroke:#000000;stroke-width:1.5;stroke-linecap:round;stroke-linejoin:round;stroke-miterlimit:4;stroke-dasharray:none;stroke-opacity:0.70588237;paint-order:normal" />
      <path
         sodipodi:nodetypes="ccc"
         inkscape:connector-curvature="0"
         id="path827"
         d="M 74.591089,43.846993 65.240642,58.55615 50.188919,60.688811"
         style="fill:none;fill-rule:evenodd;stroke:#000000;stroke-width:1.5;stroke-linecap:round;stroke-linejoin:round;stroke-miterlimit:4;stroke-dasharray:none;stroke-opacity:0.70588237" />
      <path
         sodipodi:nodetypes="ccc"
         inkscape:connector-curvature="0"
         id="path829"
         d="m 45.878569,61.16845 -16.333114,2.334224 7.122272,7.674635"
         style="fill:none;fill-rule:evenodd;stroke:#000000;stroke-width:1.5;stroke-linecap:round;stroke-linejoin:round;stroke-miterlimit:4;stroke-dasharray:none;stroke-opacity:0.70588237" />
      <path
         sodipodi:nodetypes="ccccc"
         inkscape:connector-curvature="0"
         id="path831"
         d="M 75.1013,41.835419 C 67.369629,57.498291 57.090897,30.557855 54.010695,8.1550801 46.7763,10.210134 33.057498,23.430182 30.651802,25.883829 72.432788,68.140171 41.09116,43.695306 22.440525,37.280673 c -6.105493,15.31018 -5.821589,25.098711 0.126977,36.649934"
         style="fill:none;fill-rule:evenodd;stroke:#000000;stroke-width:1.5;stroke-linecap:round;stroke-linejoin:round;stroke-miterlimit:4;stroke-dasharray:none;stroke-opacity:0.70588237" />
      <path
         inkscape:connector-curvature="0"
         id="path833"
         d="M 63.091692,17.781959 56.19566,19.904683"
         style="fill:none;fill-rule:evenodd;stroke:#000000;stroke-width:1.5;stroke-linecap:round;stroke-linejoin:round;stroke-miterlimit:4;stroke-dasharray:none;stroke-opacity:0.70588237" />
      <path
         inkscape:connector-curvature="0"
         id="path837"
         d="m 36.743129,32.106431 -6.161802,8.599187"
         style="fill:none;fill-rule:evenodd;stroke:#000000;stroke-width:1.5;stroke-linecap:round;stroke-linejoin:round;stroke-miterlimit:4;stroke-dasharray:none;stroke-opacity:0.70588237" />
      <path
         sodipodi:nodetypes="ccccc"
         inkscape:connector-curvature="0"
         id="path839"
         d="m 24.28762,76.55333 c 3.516252,6.489503 9.019914,9.352083 9.177059,12.567423 l 0.614465,8.578869 c -1.134217,7.030148 -10.43438,5.692958 -11.391226,0.307232 L 20.29259,75.61882"
         style="fill:none;fill-rule:evenodd;stroke:#000000;stroke-width:1.5;stroke-linecap:round;stroke-linejoin:round;stroke-miterlimit:4;stroke-dasharray:none;stroke-opacity:0.70588237" />
      <path
         sodipodi:nodetypes="cccc"
         inkscape:connector-curvature="0"
         id="path826"
         d="M 38.547413,79.888955 C 35.680627,84.524968 37.791512,92.965457 43.8284,94.44547 l 19.3771,-0.1022 c 4.309238,-0.715678 11.126609,-11.405483 0.531438,-17.948642"
         style="fill:none;fill-rule:evenodd;stroke:#000000;stroke-width:1.5;stroke-linecap:round;stroke-linejoin:round;stroke-miterlimit:4;stroke-dasharray:none;stroke-opacity:0.70588237" />
      <path
         inkscape:connector-curvature="0"
         id="path828"
         d="m 75.1013,78.141711 -6.144409,2.711384"
         style="fill:none;fill-rule:evenodd;stroke:#000000;stroke-width:2;stroke-linecap:round;stroke-linejoin:round;stroke-miterlimit:4;stroke-dasharray:none;stroke-opacity:0.70588237"
         sodipodi:nodetypes="cc" />
      <path
         sodipodi:nodetypes="ccc"
         inkscape:connector-curvature="0"
         id="path832"
         d="M 75.1013,90.909091 C 57.102205,109.64275 30.129717,91.878731 22.994652,110.02674 38.130798,103.02689 22.305346,132.83651 75.1013,147.59358"
         style="fill:none;fill-rule:evenodd;stroke:#000000;stroke-width:1.5;stroke-linecap:round;stroke-linejoin:round;stroke-miterlimit:4;stroke-dasharray:none;stroke-opacity:0.70588237" />
    </g>
    <g
       id="g977">
      <path
         style="fill:none;fill-rule:evenodd;stroke:#000000;stroke-width:1.5;stroke-linecap:round;stroke-linejoin:round;stroke-miterlimit:4;stroke-dasharray:none;stroke-opacity:0.70588237"
         d="m 75.48687,2.7718039 c 22.596705,9.4320491 7.534126,24.6555241 -0.19,39.0636151"
         id="path965"
         inkscape:connector-curvature="0"
         sodipodi:nodetypes="cc" />
      <path
         style="fill:none;fill-rule:evenodd;stroke:#000000;stroke-width:1.5;stroke-linecap:round;stroke-linejoin:round;stroke-miterlimit:4;stroke-dasharray:none;stroke-opacity:0.70588237;paint-order:normal"
         d="m 75.29687,41.835419 5.90315,23.273954 9.075167,1.701594 16.259673,-10.020497 -5.48291,11.911157 31.95215,6.239177 -32.33028,7.56264 L 75.29687,71.44031"
         id="path967"
         inkscape:connector-curvature="0"
         sodipodi:nodetypes="cccccccc" />
      <path
         style="fill:none;fill-rule:evenodd;stroke:#000000;stroke-width:1.5;stroke-linecap:round;stroke-linejoin:round;stroke-miterlimit:4;stroke-dasharray:none;stroke-opacity:0.70588237"
         d="m 75.807081,43.846993 9.350447,14.709157 15.051722,2.132661"
         id="path969"
         inkscape:connector-curvature="0"
         sodipodi:nodetypes="ccc" />
      <path
         style="fill:none;fill-rule:evenodd;stroke:#000000;stroke-width:1.5;stroke-linecap:round;stroke-linejoin:round;stroke-miterlimit:4;stroke-dasharray:none;stroke-opacity:0.70588237"
         d="m 104.5196,61.16845 16.33311,2.334224 -7.12227,7.674635"
         id="path971"
         inkscape:connector-curvature="0"
         sodipodi:nodetypes="ccc" />
      <path
         style="fill:none;fill-rule:evenodd;stroke:#000000;stroke-width:1.5;stroke-linecap:round;stroke-linejoin:round;stroke-miterlimit:4;stroke-dasharray:none;stroke-opacity:0.70588237"
         d="M 75.29687,41.835419 C 83.028541,57.498291 93.307273,30.557855 96.387475,8.1550801 103.62187,10.210134 117.34067,23.430182 119.74637,25.883829 c -41.780988,42.256342 -10.43936,17.811477 8.21127,11.396844 6.1055,15.31018 5.82159,25.098711 -0.12697,36.649934"
         id="path973"
         inkscape:connector-curvature="0"
         sodipodi:nodetypes="ccccc" />
      <path
         style="fill:none;fill-rule:evenodd;stroke:#000000;stroke-width:1.5;stroke-linecap:round;stroke-linejoin:round;stroke-miterlimit:4;stroke-dasharray:none;stroke-opacity:0.70588237"
         d="m 87.306478,17.781959 6.896032,2.122724"
         id="path975"
         inkscape:connector-curvature="0" />
      <path
         style="fill:none;fill-rule:evenodd;stroke:#000000;stroke-width:1.5;stroke-linecap:round;stroke-linejoin:round;stroke-miterlimit:4;stroke-dasharray:none;stroke-opacity:0.70588237"
         d="m 113.65504,32.106431 6.1618,8.599187"
         id="path977"
         inkscape:connector-curvature="0" />
      <path
         style="fill:none;fill-rule:evenodd;stroke:#000000;stroke-width:1.5;stroke-linecap:round;stroke-linejoin:round;stroke-miterlimit:4;stroke-dasharray:none;stroke-opacity:0.70588237"
         d="m 126.11055,76.55333 c -3.51625,6.489503 -9.01991,9.352083 -9.17706,12.567423 l -0.61446,8.578869 c 1.13421,7.030148 10.43438,5.692958 11.39122,0.307232 l 2.39533,-22.388034"
         id="path979"
         inkscape:connector-curvature="0"
         sodipodi:nodetypes="ccccc" />
      <path
         style="fill:none;fill-rule:evenodd;stroke:#000000;stroke-width:1.5;stroke-linecap:round;stroke-linejoin:round;stroke-miterlimit:4;stroke-dasharray:none;stroke-opacity:0.70588237"
         d="m 111.85076,79.888955 c 2.86678,4.636013 0.7559,13.076502 -5.28099,14.556515 l -19.3771,-0.1022 C 82.883432,93.627592 76.066061,82.937787 86.661232,76.394628"
         id="path981"
         inkscape:connector-curvature="0"
         sodipodi:nodetypes="cccc" />
      <path
         sodipodi:nodetypes="cc"
         style="fill:none;fill-rule:evenodd;stroke:#000000;stroke-width:2;stroke-linecap:round;stroke-linejoin:round;stroke-miterlimit:4;stroke-dasharray:none;stroke-opacity:0.70588237"
         d="m 75.29687,78.141711 6.144409,2.711384"
         id="path983"
         inkscape:connector-curvature="0" />
      <path
         style="fill:none;fill-rule:evenodd;stroke:#000000;stroke-width:1.5;stroke-linecap:round;stroke-linejoin:round;stroke-miterlimit:4;stroke-dasharray:none;stroke-opacity:0.70588237"
         d="m 75.29687,90.909091 c 17.999095,18.733659 44.97158,0.96964 52.10665,19.117649 -15.13615,-6.99985 0.6893,22.80977 -52.10665,37.56684"
         id="path985"
         inkscape:connector-curvature="0"
         sodipodi:nodetypes="ccc" />
    </g>
    <path
       inkscape:connector-curvature="0"
       id="path1017"
       d="m 42.67071,105.00162 c 0.361326,1.63486 2.000044,3.59887 0.590923,5.11902 -0.754271,0.68004 -2.110197,0.85691 -2.767518,0.0491 0.444363,1.96503 -2.563854,3.05627 -3.724586,1.5545 -0.863935,-1.16075 -1.78472,-3.17731 -1.631946,-4.30861 2.499938,-0.83881 5.011323,-1.64348 7.533127,-2.41404 z m -2.555148,2.47191 c -0.117068,1.58998 2.488136,2.52746 2.102379,0.44792 -0.189942,-1.72903 -1.061667,-0.65465 -2.102379,-0.44792 z m -1.294781,0.46076 c -1.198484,0.35401 -2.625444,0.66397 -1.465927,2.06843 1.562774,1.93215 2.656545,-0.70567 1.465927,-2.06843 z"
       style="font-style:normal;font-weight:bold;font-size:medium;line-height:125%;font-family:sans-serif;letter-spacing:-9.73815632px;word-spacing:0px;fill:#000000;fill-opacity:0.70588237;stroke:none;stroke-width:0.05994998px;stroke-linecap:butt;stroke-linejoin:miter;stroke-opacity:1" />
    <path
       inkscape:connector-curvature="0"
       id="path1019"
       d="m 39.442191,117.49487 c 1.499146,-1.16026 -1.645317,-0.94865 -1.482423,-2.50581 -0.754318,-2.07319 2.569554,-3.35681 3.560988,-1.46669 0.431022,0.89604 1.493484,2.39308 1.802771,0.60308 -0.346382,-1.09431 -2.006375,-1.58791 -0.484275,-2.53292 1.287049,0.85457 2.672438,2.86923 1.366058,4.26974 -1.293206,1.00268 -2.777519,1.7423 -4.134911,2.65928 -0.213687,-0.33958 -0.423139,-0.68187 -0.628208,-1.02668 z m 2.248908,-1.88158 c -0.09172,-1.36451 -2.708053,-2.09052 -2.157258,-0.24749 0.424068,0.91471 1.484663,0.79583 2.157258,0.24749 z"
       style="font-style:normal;font-weight:bold;font-size:medium;line-height:125%;font-family:sans-serif;letter-spacing:-9.73815632px;word-spacing:0px;fill:#000000;fill-opacity:0.70588237;stroke:none;stroke-width:0.05994998px;stroke-linecap:butt;stroke-linejoin:miter;stroke-opacity:1" />
    <path
       inkscape:connector-curvature="0"
       id="path1021"
       d="m 44.171244,124.05762 c -1.097838,-0.86966 -1.208869,-1.67847 0.153364,-2.3059 0.926193,-0.76631 3.551713,-2.20804 1.487753,-3.2472 -1.672811,-0.009 -2.861921,1.74004 -4.2157,2.29327 -1.017107,-0.94789 -0.990255,-1.72796 0.368552,-2.21903 1.328149,-0.6493 2.885755,-2.32137 4.09465,-2.29536 1.14637,0.65298 -0.924061,1.60562 0.751991,1.46455 1.914396,0.60359 1.75186,3.19411 0.06763,3.9955 -0.908355,0.7648 -1.811121,1.53622 -2.708237,2.31417 z"
       style="font-style:normal;font-weight:bold;font-size:medium;line-height:125%;font-family:sans-serif;letter-spacing:-9.73815632px;word-spacing:0px;fill:#000000;fill-opacity:0.70588237;stroke:none;stroke-width:0.05994998px;stroke-linecap:butt;stroke-linejoin:miter;stroke-opacity:1" />
    <path
       inkscape:connector-curvature="0"
       id="path1023"
       d="m 46.1735,126.37935 c -1.520238,-1.52829 0.183463,-3.67852 1.654087,-4.47501 1.198485,-1.02277 3.549414,-0.56089 3.557852,1.23698 -0.172817,1.18141 1.235975,-1.25779 1.820813,-1.50281 0.672982,-0.7664 1.955183,0.92189 0.638144,1.3536 -1.722098,1.85892 -3.416063,3.74389 -5.081305,5.65391 -0.732285,-0.44445 -1.10448,-0.99297 -0.697498,-1.71613 -0.676332,0.2117 -1.419043,-0.0397 -1.892093,-0.55054 z m 1.375692,-0.54645 c 1.258423,1.18409 3.749495,-1.41055 2.632704,-2.6419 -1.137504,-0.96331 -3.783054,1.4771 -2.632704,2.6419 z"
       style="font-style:normal;font-weight:bold;font-size:medium;line-height:125%;font-family:sans-serif;letter-spacing:-9.73815632px;word-spacing:0px;fill:#000000;fill-opacity:0.70588237;stroke:none;stroke-width:0.05994998px;stroke-linecap:butt;stroke-linejoin:miter;stroke-opacity:1" />
    <path
       inkscape:connector-curvature="0"
       id="path1025"
       d="m 54.668972,123.35392 c 1.590377,-1.48662 1.828384,2.14062 0.04653,1.11178 -0.412395,-0.24608 -0.386595,-0.81872 -0.04653,-1.11178 z m -3.764387,7.03683 c -2.643754,-1.11668 0.646146,-2.8659 1.466981,-4.31518 0.725529,-1.05084 1.456584,-1.9141 2.411468,-0.57594 -1.312801,1.61439 -2.605721,3.24495 -3.878449,4.89112 z"
       style="font-style:normal;font-weight:bold;font-size:medium;line-height:125%;font-family:sans-serif;letter-spacing:-9.73815632px;word-spacing:0px;fill:#000000;fill-opacity:0.70588237;stroke:none;stroke-width:0.05994998px;stroke-linecap:butt;stroke-linejoin:miter;stroke-opacity:1" />
    <path
       inkscape:connector-curvature="0"
       id="path1027"
       d="m 54.559624,131.44832 c 1.914287,0.2837 -0.152874,2.28173 -1.147689,0.86866 -2.222958,-1.56172 0.577249,-3.69358 1.477271,-5.14791 -1.53127,-1.18709 1.553228,-0.76259 1.999306,-1.77382 1.658783,0.49381 -1.092214,1.77368 0.887189,2.18386 0.648908,0.59731 -0.760264,1.81179 -1.352639,0.64715 -0.870264,-0.0575 -1.795808,1.87022 -2.191227,2.79876 l 0.113793,0.23124 0.213986,0.19207 z"
       style="font-style:normal;font-weight:bold;font-size:medium;line-height:125%;font-family:sans-serif;letter-spacing:-9.73815632px;word-spacing:0px;fill:#000000;fill-opacity:0.70588237;stroke:none;stroke-width:0.05994998px;stroke-linecap:butt;stroke-linejoin:miter;stroke-opacity:1" />
    <path
       inkscape:connector-curvature="0"
       id="path1029"
       d="m 60.955333,136.3501 c -1.817601,-0.24979 -1.326615,-1.32402 -0.580211,-2.46127 0.727255,-0.97888 0.804892,-1.72533 -0.579101,-2.01779 -1.653428,-1.67593 -2.047461,1.12219 -2.924594,2.17314 -0.611741,0.21551 -2.151609,-0.72134 -1.003875,-1.51019 1.253153,-2.02299 2.531427,-4.03043 3.834973,-6.02133 3.080027,0.55609 -2.02092,3.25653 0.481947,3.93588 0.891045,0.53721 1.854157,1.19612 2.111272,-0.27421 0.484647,-1.13593 0.958702,-2.27832 2.199213,-1.17864 -1.21078,2.43643 -2.390536,4.88828 -3.539624,7.35441 z"
       style="font-style:normal;font-weight:bold;font-size:medium;line-height:125%;font-family:sans-serif;letter-spacing:-9.73815632px;word-spacing:0px;fill:#000000;fill-opacity:0.70588237;stroke:none;stroke-width:0.05994998px;stroke-linecap:butt;stroke-linejoin:miter;stroke-opacity:1" />
    <path
       inkscape:connector-curvature="0"
       id="path1031"
       d="m 65.246501,129.65886 c 1.379924,-1.98325 2.166238,2.00006 0.125432,0.92902 -0.311194,-0.20076 -0.292872,-0.64226 -0.125432,-0.92902 z m -1.729996,7.77489 c -1.369643,-0.23045 -1.68636,-0.90958 -0.839165,-2.03202 0.801638,-1.23266 1.148972,-3.66632 2.270265,-4.11994 2.044417,0.41451 -0.415601,2.67444 -0.533569,3.99049 -0.301558,0.7195 -0.600727,1.44 -0.897531,2.16147 z"
       style="font-style:normal;font-weight:bold;font-size:medium;line-height:125%;font-family:sans-serif;letter-spacing:-9.73815632px;word-spacing:0px;fill:#000000;fill-opacity:0.70588237;stroke:none;stroke-width:0.05994998px;stroke-linecap:butt;stroke-linejoin:miter;stroke-opacity:1" />
    <path
       inkscape:connector-curvature="0"
       id="path1033"
       d="m 63.035094,140.19539 c -1.624801,-0.13678 -0.603602,-2.53155 0.568217,-1.31763 1.208993,-0.74866 1.267531,-2.55514 1.955053,-3.77268 0.720518,-0.97002 0.63505,-3.78027 2.263921,-2.71934 0.535392,0.83748 -0.822581,2.55871 -1.037176,3.75631 -0.608297,1.28147 -0.741381,2.85426 -1.753796,3.89834 -0.566636,0.45524 -1.357741,0.41554 -1.996219,0.155 z M 67.377,130.50986 c 1.030121,-1.92003 2.421991,1.44411 0.398134,1.03646 -0.46798,-0.10185 -0.623815,-0.65099 -0.398134,-1.03646 z"
       style="font-style:normal;font-weight:bold;font-size:medium;line-height:125%;font-family:sans-serif;letter-spacing:-9.73815632px;word-spacing:0px;fill:#000000;fill-opacity:0.70588237;stroke:none;stroke-width:0.05994998px;stroke-linecap:butt;stroke-linejoin:miter;stroke-opacity:1" />
    <path
       inkscape:connector-curvature="0"
       id="path1035"
       d="m 69.130301,136.09116 c -1.267173,1.87887 1.831678,3.1578 2.107543,0.85109 1.211071,-2.22871 -1.545045,-3.43671 -2.107543,-0.85109 z m 3.658185,1.02597 c -0.262867,2.12293 -2.918133,3.38196 -4.573595,1.85586 -1.569642,-1.50101 -0.65837,-4.24382 0.919859,-5.37339 1.739665,-1.17468 4.296805,0.5244 3.823687,2.61223 -0.02742,0.30634 -0.08756,0.60919 -0.169951,0.9053 z"
       style="font-style:normal;font-weight:bold;font-size:medium;line-height:125%;font-family:sans-serif;letter-spacing:-9.73815632px;word-spacing:0px;fill:#000000;fill-opacity:0.70588237;stroke:none;stroke-width:0.05994998px;stroke-linecap:butt;stroke-linejoin:miter;stroke-opacity:1" />
  </g>
</svg>
