<?xml version="1.0" encoding="UTF-8" standalone="no"?>
<svg
   xmlns:dc="http://purl.org/dc/elements/1.1/"
   xmlns:cc="http://creativecommons.org/ns#"
   xmlns:rdf="http://www.w3.org/1999/02/22-rdf-syntax-ns#"
   xmlns:svg="http://www.w3.org/2000/svg"
   xmlns="http://www.w3.org/2000/svg"
   xmlns:sodipodi="http://sodipodi.sourceforge.net/DTD/sodipodi-0.dtd"
   xmlns:inkscape="http://www.inkscape.org/namespaces/inkscape"
   version="1.1"
   x="0px"
   y="0px"
   width="200"
   height="200"
   viewBox="0 0 200 200"
   xml:space="preserve"
   id="svg9"
   sodipodi:docname="logo_perhatian.svg"
   inkscape:version="1.0.1 (3bc2e813f5, 2020-09-07, custom)"><metadata
   id="metadata15"><rdf:RDF><cc:Work
       rdf:about=""><dc:format>image/svg+xml</dc:format><dc:type
         rdf:resource="http://purl.org/dc/dcmitype/StillImage" /><dc:title /></cc:Work></rdf:RDF></metadata><defs
   id="defs13" /><sodipodi:namedview
   pagecolor="#ffffff"
   bordercolor="#666666"
   borderopacity="1"
   objecttolerance="10"
   gridtolerance="10"
   guidetolerance="10"
   inkscape:pageopacity="0"
   inkscape:pageshadow="2"
   inkscape:window-width="640"
   inkscape:window-height="480"
   id="namedview11"
   showgrid="false"
   inkscape:showpageshadow="false"
   inkscape:zoom="2.635"
   inkscape:cx="100"
   inkscape:cy="97.916596"
   inkscape:current-layer="text821"
   inkscape:document-rotation="0" />

<g
   id="Guides"
   style="display:none"
   transform="translate(0,176)">
</g>
<g
   aria-label=""
   style="font-style:normal;font-weight:normal;font-size:203.10093689px;line-height:1.25;font-family:sans-serif;letter-spacing:0px;word-spacing:0px;fill:#000000;fill-opacity:1;stroke:none;stroke-width:5.07752323"
   id="text821"><g
     aria-label=""
     id="text834"
     style="font-size:177.137px;line-height:1.25;font-family:sans-serif;letter-spacing:0px;word-spacing:0px;stroke-width:22.4854"><path
       d="m 112.57673,153.67251 v -18.77652 q 0,-3.18847 -3.01133,-3.18847 H 90.434602 q -3.011329,0 -3.011329,3.18847 v 18.77652 q 0,1.4171 0.885685,2.47992 0.885685,0.88568 2.125644,0.88568 H 109.5654 q 1.23996,0 2.12564,-0.88568 0.88569,-1.06282 0.88569,-2.47992 z m -0.17714,-37.02163 1.77137,-45.34707 q 0,-1.062822 -0.88569,-1.77137 -1.06282,-1.062822 -2.47991,-1.062822 H 89.194643 q -1.417096,0 -2.479918,1.062822 -0.885685,0.708548 -0.885685,1.948507 l 1.594233,45.169933 q 0,2.30278 3.365603,2.30278 h 18.245114 q 3.01133,0 3.3656,-2.30278 z m -1.4171,-92.288373 75.99177,139.229673 q 3.36561,6.37694 -0.17713,12.39959 -3.71988,6.1998 -10.80536,6.1998 H 24.008229 q -7.085479,0 -10.805356,-6.1998 -3.54274,-6.02265 -0.177137,-12.39959 L 89.017506,24.362507 Q 92.383109,17.808438 100,17.808438 q 7.61689,0 10.98249,6.554069 z"
       style="font-style:normal;font-variant:normal;font-weight:normal;font-stretch:normal;font-family:'JetBrainsMonoExtraBold Nerd Font';-inkscape-font-specification:'JetBrainsMonoExtraBold Nerd Font';stroke-width:22.4854"
       id="path836" /></g></g>






</svg>
