<?xml version="1.0" encoding="UTF-8" standalone="no"?>
<svg
   xmlns:dc="http://purl.org/dc/elements/1.1/"
   xmlns:cc="http://creativecommons.org/ns#"
   xmlns:rdf="http://www.w3.org/1999/02/22-rdf-syntax-ns#"
   xmlns:svg="http://www.w3.org/2000/svg"
   xmlns="http://www.w3.org/2000/svg"
   xmlns:sodipodi="http://sodipodi.sourceforge.net/DTD/sodipodi-0.dtd"
   xmlns:inkscape="http://www.inkscape.org/namespaces/inkscape"
   version="1.1"
   id="svg2"
   width="920"
   height="150"
   viewBox="0 0 920 150"
   sodipodi:docname="logo_blank_banner.svg"
   inkscape:version="1.0.1 (3bc2e813f5, 2020-09-07, custom)">
  <metadata
     id="metadata8">
    <rdf:RDF>
      <cc:Work
         rdf:about="">
        <dc:format>image/svg+xml</dc:format>
        <dc:type
           rdf:resource="http://purl.org/dc/dcmitype/StillImage" />
        <dc:title></dc:title>
        <dc:creator>
          <cc:Agent>
            <dc:title>Rizqi Nur Assyaufi</dc:title>
          </cc:Agent>
        </dc:creator>
        <dc:publisher>
          <cc:Agent>
            <dc:title>bandithijo.com</dc:title>
          </cc:Agent>
        </dc:publisher>
      </cc:Work>
    </rdf:RDF>
  </metadata>
  <defs
     id="defs6" />
  <sodipodi:namedview
     pagecolor="#ffffff"
     bordercolor="#666666"
     borderopacity="1"
     objecttolerance="10"
     gridtolerance="10"
     guidetolerance="10"
     inkscape:pageopacity="0"
     inkscape:pageshadow="2"
     inkscape:window-width="640"
     inkscape:window-height="480"
     id="namedview4"
     showgrid="false"
     inkscape:zoom="0.5606383"
     inkscape:cx="470"
     inkscape:cy="75"
     inkscape:current-layer="layer1"
     showguides="true"
     inkscape:guide-bbox="true"
     inkscape:snap-bbox="true"
     inkscape:snap-nodes="true"
     inkscape:snap-intersection-paths="true"
     inkscape:object-paths="true"
     inkscape:document-rotation="0">
    <sodipodi:guide
       position="75.1013,79.50502"
       orientation="1,0"
       id="guide817"
       inkscape:locked="false" />
    <inkscape:grid
       type="xygrid"
       id="grid824" />
  </sodipodi:namedview>
  <g
     inkscape:groupmode="layer"
     id="layer1"
     inkscape:label="Layer 1">
    <g
       id="g902"
       transform="translate(160,-0.18269195)">
      <g
         id="g931">
        <path
           sodipodi:nodetypes="cc"
           inkscape:connector-curvature="0"
           id="path820"
           d="m 299.71221,2.7718039 c -22.59671,9.4320491 -7.53413,24.6555241 0.19,39.0636151"
           style="fill:none;fill-rule:evenodd;stroke:#000000;stroke-width:1.5;stroke-linecap:round;stroke-linejoin:round;stroke-miterlimit:4;stroke-dasharray:none;stroke-opacity:0.705882" />
        <path
           sodipodi:nodetypes="cccccccc"
           inkscape:connector-curvature="0"
           id="path825"
           d="m 299.90221,41.835419 -5.90315,23.273954 -9.07517,1.701594 -16.25967,-10.020497 5.48291,11.911157 -31.95215,6.239177 32.33028,7.56264 25.37695,-11.063134"
           style="fill:none;fill-rule:evenodd;stroke:#000000;stroke-width:1.5;stroke-linecap:round;stroke-linejoin:round;stroke-miterlimit:4;stroke-dasharray:none;stroke-opacity:0.705882;paint-order:normal" />
        <path
           sodipodi:nodetypes="ccc"
           inkscape:connector-curvature="0"
           id="path827"
           d="m 299.392,43.846993 -9.35045,14.709157 -15.05172,2.132661"
           style="fill:none;fill-rule:evenodd;stroke:#000000;stroke-width:1.5;stroke-linecap:round;stroke-linejoin:round;stroke-miterlimit:4;stroke-dasharray:none;stroke-opacity:0.705882" />
        <path
           sodipodi:nodetypes="ccc"
           inkscape:connector-curvature="0"
           id="path829"
           d="m 270.67948,61.16845 -16.33312,2.334224 7.12228,7.674635"
           style="fill:none;fill-rule:evenodd;stroke:#000000;stroke-width:1.5;stroke-linecap:round;stroke-linejoin:round;stroke-miterlimit:4;stroke-dasharray:none;stroke-opacity:0.705882" />
        <path
           sodipodi:nodetypes="ccccc"
           inkscape:connector-curvature="0"
           id="path831"
           d="M 299.90221,41.835419 C 292.17054,57.498291 281.89181,30.557855 278.8116,8.1550801 271.57721,10.210134 257.85841,23.430182 255.45271,25.883829 c 41.78099,42.256342 10.43936,17.811477 -8.21128,11.396844 -6.10549,15.31018 -5.82158,25.098711 0.12698,36.649934"
           style="fill:none;fill-rule:evenodd;stroke:#000000;stroke-width:1.5;stroke-linecap:round;stroke-linejoin:round;stroke-miterlimit:4;stroke-dasharray:none;stroke-opacity:0.705882" />
        <path
           inkscape:connector-curvature="0"
           id="path833"
           d="m 287.8926,17.781959 -6.89603,2.122724"
           style="fill:none;fill-rule:evenodd;stroke:#000000;stroke-width:1.5;stroke-linecap:round;stroke-linejoin:round;stroke-miterlimit:4;stroke-dasharray:none;stroke-opacity:0.705882" />
        <path
           inkscape:connector-curvature="0"
           id="path837"
           d="m 261.54404,32.106431 -6.1618,8.599187"
           style="fill:none;fill-rule:evenodd;stroke:#000000;stroke-width:1.5;stroke-linecap:round;stroke-linejoin:round;stroke-miterlimit:4;stroke-dasharray:none;stroke-opacity:0.705882" />
        <path
           sodipodi:nodetypes="ccccc"
           inkscape:connector-curvature="0"
           id="path839"
           d="m 249.08853,76.55333 c 3.51625,6.489503 9.01991,9.352083 9.17706,12.567423 l 0.61446,8.578869 c -1.13421,7.030148 -10.43438,5.692958 -11.39122,0.307232 L 245.0935,75.61882"
           style="fill:none;fill-rule:evenodd;stroke:#000000;stroke-width:1.5;stroke-linecap:round;stroke-linejoin:round;stroke-miterlimit:4;stroke-dasharray:none;stroke-opacity:0.705882" />
        <path
           sodipodi:nodetypes="cccc"
           inkscape:connector-curvature="0"
           id="path826"
           d="m 263.34832,79.888955 c -2.86678,4.636013 -0.7559,13.076502 5.28099,14.556515 l 19.3771,-0.1022 c 4.30924,-0.715678 11.12661,-11.405483 0.53144,-17.948642"
           style="fill:none;fill-rule:evenodd;stroke:#000000;stroke-width:1.5;stroke-linecap:round;stroke-linejoin:round;stroke-miterlimit:4;stroke-dasharray:none;stroke-opacity:0.705882" />
        <path
           inkscape:connector-curvature="0"
           id="path828"
           d="m 299.90221,78.141711 -6.14441,2.711384"
           style="fill:none;fill-rule:evenodd;stroke:#000000;stroke-width:2;stroke-linecap:round;stroke-linejoin:round;stroke-miterlimit:4;stroke-dasharray:none;stroke-opacity:0.705882"
           sodipodi:nodetypes="cc" />
        <path
           sodipodi:nodetypes="ccc"
           inkscape:connector-curvature="0"
           id="path832"
           d="m 299.90221,90.909091 c -17.9991,18.733659 -44.97158,0.96964 -52.10665,19.117649 15.13615,-6.99985 -0.6893,22.80977 52.10665,37.56684"
           style="fill:none;fill-rule:evenodd;stroke:#000000;stroke-width:1.5;stroke-linecap:round;stroke-linejoin:round;stroke-miterlimit:4;stroke-dasharray:none;stroke-opacity:0.705882" />
      </g>
      <g
         id="g907">
        <path
           style="fill:none;fill-rule:evenodd;stroke:#000000;stroke-width:1.5;stroke-linecap:round;stroke-linejoin:round;stroke-miterlimit:4;stroke-dasharray:none;stroke-opacity:0.705882"
           d="m 300.28778,2.7718039 c 22.5967,9.4320491 7.53413,24.6555241 -0.19,39.0636151"
           id="path965"
           inkscape:connector-curvature="0"
           sodipodi:nodetypes="cc" />
        <path
           style="fill:none;fill-rule:evenodd;stroke:#000000;stroke-width:1.5;stroke-linecap:round;stroke-linejoin:round;stroke-miterlimit:4;stroke-dasharray:none;stroke-opacity:0.705882;paint-order:normal"
           d="m 300.09778,41.835419 5.90315,23.273954 9.07517,1.701594 16.25967,-10.020497 -5.48291,11.911157 31.95215,6.239177 -32.33028,7.56264 -25.37695,-11.063134"
           id="path967"
           inkscape:connector-curvature="0"
           sodipodi:nodetypes="cccccccc" />
        <path
           style="fill:none;fill-rule:evenodd;stroke:#000000;stroke-width:1.5;stroke-linecap:round;stroke-linejoin:round;stroke-miterlimit:4;stroke-dasharray:none;stroke-opacity:0.705882"
           d="m 300.60799,43.846993 9.35045,14.709157 15.05172,2.132661"
           id="path969"
           inkscape:connector-curvature="0"
           sodipodi:nodetypes="ccc" />
        <path
           style="fill:none;fill-rule:evenodd;stroke:#000000;stroke-width:1.5;stroke-linecap:round;stroke-linejoin:round;stroke-miterlimit:4;stroke-dasharray:none;stroke-opacity:0.705882"
           d="m 329.32051,61.16845 16.33311,2.334224 -7.12227,7.674635"
           id="path971"
           inkscape:connector-curvature="0"
           sodipodi:nodetypes="ccc" />
        <path
           style="fill:none;fill-rule:evenodd;stroke:#000000;stroke-width:1.5;stroke-linecap:round;stroke-linejoin:round;stroke-miterlimit:4;stroke-dasharray:none;stroke-opacity:0.705882"
           d="m 300.09778,41.835419 c 7.73167,15.662872 18.0104,-11.277564 21.0906,-33.6803389 7.2344,2.0550539 20.9532,15.2751019 23.3589,17.7287489 -41.78099,42.256342 -10.43936,17.811477 8.21127,11.396844 6.1055,15.31018 5.82159,25.098711 -0.12697,36.649934"
           id="path973"
           inkscape:connector-curvature="0"
           sodipodi:nodetypes="ccccc" />
        <path
           style="fill:none;fill-rule:evenodd;stroke:#000000;stroke-width:1.5;stroke-linecap:round;stroke-linejoin:round;stroke-miterlimit:4;stroke-dasharray:none;stroke-opacity:0.705882"
           d="m 312.10739,17.781959 6.89603,2.122724"
           id="path975"
           inkscape:connector-curvature="0" />
        <path
           style="fill:none;fill-rule:evenodd;stroke:#000000;stroke-width:1.5;stroke-linecap:round;stroke-linejoin:round;stroke-miterlimit:4;stroke-dasharray:none;stroke-opacity:0.705882"
           d="m 338.45595,32.106431 6.1618,8.599187"
           id="path977"
           inkscape:connector-curvature="0" />
        <path
           style="fill:none;fill-rule:evenodd;stroke:#000000;stroke-width:1.5;stroke-linecap:round;stroke-linejoin:round;stroke-miterlimit:4;stroke-dasharray:none;stroke-opacity:0.705882"
           d="m 350.91146,76.55333 c -3.51625,6.489503 -9.01991,9.352083 -9.17706,12.567423 l -0.61446,8.578869 c 1.13421,7.030148 10.43438,5.692958 11.39122,0.307232 l 2.39533,-22.388034"
           id="path979"
           inkscape:connector-curvature="0"
           sodipodi:nodetypes="ccccc" />
        <path
           style="fill:none;fill-rule:evenodd;stroke:#000000;stroke-width:1.5;stroke-linecap:round;stroke-linejoin:round;stroke-miterlimit:4;stroke-dasharray:none;stroke-opacity:0.705882"
           d="m 336.65167,79.888955 c 2.86678,4.636013 0.7559,13.076502 -5.28099,14.556515 l -19.3771,-0.1022 c -4.30924,-0.715678 -11.12661,-11.405483 -0.53144,-17.948642"
           id="path981"
           inkscape:connector-curvature="0"
           sodipodi:nodetypes="cccc" />
        <path
           sodipodi:nodetypes="cc"
           style="fill:none;fill-rule:evenodd;stroke:#000000;stroke-width:2;stroke-linecap:round;stroke-linejoin:round;stroke-miterlimit:4;stroke-dasharray:none;stroke-opacity:0.705882"
           d="m 300.09778,78.141711 6.14441,2.711384"
           id="path983"
           inkscape:connector-curvature="0" />
        <path
           style="fill:none;fill-rule:evenodd;stroke:#000000;stroke-width:1.5;stroke-linecap:round;stroke-linejoin:round;stroke-miterlimit:4;stroke-dasharray:none;stroke-opacity:0.705882"
           d="m 300.09778,90.909091 c 17.99909,18.733659 44.97158,0.96964 52.10665,19.117649 -15.13615,-6.99985 0.6893,22.80977 -52.10665,37.56684"
           id="path985"
           inkscape:connector-curvature="0"
           sodipodi:nodetypes="ccc" />
      </g>
      <g
         id="g953">
        <path
           style="font-style:normal;font-weight:bold;font-size:medium;line-height:125%;font-family:sans-serif;letter-spacing:-9.73816px;word-spacing:0px;fill:#000000;fill-opacity:0.705882;stroke:none;stroke-width:0.05995px;stroke-linecap:butt;stroke-linejoin:miter;stroke-opacity:1"
           d="m 267.47162,105.00162 c 0.36132,1.63486 2.00004,3.59887 0.59092,5.11902 -0.75427,0.68004 -2.1102,0.85691 -2.76752,0.0491 0.44437,1.96503 -2.56385,3.05627 -3.72458,1.5545 -0.86394,-1.16075 -1.78472,-3.17731 -1.63195,-4.30861 2.49994,-0.83881 5.01132,-1.64348 7.53313,-2.41404 z m -2.55515,2.47191 c -0.11707,1.58998 2.48814,2.52746 2.10238,0.44792 -0.18994,-1.72903 -1.06167,-0.65465 -2.10238,-0.44792 z m -1.29478,0.46076 c -1.19849,0.35401 -2.62545,0.66397 -1.46593,2.06843 1.56278,1.93215 2.65655,-0.70567 1.46593,-2.06843 z"
           id="path1017"
           inkscape:connector-curvature="0" />
        <path
           style="font-style:normal;font-weight:bold;font-size:medium;line-height:125%;font-family:sans-serif;letter-spacing:-9.73816px;word-spacing:0px;fill:#000000;fill-opacity:0.705882;stroke:none;stroke-width:0.05995px;stroke-linecap:butt;stroke-linejoin:miter;stroke-opacity:1"
           d="m 264.2431,117.49487 c 1.49914,-1.16026 -1.64532,-0.94865 -1.48242,-2.50581 -0.75432,-2.07319 2.56955,-3.35681 3.56098,-1.46669 0.43103,0.89604 1.49349,2.39308 1.80277,0.60308 -0.34638,-1.09431 -2.00637,-1.58791 -0.48427,-2.53292 1.28705,0.85457 2.67244,2.86923 1.36606,4.26974 -1.29321,1.00268 -2.77752,1.7423 -4.13491,2.65928 -0.21369,-0.33958 -0.42314,-0.68187 -0.62821,-1.02668 z m 2.24891,-1.88158 c -0.0917,-1.36451 -2.70806,-2.09052 -2.15726,-0.24749 0.42407,0.91471 1.48466,0.79583 2.15726,0.24749 z"
           id="path1019"
           inkscape:connector-curvature="0" />
        <path
           style="font-style:normal;font-weight:bold;font-size:medium;line-height:125%;font-family:sans-serif;letter-spacing:-9.73816px;word-spacing:0px;fill:#000000;fill-opacity:0.705882;stroke:none;stroke-width:0.05995px;stroke-linecap:butt;stroke-linejoin:miter;stroke-opacity:1"
           d="m 268.97215,124.05762 c -1.09784,-0.86966 -1.20887,-1.67847 0.15337,-2.3059 0.92619,-0.76631 3.55171,-2.20804 1.48775,-3.2472 -1.67281,-0.009 -2.86192,1.74004 -4.2157,2.29327 -1.01711,-0.94789 -0.99026,-1.72796 0.36855,-2.21903 1.32815,-0.6493 2.88575,-2.32137 4.09465,-2.29536 1.14637,0.65298 -0.92406,1.60562 0.75199,1.46455 1.9144,0.60359 1.75186,3.19411 0.0676,3.9955 -0.90836,0.7648 -1.81112,1.53622 -2.70824,2.31417 z"
           id="path1021"
           inkscape:connector-curvature="0" />
        <path
           style="font-style:normal;font-weight:bold;font-size:medium;line-height:125%;font-family:sans-serif;letter-spacing:-9.73816px;word-spacing:0px;fill:#000000;fill-opacity:0.705882;stroke:none;stroke-width:0.05995px;stroke-linecap:butt;stroke-linejoin:miter;stroke-opacity:1"
           d="m 270.97441,126.37935 c -1.52024,-1.52829 0.18346,-3.67852 1.65408,-4.47501 1.19849,-1.02277 3.54942,-0.56089 3.55786,1.23698 -0.17282,1.18141 1.23597,-1.25779 1.82081,-1.50281 0.67298,-0.7664 1.95518,0.92189 0.63814,1.3536 -1.72209,1.85892 -3.41606,3.74389 -5.0813,5.65391 -0.73229,-0.44445 -1.10448,-0.99297 -0.6975,-1.71613 -0.67633,0.2117 -1.41904,-0.0397 -1.89209,-0.55054 z m 1.37569,-0.54645 c 1.25842,1.18409 3.74949,-1.41055 2.6327,-2.6419 -1.1375,-0.96331 -3.78305,1.4771 -2.6327,2.6419 z"
           id="path1023"
           inkscape:connector-curvature="0" />
        <path
           style="font-style:normal;font-weight:bold;font-size:medium;line-height:125%;font-family:sans-serif;letter-spacing:-9.73816px;word-spacing:0px;fill:#000000;fill-opacity:0.705882;stroke:none;stroke-width:0.05995px;stroke-linecap:butt;stroke-linejoin:miter;stroke-opacity:1"
           d="m 279.46988,123.35392 c 1.59038,-1.48662 1.82838,2.14062 0.0465,1.11178 -0.41239,-0.24608 -0.38659,-0.81872 -0.0465,-1.11178 z m -3.76439,7.03683 c -2.64375,-1.11668 0.64615,-2.8659 1.46698,-4.31518 0.72553,-1.05084 1.45659,-1.9141 2.41147,-0.57594 -1.3128,1.61439 -2.60572,3.24495 -3.87845,4.89112 z"
           id="path1025"
           inkscape:connector-curvature="0" />
        <path
           style="font-style:normal;font-weight:bold;font-size:medium;line-height:125%;font-family:sans-serif;letter-spacing:-9.73816px;word-spacing:0px;fill:#000000;fill-opacity:0.705882;stroke:none;stroke-width:0.05995px;stroke-linecap:butt;stroke-linejoin:miter;stroke-opacity:1"
           d="m 279.36053,131.44832 c 1.91429,0.2837 -0.15287,2.28173 -1.14769,0.86866 -2.22296,-1.56172 0.57725,-3.69358 1.47727,-5.14791 -1.53127,-1.18709 1.55323,-0.76259 1.99931,-1.77382 1.65878,0.49381 -1.09222,1.77368 0.88719,2.18386 0.64891,0.59731 -0.76027,1.81179 -1.35264,0.64715 -0.87027,-0.0575 -1.79581,1.87022 -2.19123,2.79876 l 0.1138,0.23124 0.21398,0.19207 z"
           id="path1027"
           inkscape:connector-curvature="0" />
        <path
           style="font-style:normal;font-weight:bold;font-size:medium;line-height:125%;font-family:sans-serif;letter-spacing:-9.73816px;word-spacing:0px;fill:#000000;fill-opacity:0.705882;stroke:none;stroke-width:0.05995px;stroke-linecap:butt;stroke-linejoin:miter;stroke-opacity:1"
           d="m 285.75624,136.3501 c -1.8176,-0.24979 -1.32661,-1.32402 -0.58021,-2.46127 0.72725,-0.97888 0.80489,-1.72533 -0.5791,-2.01779 -1.65343,-1.67593 -2.04746,1.12219 -2.9246,2.17314 -0.61174,0.21551 -2.15161,-0.72134 -1.00387,-1.51019 1.25315,-2.02299 2.53143,-4.03043 3.83497,-6.02133 3.08003,0.55609 -2.02092,3.25653 0.48195,3.93588 0.89104,0.53721 1.85416,1.19612 2.11127,-0.27421 0.48465,-1.13593 0.9587,-2.27832 2.19921,-1.17864 -1.21078,2.43643 -2.39053,4.88828 -3.53962,7.35441 z"
           id="path1029"
           inkscape:connector-curvature="0" />
        <path
           style="font-style:normal;font-weight:bold;font-size:medium;line-height:125%;font-family:sans-serif;letter-spacing:-9.73816px;word-spacing:0px;fill:#000000;fill-opacity:0.705882;stroke:none;stroke-width:0.05995px;stroke-linecap:butt;stroke-linejoin:miter;stroke-opacity:1"
           d="m 290.04741,129.65886 c 1.37992,-1.98325 2.16624,2.00006 0.12543,0.92902 -0.31119,-0.20076 -0.29287,-0.64226 -0.12543,-0.92902 z m -1.73,7.77489 c -1.36964,-0.23045 -1.68636,-0.90958 -0.83916,-2.03202 0.80163,-1.23266 1.14897,-3.66632 2.27026,-4.11994 2.04442,0.41451 -0.4156,2.67444 -0.53357,3.99049 -0.30155,0.7195 -0.60072,1.44 -0.89753,2.16147 z"
           id="path1031"
           inkscape:connector-curvature="0" />
        <path
           style="font-style:normal;font-weight:bold;font-size:medium;line-height:125%;font-family:sans-serif;letter-spacing:-9.73816px;word-spacing:0px;fill:#000000;fill-opacity:0.705882;stroke:none;stroke-width:0.05995px;stroke-linecap:butt;stroke-linejoin:miter;stroke-opacity:1"
           d="m 287.836,140.19539 c -1.6248,-0.13678 -0.6036,-2.53155 0.56822,-1.31763 1.20899,-0.74866 1.26753,-2.55514 1.95505,-3.77268 0.72052,-0.97002 0.63505,-3.78027 2.26392,-2.71934 0.53539,0.83748 -0.82258,2.55871 -1.03717,3.75631 -0.6083,1.28147 -0.74139,2.85426 -1.7538,3.89834 -0.56664,0.45524 -1.35774,0.41554 -1.99622,0.155 z m 4.34191,-9.68553 c 1.03012,-1.92003 2.42199,1.44411 0.39813,1.03646 -0.46798,-0.10185 -0.62381,-0.65099 -0.39813,-1.03646 z"
           id="path1033"
           inkscape:connector-curvature="0" />
        <path
           style="font-style:normal;font-weight:bold;font-size:medium;line-height:125%;font-family:sans-serif;letter-spacing:-9.73816px;word-spacing:0px;fill:#000000;fill-opacity:0.705882;stroke:none;stroke-width:0.05995px;stroke-linecap:butt;stroke-linejoin:miter;stroke-opacity:1"
           d="m 293.93121,136.09116 c -1.26718,1.87887 1.83168,3.1578 2.10754,0.85109 1.21107,-2.22871 -1.54504,-3.43671 -2.10754,-0.85109 z m 3.65818,1.02597 c -0.26286,2.12293 -2.91813,3.38196 -4.57359,1.85586 -1.56964,-1.50101 -0.65837,-4.24382 0.91986,-5.37339 1.73966,-1.17468 4.2968,0.5244 3.82368,2.61223 -0.0274,0.30634 -0.0876,0.60919 -0.16995,0.9053 z"
           id="path1035"
           inkscape:connector-curvature="0" />
      </g>
    </g>
  </g>
</svg>
