<?xml version="1.0" encoding="UTF-8" standalone="no"?>
<svg
   xmlns:dc="http://purl.org/dc/elements/1.1/"
   xmlns:cc="http://creativecommons.org/ns#"
   xmlns:rdf="http://www.w3.org/1999/02/22-rdf-syntax-ns#"
   xmlns:svg="http://www.w3.org/2000/svg"
   xmlns="http://www.w3.org/2000/svg"
   xmlns:sodipodi="http://sodipodi.sourceforge.net/DTD/sodipodi-0.dtd"
   xmlns:inkscape="http://www.inkscape.org/namespaces/inkscape"
   version="1.1"
   x="0px"
   y="0px"
   width="200"
   height="200"
   viewBox="0 0 200 200"
   xml:space="preserve"
   id="svg9"
   sodipodi:docname="logo_blog_terbaru.svg"
   inkscape:version="1.0.1 (3bc2e813f5, 2020-09-07, custom)"><metadata
   id="metadata15"><rdf:RDF><cc:Work
       rdf:about=""><dc:format>image/svg+xml</dc:format><dc:type
         rdf:resource="http://purl.org/dc/dcmitype/StillImage" /><dc:title /></cc:Work></rdf:RDF></metadata><defs
   id="defs13" /><sodipodi:namedview
   pagecolor="#ffffff"
   bordercolor="#666666"
   borderopacity="1"
   objecttolerance="10"
   gridtolerance="10"
   guidetolerance="10"
   inkscape:pageopacity="0"
   inkscape:pageshadow="2"
   inkscape:window-width="640"
   inkscape:window-height="480"
   id="namedview11"
   showgrid="false"
   inkscape:showpageshadow="false"
   inkscape:zoom="2.635"
   inkscape:cx="100"
   inkscape:cy="100"
   inkscape:current-layer="svg9"
   inkscape:document-rotation="0" />

<g
   id="Guides"
   style="display:none"
   transform="translate(0,176)">
</g>







<g
   aria-label="ï«"
   id="text841"
   style="font-size:206.748px;line-height:1.25;font-family:sans-serif;letter-spacing:0px;word-spacing:0px;stroke-width:5.16869"><path
     d="M 118.50395,156.8557 V 150.23977 96.278539 74.156503 H 81.496054 v 22.122036 53.961231 6.61593 q 0,5.9957 7.442928,5.9957 h 22.122038 q 7.44293,0 7.44293,-5.9957 z M 65.783206,59.477395 H 88.318738 L 73.846378,40.870074 q -3.10122,-3.721464 -8.063172,-3.721464 -4.548456,0 -7.856424,3.307968 -3.10122,3.101221 -3.10122,7.856425 0,4.755204 3.10122,8.063172 3.307968,3.10122 7.856424,3.10122 z m 76.083264,-3.10122 q 3.30797,-3.307968 3.30797,-8.063172 0,-4.755204 -3.30797,-7.856425 -3.10122,-3.307968 -7.64968,-3.307968 -4.96195,0 -8.06317,3.721464 l -14.47236,18.607321 h 22.53553 q 4.54846,0 7.64968,-3.10122 z m 46.72505,21.501792 v 36.801143 q 0,1.65398 -1.24049,2.68772 -1.03374,1.03374 -2.48098,1.03374 h -10.95764 v 47.96554 q 0,4.54846 -3.30797,7.85643 -3.30797,3.30796 -7.85642,3.30796 H 37.251982 q -4.755204,0 -8.063172,-3.30796 -3.10122,-3.30797 -3.10122,-7.85643 V 118.40057 H 15.129946 q -1.653984,0 -2.687724,-1.03374 -1.03374,-1.03374 -1.03374,-2.68772 V 77.877967 q 0,-1.653984 1.03374,-2.687724 1.03374,-1.03374 2.687724,-1.03374 h 50.65326 q -10.750896,0 -18.400572,-7.442928 -7.442928,-7.649676 -7.442928,-18.400572 0,-10.750897 7.442928,-18.193825 7.649676,-7.649676 18.400572,-7.649676 12.198132,0 19.434312,8.890164 l 14.885852,19.020817 14.67911,-19.020817 q 7.23618,-8.890164 19.43431,-8.890164 10.7509,0 18.19383,7.649676 7.64967,7.442928 7.64967,18.193825 0,10.750896 -7.64967,18.400572 -7.44293,7.442928 -18.19383,7.442928 h 50.65326 q 1.44724,0 2.48098,1.03374 1.24049,1.03374 1.24049,2.687724 z"
     style="font-style:normal;font-variant:normal;font-weight:normal;font-stretch:normal;font-family:'JetBrainsMonoExtraBold Nerd Font';-inkscape-font-specification:'JetBrainsMonoExtraBold Nerd Font';stroke-width:5.16869"
     id="path843" /></g></svg>
