<?xml version="1.0" encoding="UTF-8" standalone="no"?>
<!-- Created with Inkscape (http://www.inkscape.org/) -->

<svg
   xmlns:dc="http://purl.org/dc/elements/1.1/"
   xmlns:cc="http://creativecommons.org/ns#"
   xmlns:rdf="http://www.w3.org/1999/02/22-rdf-syntax-ns#"
   xmlns:svg="http://www.w3.org/2000/svg"
   xmlns="http://www.w3.org/2000/svg"
   xmlns:sodipodi="http://sodipodi.sourceforge.net/DTD/sodipodi-0.dtd"
   xmlns:inkscape="http://www.inkscape.org/namespaces/inkscape"
   version="1.1"
   id="svg922"
   width="740"
   height="174"
   viewBox="0 0 740 174"
   sodipodi:docname="logo_salam.svg"
   inkscape:version="0.92.4 5da689c313, 2019-01-14">
  <metadata
     id="metadata928">
    <rdf:RDF>
      <cc:Work
         rdf:about="">
        <dc:format>image/svg+xml</dc:format>
        <dc:type
           rdf:resource="http://purl.org/dc/dcmitype/StillImage" />
        <dc:title></dc:title>
      </cc:Work>
    </rdf:RDF>
  </metadata>
  <defs
     id="defs926" />
  <sodipodi:namedview
     pagecolor="#ffffff"
     bordercolor="#666666"
     borderopacity="1"
     objecttolerance="10"
     gridtolerance="10"
     guidetolerance="10"
     inkscape:pageopacity="0"
     inkscape:pageshadow="2"
     inkscape:window-width="640"
     inkscape:window-height="480"
     id="namedview924"
     showgrid="false"
     inkscape:zoom="1.2279315"
     inkscape:cx="379.5"
     inkscape:cy="108.5"
     inkscape:current-layer="g1487" />
  <g
     id="g1487"
     transform="translate(294.26644,174.78309)">
    <path
       style="fill:#000000;fill-opacity:1;stroke-width:1.1611681"
       d="m -279.47013,-5.4540152 c 0,-4.3177452 -3.52378,-19.5227898 -7.5931,-32.7640808 -4.5033,-14.653443 -4.88212,-19.501052 -2.08445,-26.673333 4.37926,-11.226892 9.62516,-15.044854 23.84309,-17.352971 4.66248,-0.7569 8.89209,-1.723277 9.39913,-2.147509 1.43708,-1.202358 -8.16668,-9.26192 -11.03651,-9.26192 -1.40817,0 -4.50496,1.898892 -6.88174,4.219752 -5.75625,5.620838 -8.61266,4.864259 -6.30706,-1.670541 4.41543,-12.514642 10.86908,-20.541582 17.51833,-21.788992 5.91592,-1.10983 13.14174,3.63944 21.45635,14.10252 3.77807,4.754297 7.31088,9.433396 7.8507,10.397994 0.83665,1.494993 4.65687,1.707454 25.88714,1.439749 l 24.90565,-0.314056 -4.78142,-4.781422 c -2.62979,-2.629793 -7.72517,-7.003973 -11.32307,-9.720415 -5.06839,-3.82668 -6.89532,-4.64548 -8.11202,-3.63571 -1.23136,1.02194 -2.84266,-0.0419 -7.46401,-4.92838 -6.50668,-6.87986 -7.99521,-11.30914 -6.78002,-20.17483 1.66797,-12.16925 7.77931,-16.53451 42.23434,-30.16757 1.09176,-0.43198 1.45146,1.84992 1.45146,9.20779 v 9.78211 l -6.67672,2.06371 c -9.37713,2.89837 -20.03014,7.75008 -20.03014,9.12231 0,0.63548 5.16865,6.52171 11.4859,13.08051 6.31725,6.55878 14.24213,16.15673 17.61085,21.328769 l 6.12493,9.403713 h 19.46548 19.46548 l -1.07345,-3.773798 c -0.59039,-2.075586 -2.69318,-6.079543 -4.67284,-8.897675 l -3.59941,-5.123879 3.24126,-9.54637 3.24123,-9.54636 2.13415,2.71313 c 4.51407,5.73871 7.00726,13.60148 7.59798,23.961758 l 0.58232,10.213194 h 15.88701 15.886977 l -5.111265,-28.738922 c -4.681442,-26.32218 -5.359612,-28.93959 -8.064592,-31.12538 -2.83783,-2.29317 -2.90253,-2.62335 -1.65433,-8.44346 1.62694,-7.58619 6.778055,-17.92336 8.62876,-17.31605 0.766022,0.25138 1.560377,1.8772 1.765231,3.61296 0.37846,3.2067 8.138674,10.01843 11.413447,10.01843 1.878062,0 1.974008,2.46077 0.339537,8.70875 -2.015614,7.70502 -3.613451,11.0311 -5.299305,11.0311 -0.880479,0 -1.600879,0.1524 -1.600879,0.33865 0,0.7377 8.167657,46.856485 8.731276,49.301293 0.525417,2.279096 1.340674,2.612629 6.38603,2.612629 3.181044,0 5.78372,-0.213045 5.78372,-0.473421 0,-0.260396 -1.393401,-3.159148 -3.096452,-6.441699 -7.942541,-15.308922 -0.890476,-32.359992 16.872406,-40.795512 7.6604,-3.6379 19.736283,-3.63506 26.864926,0.006 9.736488,4.97348 17.879517,14.73962 15.091227,18.0993 -1.103063,1.32912 -2.081638,1.30615 -6.16909,-0.1448 -7.127238,-2.53002 -17.571609,-3.17842 -27.839087,-1.72832 -21.066343,2.97527 -21.350004,8.55862 -1.095156,21.555769 l 8.436502,5.413547 20.62641,-5.873769 c 11.3445327,-3.230517 20.9627322,-5.873717 21.3737742,-5.873717 0.411054,0 -1.23377599,5.091538 -3.6551715,11.314517 l -4.4025226,11.314501 -8.5708141,2.697662 c -15.240937,4.797051 -43.164279,11.676055 -52.488935,12.93079 -5.680929,0.764432 -43.084514,1.237415 -99.860454,1.262743 -94.60477,0.04228 -103.05584,0.425622 -112.06402,5.083912 -2.02316,1.046224 -3.67848,2.085807 -3.67848,2.310178 0,0.224373 1.63865,5.56685 3.64144,11.872156 4.56004,14.356152 5.86705,31.553075 2.84264,37.4016585 -2.20619,4.2662823 -3.00057,4.6107316 -3.00057,1.3010419 z m 402.92534,0 c 0,-4.3177452 -3.52378,-19.5227898 -7.5931,-32.7640808 -4.5033,-14.653443 -4.88212,-19.501052 -2.08445,-26.673333 4.37926,-11.226892 9.62516,-15.044854 23.84309,-17.352971 4.66247,-0.7569 8.89209,-1.723277 9.39914,-2.147509 1.43707,-1.202358 -8.16669,-9.26192 -11.03652,-9.26192 -1.40817,0 -4.50496,1.898892 -6.88174,4.219752 -5.75625,5.620838 -8.61266,4.864259 -6.30706,-1.670541 2.64207,-7.488395 6.17621,-13.691982 9.95032,-17.466092 9.31525,-9.31525 19.21089,-4.42596 34.6562,17.123142 3.51492,4.903962 3.66202,5.568607 3.66202,16.54664 v 11.437459 l -13.06315,0.04053 c -14.42231,0.04471 -28.68802,2.15612 -34.34977,5.083911 -2.02317,1.046225 -3.67849,2.085806 -3.67849,2.310179 0,0.224373 1.63866,5.566849 3.64145,11.872155 4.56003,14.356152 5.86704,31.553075 2.84263,37.4016593 -2.20618,4.2662823 -3.00057,4.6107316 -3.00057,1.3010419 z m -283.05865,-23.8536098 -7.28121,-4.126908 4.34145,-7.938585 4.34146,-7.938593 5.51378,2.79405 c 3.03259,1.536725 5.96436,2.794049 6.51507,2.794049 0.55071,0 2.24104,-2.646918 3.75629,-5.882037 1.51524,-3.23513 3.13202,-6.115059 3.59284,-6.399859 0.75715,-0.467951 5.11327,1.686817 12.37416,6.120912 l 2.64926,1.617856 -4.24455,8.07741 c -2.33451,4.442575 -4.57173,8.071109 -4.9716,8.06341 -0.39988,-0.0082 -3.00111,-1.314 -5.78053,-2.90292 -2.77942,-1.588908 -5.25696,-2.888931 -5.50562,-2.888931 -0.24867,0 -2.07405,2.873894 -4.05641,6.386427 -1.98235,3.512535 -3.68502,6.378367 -3.78373,6.36852 -0.0987,-0.0093 -3.45599,-1.875007 -7.46066,-4.144801 z m 333.17539,-28.295837 c 0.31849,-2.117029 2.31389,-3.340332 10.4035,-6.37799 5.50519,-2.067199 15.17191,-6.505477 21.4816,-9.862817 32.25953,-17.165062 37.86896,-29.211411 31.70456,-68.086051 l -1.48698,-9.37737 4.46982,-9.52505 c 2.45842,-5.23878 4.88179,-9.11311 5.38528,-8.60961 1.89323,1.89322 4.46337,23.82837 5.68286,48.50107 0.97203,19.66597 1.71535,26.48111 3.22952,29.609788 l 1.96685,4.064089 10.70264,0.333358 c 8.87638,0.276472 11.48502,-0.0658 15.28769,-2.005754 6.62468,-3.379656 11.74763,-11.840521 11.74763,-19.401901 0,-1.95553 0.65861,-2.72965 2.32234,-2.72965 2.12521,0 2.32233,0.77412 2.32233,9.11979 0,8.071022 0.32745,9.473109 2.84748,12.19226 2.72429,2.939543 3.3648,3.072394 14.8049,3.070674 17.07931,-0.0019 22.92574,-3.488005 22.97139,-13.694694 0.0116,-2.55719 1.01888,-4.82835 3.03693,-6.8464 4.16935,-4.16934 5.29029,-1.97638 4.37071,8.550809 l -0.72751,8.328336 6.1686,1.831878 c 10.04308,2.982473 10.81109,2.414669 7.48884,-5.536621 -2.60167,-6.226642 -2.17343,-8.821562 2.59949,-15.751622 l 4.34124,-6.30329 1.97424,6.29323 c 1.08583,3.46128 2.00618,10.081549 2.04519,14.71171 l 0.0709,8.418472 h 15.46746 15.46747 l -5.11127,-28.738922 c -4.68144,-26.32218 -5.35961,-28.93959 -8.06458,-31.12538 -2.83785,-2.29317 -2.90255,-2.62335 -1.65434,-8.44346 1.62695,-7.58619 6.77806,-17.92336 8.62876,-17.31605 0.76603,0.25138 1.56039,1.8772 1.76524,3.61296 0.37845,3.2067 8.13867,10.01843 11.41344,10.01843 1.87806,0 1.97401,2.46077 0.33954,8.70875 -2.01561,7.70502 -3.61345,11.0311 -5.29931,11.0311 -0.88048,0 -1.60087,0.148 -1.60087,0.32887 0,0.18087 2.08589,12.06833 4.63533,26.41657 3.31432,18.652999 4.63801,29.34909 4.64467,37.53156 l 0.01,11.443844 -26.99716,-0.516982 c -23.40822,-0.448277 -27.98545,-0.841592 -34.43142,-2.958709 l -7.43428,-2.441718 -4.75799,2.451729 c -3.67715,1.894771 -7.55744,2.571468 -17.08135,2.978827 -15.84586,0.677786 -19.85974,-0.564528 -24.26436,-7.509884 l -3.28528,-5.180346 -2.51913,3.407307 c -4.56397,6.173091 -10.94882,8.798423 -22.63329,9.306376 -9.27203,0.403073 -10.79918,0.178609 -13.54234,-1.990457 -4.0064,-3.167962 -7.66378,-10.820622 -9.51963,-19.918754 l -1.47916,-7.251394 -4.18343,8.809153 c -9.71676,20.460705 -21.56452,26.881155 -52.3707,28.380351 l -13.74749,0.66903 0.39406,-2.619445 z m 257.9953,-1.946953 c -0.95371,-0.390439 -1.16498,-4.459184 -0.73388,-14.132652 0.66392,-14.897551 -1.65436,-39.142813 -5.55579,-58.104123 -2.53757,-12.33275 -2.39125,-13.3446 3.88873,-26.89205 l 3.49873,-7.54759 1.5023,8.12817 c 6.81112,36.85179 9.74342,67.902182 7.45393,78.930551 -1.47232,7.092126 -6.73229,20.418691 -7.99565,20.257637 -0.39551,-0.05039 -1.32178,-0.338399 -2.05837,-0.639943 z M 225.58628,-101.93414 c -4.18471,-8.28556 -10.14834,-15.72258 -16.12693,-20.11127 -3.08776,-2.26663 -5.93598,-4.12112 -6.3294,-4.12112 -0.39342,0 -0.71531,1.32271 -0.71531,2.93936 0,1.61665 -0.77735,3.23765 -1.72742,3.60224 -4.0609,1.55831 -19.14639,-10.59631 -22.27785,-17.94963 -2.40754,-5.65343 -3.37922,-18.30849 -1.57287,-20.48501 5.6422,-6.79843 42.20921,20.60945 51.12384,38.31858 2.16423,4.2993 2.90292,7.59867 2.90292,12.96597 0,9.73306 -1.91766,11.492229 -5.27698,4.84088 z"
       id="path1489"
       inkscape:connector-curvature="0"
       sodipodi:nodetypes="cscccsccsscscssccccsccsssccccccccsscccsccccscssssssscccssccscccsscsscccsscccsccssscccsscsssccccscsscsccsccsccssccssccscssscccsscccccsccccsccccscsssccsscccccssssccsccccccscscccsssscsssss" />
  </g>
</svg>
