<?xml version="1.0" encoding="UTF-8" standalone="no"?>
<!-- Generator: Adobe Illustrator 16.0.0, SVG Export Plug-In . SVG Version: 6.00 Build 0)  -->

<svg
   xmlns:dc="http://purl.org/dc/elements/1.1/"
   xmlns:cc="http://creativecommons.org/ns#"
   xmlns:rdf="http://www.w3.org/1999/02/22-rdf-syntax-ns#"
   xmlns:svg="http://www.w3.org/2000/svg"
   xmlns="http://www.w3.org/2000/svg"
   xmlns:sodipodi="http://sodipodi.sourceforge.net/DTD/sodipodi-0.dtd"
   xmlns:inkscape="http://www.inkscape.org/namespaces/inkscape"
   version="1.1"
   x="0px"
   y="0px"
   width="200"
   height="200"
   viewBox="0 0 200 200"
   xml:space="preserve"
   id="svg9"
   sodipodi:docname="logo_tags.svg"
   inkscape:version="0.92.4 5da689c313, 2019-01-14"><metadata
   id="metadata15"><rdf:RDF><cc:Work
       rdf:about=""><dc:format>image/svg+xml</dc:format><dc:type
         rdf:resource="http://purl.org/dc/dcmitype/StillImage" /><dc:title></dc:title></cc:Work></rdf:RDF></metadata><defs
   id="defs13" /><sodipodi:namedview
   pagecolor="#ffffff"
   bordercolor="#666666"
   borderopacity="1"
   objecttolerance="10"
   gridtolerance="10"
   guidetolerance="10"
   inkscape:pageopacity="0"
   inkscape:pageshadow="2"
   inkscape:window-width="640"
   inkscape:window-height="480"
   id="namedview11"
   showgrid="false"
   inkscape:showpageshadow="false"
   inkscape:zoom="2.805"
   inkscape:cx="100"
   inkscape:cy="100"
   inkscape:current-layer="svg9" />
<g
   id="Icons"
   style="opacity:1"
   transform="matrix(14.329579,0,0,14.329579,-77.018656,-67.460827)">
	<g
   id="tag"
   style="">
		<g
   id="g4"
   style="">
			<path
   d="m 18.748,11.717 c 0.389,0.389 0.389,1.025 0,1.414 l -4.949,4.95 c -0.389,0.389 -1.025,0.389 -1.414,0 l -6.01,-6.01 C 5.986,11.682 5.668,10.914 5.668,10.364 L 5.667,6 c 0,-0.55 0.45,-1 1,-1 h 4.364 c 0.55,0 1.318,0.318 1.707,0.707 z M 8.104,7.456 C 7.525,8.032 7.526,8.97 8.103,9.549 c 0.578,0.577 1.516,0.577 2.095,0.001 0.576,-0.578 0.576,-1.517 0,-2.095 C 9.617,6.879 8.68,6.878 8.104,7.456 Z"
   id="path2"
   inkscape:connector-curvature="0"
   style="" />
		</g>
	</g>
</g>
<g
   id="Guides"
   style="display:none"
   transform="translate(0,176)">
</g>
</svg>