<?xml version="1.0" encoding="UTF-8" standalone="no"?>
<!-- Created with Inkscape (http://www.inkscape.org/) -->

<svg
   xmlns:dc="http://purl.org/dc/elements/1.1/"
   xmlns:cc="http://creativecommons.org/ns#"
   xmlns:rdf="http://www.w3.org/1999/02/22-rdf-syntax-ns#"
   xmlns:svg="http://www.w3.org/2000/svg"
   xmlns="http://www.w3.org/2000/svg"
   xmlns:sodipodi="http://sodipodi.sourceforge.net/DTD/sodipodi-0.dtd"
   xmlns:inkscape="http://www.inkscape.org/namespaces/inkscape"
   version="1.1"
   id="svg2"
   width="426.88"
   height="426.88"
   viewBox="0 0 426.88 426.88"
   sodipodi:docname="logo_menu.svg"
   inkscape:version="0.92.4 5da689c313, 2019-01-14">
  <metadata
     id="metadata8">
    <rdf:RDF>
      <cc:Work
         rdf:about="">
        <dc:format>image/svg+xml</dc:format>
        <dc:type
           rdf:resource="http://purl.org/dc/dcmitype/StillImage" />
        <dc:title></dc:title>
      </cc:Work>
    </rdf:RDF>
  </metadata>
  <defs
     id="defs6" />
  <sodipodi:namedview
     pagecolor="#666666"
     bordercolor="#666666"
     borderopacity="1"
     objecttolerance="10"
     gridtolerance="10"
     guidetolerance="10"
     inkscape:pageopacity="0"
     inkscape:pageshadow="2"
     inkscape:window-width="640"
     inkscape:window-height="480"
     id="namedview4"
     showgrid="false"
     inkscape:zoom="1.0021542"
     inkscape:cx="156.41744"
     inkscape:cy="216.67137"
     inkscape:current-layer="svg2" />
  <g
     id="g845">
    <path
       style="opacity:1;fill:#ffffff;fill-opacity:1;fill-rule:nonzero;stroke:#000000;stroke-width:0.1;stroke-linecap:round;stroke-linejoin:round;stroke-miterlimit:4;stroke-dasharray:none;stroke-dashoffset:0;stroke-opacity:0.70588235;paint-order:normal"
       d="M 51.976404,40.525986 H 374.9036 c 14.20088,0 25.63336,11.432477 25.63336,25.633356 v 28.561321 c 0,14.200877 -11.43248,25.633357 -25.63336,25.633357 H 51.976404 c -14.200879,0 -25.633356,-11.43248 -25.633356,-25.633357 V 66.159342 c 0,-14.200879 11.432477,-25.633356 25.633356,-25.633356 z"
       id="rect817"
       inkscape:connector-curvature="0" />
    <path
       style="opacity:1;fill:#ffffff;fill-opacity:1;fill-rule:nonzero;stroke:#000000;stroke-width:0.1;stroke-linecap:round;stroke-linejoin:round;stroke-miterlimit:4;stroke-dasharray:none;stroke-dashoffset:0;stroke-opacity:0.70588235;paint-order:normal"
       d="M 51.976404,173.52383 H 374.9036 c 14.20088,0 25.63336,11.43248 25.63336,25.63336 v 28.56132 c 0,14.20088 -11.43248,25.63336 -25.63336,25.63336 H 51.976404 c -14.200879,0 -25.633356,-11.43248 -25.633356,-25.63336 v -28.56132 c 0,-14.20088 11.432477,-25.63336 25.633356,-25.63336 z"
       id="rect819"
       inkscape:connector-curvature="0" />
    <path
       style="opacity:1;fill:#ffffff;fill-opacity:1;fill-rule:nonzero;stroke:#000000;stroke-width:0.1;stroke-linecap:round;stroke-linejoin:round;stroke-miterlimit:4;stroke-dasharray:none;stroke-dashoffset:0;stroke-opacity:0.70588235;paint-order:normal"
       d="M 51.976404,306.52597 H 374.9036 c 14.20088,0 25.63336,11.43248 25.63336,25.63336 v 28.56132 c 0,14.20088 -11.43248,25.63335 -25.63336,25.63335 H 51.976404 c -14.200879,0 -25.633356,-11.43247 -25.633356,-25.63335 v -28.56132 c 0,-14.20088 11.432477,-25.63336 25.633356,-25.63336 z"
       id="rect821"
       inkscape:connector-curvature="0" />
  </g>
</svg>
