<?xml version="1.0" encoding="UTF-8" standalone="no"?>
<!-- Generator: Adobe Illustrator 16.0.0, SVG Export Plug-In . SVG Version: 6.00 Build 0)  -->

<svg
   xmlns:dc="http://purl.org/dc/elements/1.1/"
   xmlns:cc="http://creativecommons.org/ns#"
   xmlns:rdf="http://www.w3.org/1999/02/22-rdf-syntax-ns#"
   xmlns:svg="http://www.w3.org/2000/svg"
   xmlns="http://www.w3.org/2000/svg"
   xmlns:sodipodi="http://sodipodi.sourceforge.net/DTD/sodipodi-0.dtd"
   xmlns:inkscape="http://www.inkscape.org/namespaces/inkscape"
   version="1.1"
   x="0px"
   y="0px"
   width="200"
   height="200"
   viewBox="0 0 200 200"
   xml:space="preserve"
   id="svg9"
   sodipodi:docname="logo_warning.svg"
   inkscape:version="0.92.5 (2060ec1f9f, 2020-04-08)"
   inkscape:export-filename="/home/bandithijo/dex/bandithijo.github.io/assets/img/logo/logo_warning.png"
   inkscape:export-xdpi="96"
   inkscape:export-ydpi="96"><metadata
   id="metadata15"><rdf:RDF><cc:Work
       rdf:about=""><dc:format>image/svg+xml</dc:format><dc:type
         rdf:resource="http://purl.org/dc/dcmitype/StillImage" /><dc:title></dc:title></cc:Work></rdf:RDF></metadata><defs
   id="defs13" /><sodipodi:namedview
   pagecolor="#ffffff"
   bordercolor="#666666"
   borderopacity="1"
   objecttolerance="10"
   gridtolerance="10"
   guidetolerance="10"
   inkscape:pageopacity="0"
   inkscape:pageshadow="2"
   inkscape:window-width="640"
   inkscape:window-height="480"
   id="namedview11"
   showgrid="false"
   inkscape:showpageshadow="false"
   inkscape:zoom="2.81"
   inkscape:cx="100"
   inkscape:cy="100"
   inkscape:current-layer="svg9" />

<g
   id="Guides"
   style="display:none"
   transform="translate(0,176)">
</g>
<g
   aria-label=""
   style="font-style:normal;font-weight:normal;font-size:203.10093689px;line-height:1.25;font-family:sans-serif;letter-spacing:0px;word-spacing:0px;fill:#000000;fill-opacity:1;stroke:none;stroke-width:5.07752323"
   id="text821"><path
     d="m 69.133369,23.87144 q 7.920937,-0.812403 14.420167,6.093028 6.49923,6.905432 8.936441,18.482186 2.437211,11.576753 -1.218606,19.903891 Q 87.615555,76.677684 80.10082,77.89629 72.586085,78.911794 65.883754,72.209463 59.181423,65.507132 56.744212,53.930379 54.307001,42.150525 57.962818,33.823386 61.618635,25.496248 69.133369,23.87144 Z m 60.524081,0 q 7.51473,1.624808 11.17055,9.951946 3.65582,8.327139 1.21861,20.106993 -2.43722,11.576753 -9.13955,18.279084 -6.70233,6.702331 -14.42016,5.686827 -7.71784,-1.218606 -11.17055,-9.545745 -3.24962,-8.327138 -1.01551,-19.903891 2.43721,-11.576754 8.93644,-18.482186 6.49923,-6.905431 14.42017,-6.093028 z M 23.84186,62.663719 q 7.514735,-2.843413 15.841873,1.827909 8.327139,4.671321 13.404662,15.029469 5.280625,10.155047 3.655817,19.091488 -1.624807,8.936445 -8.936441,12.186055 Q 40.496137,113.84516 32.3721,109.17383 24.248062,104.29941 18.967438,94.347465 13.889914,84.192419 15.311621,75.255977 16.733328,66.319536 23.84186,62.663719 Z m 152.3257,0 q 7.10854,3.655817 8.53024,12.592258 1.42171,8.936442 -3.85892,19.091488 -5.07752,9.951945 -13.20156,14.826365 -8.12403,4.67133 -15.43567,1.62481 -7.31163,-3.24961 -8.93644,-12.186055 -1.62481,-8.936441 3.45272,-19.091488 5.28062,-10.358148 13.60776,-15.029469 8.32714,-4.671322 15.84187,-1.827909 z M 161.9505,154.05914 q 0.4062,6.29613 -3.45272,11.98296 -3.65582,5.48372 -9.34264,8.12403 -11.57675,4.06202 -24.37211,-1.0155 -12.79536,-5.28063 -25.590722,-6.49923 -12.99846,1.2186 -25.793819,6.70233 -12.592258,5.28062 -24.169012,0.8124 -6.296129,-3.65581 -10.155046,-10.56125 -3.655817,-6.90543 -2.843413,-14.01396 1.624807,-9.13954 9.748844,-15.43567 8.327139,-6.29613 15.638773,-12.99846 8.73334,-9.95195 16.857377,-21.731801 8.124038,-11.779855 20.716296,-12.389157 12.389162,0.812403 20.716292,12.592258 8.32714,11.57675 16.65428,21.5287 7.51473,7.51473 16.04497,15.23257 8.53024,7.71783 9.34265,17.66978 z"
     style="font-style:normal;font-variant:normal;font-weight:normal;font-stretch:normal;font-family:'JetBrainsMonoExtraBold Nerd Font';-inkscape-font-specification:'JetBrainsMonoExtraBold Nerd Font';stroke-width:5.07752323"
     id="path814" /></g>


</svg>