<?xml version="1.0" encoding="UTF-8" standalone="no"?>
<svg
   width="2500"
   height="1021"
   viewBox="0 0 512 209"
   preserveAspectRatio="xMidYMid"
   version="1.1"
   id="svg1378"
   sodipodi:docname="logo_jekyll.svg"
   inkscape:version="1.2.2 (b0a8486541, 2022-12-01)"
   xmlns:inkscape="http://www.inkscape.org/namespaces/inkscape"
   xmlns:sodipodi="http://sodipodi.sourceforge.net/DTD/sodipodi-0.dtd"
   xmlns="http://www.w3.org/2000/svg"
   xmlns:svg="http://www.w3.org/2000/svg">
  <sodipodi:namedview
     id="namedview1380"
     pagecolor="#ffffff"
     bordercolor="#999999"
     borderopacity="1"
     inkscape:showpageshadow="0"
     inkscape:pageopacity="0"
     inkscape:pagecheckerboard="0"
     inkscape:deskcolor="#d1d1d1"
     showgrid="false"
     inkscape:zoom="0.3189547"
     inkscape:cx="1160.0394"
     inkscape:cy="757.16082"
     inkscape:window-width="1900"
     inkscape:window-height="1028"
     inkscape:window-x="9"
     inkscape:window-y="41"
     inkscape:window-maximized="1"
     inkscape:current-layer="svg1378" />
  <defs
     id="defs1350">
    <linearGradient
       x1="23.962%"
       y1="46.043%"
       x2="68.784%"
       y2="55.602%"
       id="a">
      <stop
         stop-color="#919191"
         offset="0%"
         id="stop1333" />
      <stop
         stop-color="#FFF"
         offset="100%"
         id="stop1335" />
    </linearGradient>
    <linearGradient
       x1="26.427%"
       y1="42.381%"
       x2="67.132%"
       y2="51.906%"
       id="b">
      <stop
         stop-color="#900"
         offset="0%"
         id="stop1338" />
      <stop
         stop-color="#E80000"
         offset="100%"
         id="stop1340" />
    </linearGradient>
    <linearGradient
       x1="133.52087"
       y1="327.56514"
       x2="133.52087"
       y2="60.939254"
       id="c"
       gradientTransform="scale(1.6317251,0.61284833)"
       gradientUnits="userSpaceOnUse">
      <stop
         stop-color="#1A1A1A"
         offset="0"
         id="stop1343"
         style="stop-color:#333333;stop-opacity:1;" />
      <stop
         stop-color="#4A4A4C"
         offset="40.26%"
         id="stop1345" />
      <stop
         stop-color="#333"
         offset="100%"
         id="stop1347" />
    </linearGradient>
  </defs>
  <path
     d="m 455.81542,8.2410052 c -0.0946,0.3827243 -0.0946,0.7654484 0,1.1481727 0,0 1.22684,8.1379251 -0.18918,11.7752441 L 397.47176,174.62627 c -4.15349,11.2966 1.41602,23.83729 12.55599,28.14606 11.13997,4.30685 23.50773,-1.24505 27.94499,-12.44574 L 496.12722,36.864746 c 1.13226,-2.967791 7.64673,-8.807452 7.64673,-8.807452 0.28378,-0.287763 0.56661,-0.574566 0.75484,-0.86137 v -0.09592 c 0,-0.09592 0.0946,-0.09592 0.0946,-0.191842 1.51062,-3.924121 -8.21333,-11.39156 -21.61875,-16.656656 -13.40637,-5.2660544 -25.584,-6.3192654 -27.09462,-2.2982633 0,0 -0.0946,0.09592 -0.0946,0.2877625 z"
     opacity=".1"
     id="path1352"
     style="opacity:1;fill:none;fill-opacity:1;stroke:#333333;stroke-width:2.92619;stroke-dasharray:none;stroke-opacity:1" />
  <path
     id="path1356"
     style="fill:#333333;fill-opacity:1;stroke-width:0.97989"
     d="m 476.41925,76.270361 c 0,0 -8.41142,9.682702 -16.03884,13.007455 -7.53042,3.324752 -13.10508,2.444845 -19.95057,6.455516 -6.84646,4.008712 -10.26925,9.583328 -10.26925,9.583328 l -27.77401,72.27278 c -3.03274,8.11736 1.36797,17.60353 9.68132,20.83129 8.31237,3.22678 17.60413,-0.97798 20.8309,-9.09534 z m -38.61512,29.341829 a 1.749104,1.7549834 0 0 1 1.74891,1.75518 1.749104,1.7549834 0 0 1 -1.74891,1.75479 1.749104,1.7549834 0 0 1 -1.7493,-1.75479 1.749104,1.7549834 0 0 1 1.7493,-1.75518 z m 11.36751,11.70303 a 2.6231661,2.632965 0 0 1 2.62336,2.63277 2.6231661,2.632965 0 0 1 -2.62336,2.63316 2.6231661,2.632965 0 0 1 -2.62336,-2.63316 2.6231661,2.632965 0 0 1 2.62336,-2.63277 z m -17.39188,12.67664 a 4.955305,4.9739229 0 0 1 4.95511,4.97392 4.955305,4.9739229 0 0 1 -4.95511,4.97432 4.955305,4.9739229 0 0 1 -4.9555,-4.97432 4.955305,4.9739229 0 0 1 4.9555,-4.97392 z m -7.9665,11.50901 a 2.6231661,2.632965 0 0 1 2.62297,2.63277 2.6231661,2.632965 0 0 1 -2.62297,2.63316 2.6231661,2.632965 0 0 1 -2.62337,-2.63316 2.6231661,2.632965 0 0 1 2.62337,-2.63277 z m 10.39546,20.38172 a 1.749104,1.7549834 0 0 1 1.7489,1.75478 1.749104,1.7549834 0 0 1 -1.7489,1.75518 1.749104,1.7549834 0 0 1 -1.7493,-1.75518 1.749104,1.7549834 0 0 1 1.7493,-1.75478 z" />
  <path
     d="m 495.91789,23.575589 c 0.8672,-2.262567 -5.37274,-6.776921 -13.936,-10.083071 -8.56424,-3.306149 -16.20934,-4.1527745 -17.07557,-1.891188 -0.8672,2.262567 5.37274,6.775941 13.936,10.08307 8.56424,3.30615 16.20935,4.152775 17.07557,1.891189 z"
     fill="#333333"
     id="path1358"
     style="stroke-width:0.97989" />
  <g
     transform="matrix(0.97989022,0,0,0.97989022,419.49978,106.53486)"
     fill="#ffffff"
     opacity=".5"
     id="g1372"
     style="opacity:1" />
  <path
     d="m 122.91345,94.665959 c 2.65891,2.160672 7.48343,0.884001 10.73332,-2.651017 3.44622,-3.731353 3.93854,-8.542056 1.27963,-10.702728 -2.65793,-2.160672 -7.48343,-0.884001 -10.73233,2.847352 -3.44622,3.731353 -3.93953,8.346707 -1.28062,10.507379 z m -7.87708,6.972361 c -0.68964,0 -1.96927,1.27568 -0.88597,1.76702 1.47695,0.49133 2.1656,1.76701 2.1656,3.53501 -1.27963,7.36405 -10.43831,15.71076 -13.98221,18.55811 -0.88598,0.884 0.39464,2.84735 1.27963,2.16067 1.97026,-1.57167 6.10513,-4.81169 9.45368,-9.13205 -5.51514,12.27341 -16.346127,28.1805 -20.481989,33.77753 -16.148806,22.28945 -40.667998,42.81091 -57.505457,42.81091 -13.489896,0 -24.911861,-9.13205 -27.3744359,-22.48481 -0.1973216,-1.47399 -2.1656054,-1.768 -1.7719486,0.19535 3.0525663,18.36177 17.2321025,25.52948 34.3655435,25.52948 18.807716,0 40.864333,-13.55008 53.074598,-27.49283 19.692699,-22.48579 32.396269,-48.40794 29.047729,-63.03836 -1.47696,-5.49935 -5.21916,-6.38335 -7.38477,-6.18603 z m 120.91873,48.99695 c 5.21915,-1.27668 9.45368,-4.12403 9.45368,-8.64072 0,-0.49133 -0.88696,-0.49133 -0.88696,0 0,2.65102 -3.05158,4.90936 -6.49879,5.40069 -8.07441,1.27569 -24.02589,-8.14938 -31.50932,-17.87142 8.07441,3.04467 24.51821,-1.37435 32.29762,-6.97138 7.18843,-5.20435 10.04367,-10.89906 10.53599,-15.51441 0.88597,-7.659043 -7.48343,-12.17475 -19.20137,-7.659043 -7.48343,3.044673 -16.44479,9.623383 -25.79883,21.995443 9.84635,-16.20208 29.24505,-42.713233 48.25009,-59.601995 23.13991,-20.521455 36.53114,-16.594753 15.75416,5.204359 -8.56672,8.934726 -24.71454,20.521455 -35.8425,25.529479 -3.44622,1.473006 -1.77195,3.436357 0.68964,2.356021 11.81661,-5.203373 27.57077,-15.906101 37.12213,-24.8428 28.16274,-27.001498 4.62818,-47.327604 -26.48748,-18.753452 -21.17064,19.343444 -34.95553,39.767225 -46.96946,66.180708 -4.13586,5.00802 -7.18843,9.13204 -10.93064,12.2734 -0.49231,0.39267 -0.78731,0.78633 -1.08231,1.179 -10.33965,8.83705 -26.58712,20.81645 -36.72945,20.91413 -7.18744,0.19732 -10.241,-5.20436 -8.96038,-12.17475 1.96927,-10.90005 13.29356,-23.76345 22.94358,-28.18148 12.50526,-5.69471 19.89002,5.40069 3.44622,14.23676 -6.30245,3.241 -13.78588,5.00901 -16.83844,5.00901 -3.54489,0 -3.24891,1.47202 -0.19733,1.57068 5.02184,0.19633 13.09723,-1.96335 18.41406,-4.41902 16.83845,-8.05073 17.92174,-23.0748 -0.39464,-23.56514 -19.89003,-0.68767 -43.71958,16.20109 -43.52226,37.50887 0.19733,9.6224 7.87709,14.82676 18.41406,14.82676 17.62576,-0.19733 33.28225,-13.55008 46.18117,-25.33315 1.87061,-1.57167 3.64354,-3.24101 5.41648,-5.00802 -4.53051,11.39039 -6.79477,21.99446 -5.71246,29.84983 0.69062,5.69569 3.93952,8.34671 6.49977,10.50738 0.49232,0.39169 1.57562,0 0.88598,-1.08033 -3.74122,-4.41902 -2.65891,-17.67509 2.46158,-30.53751 4.43086,8.64072 21.26931,19.53978 38.79641,15.6121 z m -21.17065,-37.31353 c 20.58065,-18.360785 28.65506,-1.96335 15.55882,8.05269 -6.79477,5.20436 -20.28467,9.13205 -24.51919,6.57871 l -0.88598,-0.49133 c -0.4933,-0.88302 -1.08329,-1.76702 -1.47695,-2.65102 3.44622,-4.12402 7.38476,-7.95305 11.3233,-11.48807 z M 329.20537,92.507259 c 8.27074,0.884002 4.82452,-9.132047 -3.54488,-6.578704 -3.74221,1.079349 -7.38575,8.248046 -10.04367,14.434085 -8.27173,12.2734 -22.05761,29.06449 -31.70664,37.90154 -8.5677,7.36405 -16.44479,9.32839 -6.79477,-4.41902 3.93854,-5.49836 8.96038,-11.3894 11.81661,-17.28143 6.79379,-14.82675 -7.68075,-21.405454 -19.39869,-12.47073 -6.79478,5.20436 -15.95149,15.90709 -23.13992,21.79911 -1.96927,1.57068 -1.47695,3.92671 0.49232,2.35602 5.71148,-4.61436 15.75515,-15.21942 24.41954,-21.40545 7.18843,-5.49837 10.04368,-1.96335 5.9088,2.65102 -5.71147,6.57969 -15.75515,18.06776 -18.3154,25.33413 -3.54488,10.89906 0.68964,15.70976 7.87709,15.70976 9.84635,0 24.51919,-15.31709 34.36554,-27.49283 3.24989,-4.12402 6.79477,-8.93571 9.84635,-13.55106 -8.56573,16.59475 -17.52611,33.38584 -28.65308,48.60526 -15.75614,21.40545 -35.44884,37.50888 -54.15789,37.50888 -13.4899,0 -25.10919,-9.13205 -27.57176,-22.4858 -0.19732,-1.473 -1.96927,-1.768 -1.77195,0.19634 3.05256,18.36078 17.2321,25.52948 34.36554,25.52948 18.80772,0 36.92579,-10.89906 49.62838,-24.25281 25.6015,-27.00347 28.65406,-57.34365 36.53115,-74.33108 3.7422,-7.756711 7.18842,-8.149381 9.84635,-7.756711 z M 433.3853,66.485463 c 3.74122,-6.382369 3.54488,-11.390394 -5.21916,-11.390394 -6.59745,0.197322 -18.61039,4.811689 -24.22321,9.132048 -1.28061,1.276671 -0.68964,1.96335 0.88598,1.276671 1.08329,-0.39267 2.36292,-1.080336 3.54488,-1.571667 6.30246,-3.436357 3.74221,3.731353 2.36293,6.383356 -7.48343,13.058749 -20.776,31.420513 -27.76809,40.552563 a 138.79311,138.79311 0 0 1 -10.73233,12.76474 c -6.69611,6.38237 -19.98869,17.6741 -30.13102,21.40546 -32.5936,12.17573 8.96038,-43.20358 12.4066,-47.721265 7.68075,-9.622391 24.91186,-26.412493 30.13102,-34.856874 3.74221,-6.383356 3.54488,-11.390394 -5.21916,-11.390394 -6.59745,0.196335 -18.61039,4.810703 -24.22321,9.131061 -1.27963,1.276671 -0.68865,1.964337 0.88696,1.276671 1.08231,-0.39267 2.36293,-1.07935 3.54489,-1.570681 6.30146,-3.436357 3.74122,3.731353 2.36292,6.38237 -7.48342,13.059735 -20.77698,31.421504 -27.76809,40.552562 -5.71148,7.65904 -12.70258,15.31808 -18.11808,19.63844 -2.16659,1.76702 -0.88597,3.43636 1.27964,1.96335 1.96927,-1.27568 4.82451,-4.12402 8.0744,-7.46172 -5.90781,11.78307 -10.73331,28.37683 4.82451,30.34117 13.29357,1.76702 29.04871,-11.68539 39.28971,-21.70045 l 3.64354,-3.63368 0.88598,-0.88301 c -5.90781,11.78306 -10.73331,28.37683 4.82451,30.34117 17.03577,2.35602 38.20641,-20.52146 46.37948,-28.96683 1.57462,-1.57068 1.08231,-4.32036 -1.57562,-1.57068 -4.82451,5.00704 -21.17064,19.83379 -32.98725,24.25281 -32.59261,12.17573 8.96038,-43.20358 12.4066,-47.72126 7.87807,-9.818728 25.01053,-26.60883 30.22968,-34.955537 z"
     fill="url(#c)"
     id="path1376"
     style="fill:#333333;fill-opacity:1;stroke-width:0.986608" />
</svg>
