<?xml version="1.0" encoding="UTF-8" standalone="no"?>
<svg
   xmlns:dc="http://purl.org/dc/elements/1.1/"
   xmlns:cc="http://creativecommons.org/ns#"
   xmlns:rdf="http://www.w3.org/1999/02/22-rdf-syntax-ns#"
   xmlns:svg="http://www.w3.org/2000/svg"
   xmlns="http://www.w3.org/2000/svg"
   xmlns:sodipodi="http://sodipodi.sourceforge.net/DTD/sodipodi-0.dtd"
   xmlns:inkscape="http://www.inkscape.org/namespaces/inkscape"
   version="1.1"
   x="0px"
   y="0px"
   width="200"
   height="200"
   viewBox="0 0 200 200"
   xml:space="preserve"
   id="svg9"
   sodipodi:docname="logo_toc.svg"
   inkscape:version="1.0.1 (3bc2e813f5, 2020-09-07, custom)"><g
   aria-label=""
   id="text834"
   style="font-size:178.107px;line-height:1.25;font-family:sans-serif;letter-spacing:0px;word-spacing:0px;stroke-width:4.45268"
   transform="translate(10.946505,10.946497)"><path
     d="M 76.407901,165.2833 H 165.4614 v -63.5842 h -41.49893 q -3.91836,0 -6.76807,-2.671604 -2.6716,-2.671605 -2.6716,-6.768066 V 50.938607 H 76.407901 Z M 101.69909,22.263381 v -6.411852 q 0,-1.246749 -0.89053,-2.137284 -0.890536,-1.068642 -2.137285,-1.068642 H 28.675226 q -1.246749,0 -2.315391,1.068642 Q 25.4693,14.60478 25.4693,15.851529 v 6.411852 q 0,1.246749 0.890535,2.315391 1.068642,0.890535 2.315391,0.890535 h 69.996049 q 1.246749,0 2.137285,-0.890535 0.89053,-1.068642 0.89053,-2.315391 z m 25.4693,66.790123 h 29.74387 L 127.16839,59.309636 Z m 50.9386,12.645596 v 66.79012 q 0,4.09646 -2.84971,6.76807 -2.84971,2.84971 -6.76806,2.84971 H 73.201975 q -4.096461,0 -6.946173,-2.84971 -2.671605,-2.67161 -2.671605,-6.76807 V 152.6377 H 9.6177777 q -3.9183539,0 -6.7680658,-2.84971 Q 0,146.93828 0,143.01992 V 9.4396774 Q 0,5.5213235 2.6716049,2.8497186 5.5213168,6.7138672e-6 9.6177777,6.7138672e-6 H 117.72872 q 4.09646,0 6.76807,2.8497118861328 2.6716,2.6716049 2.6716,6.5899588 V 42.033257 q 1.60297,0.890535 3.56214,2.849712 l 40.6084,40.608395 q 2.84971,2.849712 4.80889,7.658601 1.95917,4.630782 1.95917,8.549135 z"
     style="font-style:normal;font-variant:normal;font-weight:normal;font-stretch:normal;font-family:'JetBrainsMonoExtraBold Nerd Font';-inkscape-font-specification:'JetBrainsMonoExtraBold Nerd Font';stroke-width:4.45268"
     id="path836" /></g><metadata
   id="metadata15"><rdf:RDF><cc:Work
       rdf:about=""><dc:format>image/svg+xml</dc:format><dc:type
         rdf:resource="http://purl.org/dc/dcmitype/StillImage" /><dc:title /></cc:Work></rdf:RDF></metadata><defs
   id="defs13" /><sodipodi:namedview
   pagecolor="#ffffff"
   bordercolor="#666666"
   borderopacity="1"
   objecttolerance="10"
   gridtolerance="10"
   guidetolerance="10"
   inkscape:pageopacity="0"
   inkscape:pageshadow="2"
   inkscape:window-width="640"
   inkscape:window-height="480"
   id="namedview11"
   showgrid="false"
   inkscape:showpageshadow="false"
   inkscape:zoom="2.635"
   inkscape:cx="100"
   inkscape:cy="100"
   inkscape:current-layer="svg9"
   inkscape:document-rotation="0" />

<g
   id="Guides"
   style="display:none"
   transform="translate(0,176)">
</g>







</svg>
