<?xml version="1.0" encoding="UTF-8" standalone="no"?>
<!-- Created with Inkscape (http://www.inkscape.org/) -->

<svg
   xmlns:dc="http://purl.org/dc/elements/1.1/"
   xmlns:cc="http://creativecommons.org/ns#"
   xmlns:rdf="http://www.w3.org/1999/02/22-rdf-syntax-ns#"
   xmlns:svg="http://www.w3.org/2000/svg"
   xmlns="http://www.w3.org/2000/svg"
   xmlns:sodipodi="http://sodipodi.sourceforge.net/DTD/sodipodi-0.dtd"
   xmlns:inkscape="http://www.inkscape.org/namespaces/inkscape"
   width="200"
   height="200"
   viewBox="0 0 52.916665 52.916668"
   version="1.1"
   id="svg8"
   inkscape:version="0.92.2 2405546, 2018-03-11"
   sodipodi:docname="logo_toga.svg">
  <defs
     id="defs2" />
  <sodipodi:namedview
     id="base"
     pagecolor="#ffffff"
     bordercolor="#666666"
     borderopacity="1.0"
     inkscape:pageopacity="0.0"
     inkscape:pageshadow="2"
     inkscape:zoom="1.9905056"
     inkscape:cx="87.938674"
     inkscape:cy="92.418745"
     inkscape:document-units="mm"
     inkscape:current-layer="layer1"
     showgrid="false"
     units="px"
     inkscape:showpageshadow="false" />
  <metadata
     id="metadata5">
    <rdf:RDF>
      <cc:Work
         rdf:about="">
        <dc:format>image/svg+xml</dc:format>
        <dc:type
           rdf:resource="http://purl.org/dc/dcmitype/StillImage" />
        <dc:title></dc:title>
      </cc:Work>
    </rdf:RDF>
  </metadata>
  <g
     inkscape:label="Layer 1"
     inkscape:groupmode="layer"
     id="layer1"
     transform="translate(0,-244.08332)">
    <path
       style="fill:#000000;stroke-width:0.22897413"
       d="m 5.4147475,285.44293 c -0.7151345,-0.36923 -1.3659963,-0.77771 -1.4463581,-0.90774 -0.080375,-0.13008 0.3300825,-0.77608 0.9121032,-1.43569 1.2396089,-1.40484 2.4750899,-3.8598 2.8808948,-5.7245 0.269143,-1.23679 0.257082,-1.35172 -0.1926359,-1.83179 -1.085704,-1.15903 -1.108554,-3.03809 -0.04387,-3.60788 0.2519979,-0.13495 0.4850589,-0.58399 0.5634579,-1.08588 0.288824,-1.84885 0.883198,-3.77393 1.400645,-4.53644 0.385759,-0.56845 0.460531,-0.83083 0.258299,-0.90647 -0.156531,-0.0584 -1.308151,-0.44837 -2.5591439,-0.86631 -2.3672833,-0.79085 -2.947941,-1.23329 -2.5163942,-1.91743 0.1559369,-0.24719 4.1891351,-1.70208 11.1613167,-4.02612 l 10.917159,-3.63907 10.917156,3.63907 c 6.972182,2.32404 11.005385,3.77891 11.161316,4.02612 0.172785,0.2739 0.172839,0.50013 2.3e-4,0.77376 -0.155153,0.24583 -4.196093,1.71065 -11.104075,4.02474 l -10.860141,3.63807 -5.724355,-1.877 c -3.148393,-1.03233 -5.798272,-1.9437 -5.888618,-2.02521 -0.157262,-0.14198 6.105748,-2.71042 10.23932,-4.19926 1.957618,-0.70512 2.530939,-1.18269 2.26179,-1.88408 -0.417879,-1.08897 -1.650229,-0.7855 -9.273318,2.28366 -6.349501,2.55638 -7.352694,3.31521 -7.959322,6.02061 -0.405823,1.80987 -0.385115,2.21107 0.149203,2.89034 0.628169,0.79859 0.659599,1.93894 0.07396,2.68346 -0.407526,0.51809 -0.420112,0.73263 -0.18893,3.22034 0.290422,3.12499 0.06385,4.56812 -0.9741046,6.20483 -0.6639,1.04686 -1.677194,1.76894 -2.4532819,1.7482 -0.226631,-0.005 -0.997185,-0.31312 -1.71232,-0.68233 z m 18.7022795,-4.79978 c -3.741827,-0.30754 -7.090671,-1.18229 -9.152983,-2.39089 -1.533824,-0.89887 -1.622062,-1.09545 -1.035524,-2.30709 0.382867,-0.7909 0.467028,-1.24984 0.347463,-1.89482 -0.182981,-0.98706 -0.894722,-2.23656 -1.380097,-2.42281 -0.259056,-0.0995 -0.30346,-0.37873 -0.194664,-1.22483 0.07751,-0.60282 0.209241,-1.17256 0.292707,-1.26605 0.08346,-0.0936 3.081951,0.80808 6.663291,2.00352 3.581344,1.19543 6.824713,2.17354 7.207491,2.17354 0.382778,0 3.628487,-0.97887 7.212686,-2.17527 3.584199,-1.19638 6.596038,-2.17525 6.692975,-2.17525 0.09693,0 0.176247,1.5968 0.176247,3.54844 v 3.54844 l -0.797212,0.8824 c -2.395101,2.65112 -9.328902,4.25159 -16.032389,3.70067 z"
       id="path992"
       inkscape:connector-curvature="0" />
  </g>
</svg>
