<?xml version="1.0" encoding="UTF-8" standalone="no"?>
<svg
   xmlns:dc="http://purl.org/dc/elements/1.1/"
   xmlns:cc="http://creativecommons.org/ns#"
   xmlns:rdf="http://www.w3.org/1999/02/22-rdf-syntax-ns#"
   xmlns:svg="http://www.w3.org/2000/svg"
   xmlns="http://www.w3.org/2000/svg"
   xmlns:sodipodi="http://sodipodi.sourceforge.net/DTD/sodipodi-0.dtd"
   xmlns:inkscape="http://www.inkscape.org/namespaces/inkscape"
   version="1.1"
   x="0px"
   y="0px"
   width="200"
   height="200"
   viewBox="0 0 200 200"
   xml:space="preserve"
   id="svg9"
   sodipodi:docname="logo_pencarian.svg"
   inkscape:version="1.0.1 (3bc2e813f5, 2020-09-07, custom)"><metadata
   id="metadata15"><rdf:RDF><cc:Work
       rdf:about=""><dc:format>image/svg+xml</dc:format><dc:type
         rdf:resource="http://purl.org/dc/dcmitype/StillImage" /><dc:title /></cc:Work></rdf:RDF></metadata><defs
   id="defs13" /><sodipodi:namedview
   pagecolor="#ffffff"
   bordercolor="#666666"
   borderopacity="1"
   objecttolerance="10"
   gridtolerance="10"
   guidetolerance="10"
   inkscape:pageopacity="0"
   inkscape:pageshadow="2"
   inkscape:window-width="640"
   inkscape:window-height="480"
   id="namedview11"
   showgrid="false"
   inkscape:showpageshadow="false"
   inkscape:zoom="2.635"
   inkscape:cx="100"
   inkscape:cy="100"
   inkscape:current-layer="text821"
   inkscape:document-rotation="0" />

<g
   id="Guides"
   style="display:none"
   transform="translate(0,176)">
</g>
<g
   aria-label=""
   style="font-style:normal;font-weight:normal;font-size:203.10093689px;line-height:1.25;font-family:sans-serif;letter-spacing:0px;word-spacing:0px;fill:#000000;fill-opacity:1;stroke:none;stroke-width:5.07752323"
   id="text821"><g
     aria-label=""
     id="text835"
     style="font-size:185.551px;line-height:1.25;font-family:sans-serif;letter-spacing:0px;word-spacing:0px;stroke-width:23.5536"><path
       d="m 119.39008,119.48285 q 13.73077,-13.54522 13.73077,-32.656976 0,-19.111753 -13.73077,-32.842526 -13.54522,-13.730774 -32.656976,-13.730774 -19.111753,0 -32.842527,13.730774 -13.545222,13.730773 -13.545222,32.842526 0,19.111756 13.545222,32.656976 13.730774,13.54522 32.842527,13.54522 19.111756,0 32.656976,-13.54522 z m 62.90179,43.97558 q 3.89657,4.08213 3.89657,9.46311 0,5.38097 -4.08213,9.27755 -3.89657,3.89657 -9.27754,3.89657 -5.38098,0 -9.27755,-3.71102 l -35.44024,-35.62579 q -18.5551,12.98856 -41.377876,12.98856 -30.244813,0 -51.583177,-21.33836 -21.338364,-21.33836 -21.338364,-51.583176 0,-30.244812 21.338364,-51.583177 21.338364,-21.338364 51.583177,-21.338364 30.244816,0 51.583176,21.338364 21.33836,21.338365 21.33836,51.397626 0,23.008327 -12.80301,41.563427 z"
       style="font-style:normal;font-variant:normal;font-weight:normal;font-stretch:normal;font-family:'JetBrainsMonoExtraBold Nerd Font';-inkscape-font-specification:'JetBrainsMonoExtraBold Nerd Font';stroke-width:23.5536"
       id="path837" /></g></g>






</svg>
