<?xml version="1.0" encoding="UTF-8" standalone="no"?>
<!-- Generator: Adobe Illustrator 12.0.1, SVG Export Plug-In . SVG Version: 6.00 Build 51448)  -->

<svg
   version="1.1"
   id="Layer_1"
   width="163"
   height="60"
   viewBox="0 0 163 60"
   overflow="visible"
   enable-background="new 0 0 198.13 197.58"
   xml:space="preserve"
   inkscape:version="1.2.2 (b0a8486541, 2022-12-01)"
   sodipodi:docname="logo_ruby.svg"
   style="overflow:visible"
   inkscape:export-filename="/home/amarcuse/site/common/images/badge/ruby.png"
   inkscape:export-xdpi="90"
   inkscape:export-ydpi="90"
   xmlns:inkscape="http://www.inkscape.org/namespaces/inkscape"
   xmlns:sodipodi="http://sodipodi.sourceforge.net/DTD/sodipodi-0.dtd"
   xmlns="http://www.w3.org/2000/svg"
   xmlns:svg="http://www.w3.org/2000/svg"
   xmlns:rdf="http://www.w3.org/1999/02/22-rdf-syntax-ns#"
   xmlns:cc="http://creativecommons.org/ns#"
   xmlns:dc="http://purl.org/dc/elements/1.1/"><metadata
     id="metadata3320"><rdf:RDF><cc:Work
         rdf:about=""><dc:format>image/svg+xml</dc:format><dc:type
           rdf:resource="http://purl.org/dc/dcmitype/StillImage" /><dc:title /></cc:Work></rdf:RDF></metadata><defs
     id="defs3489"><linearGradient
       id="XMLID_17_-9"
       gradientUnits="userSpaceOnUse"
       x1="174.0737"
       y1="215.5488"
       x2="132.27631"
       y2="141.7533"><stop
         offset="0"
         style="stop-color:#FB7655"
         id="stop3272-4" /><stop
         offset="0"
         style="stop-color:#FB7655"
         id="stop3274-5" /><stop
         offset="0.41"
         style="stop-color:#E42B1E"
         id="stop3276-1" /><stop
         offset="0.99"
         style="stop-color:#990000"
         id="stop3278-0" /><stop
         offset="1"
         style="stop-color:#990000"
         id="stop3280-3" /></linearGradient><linearGradient
       id="XMLID_18_-7"
       gradientUnits="userSpaceOnUse"
       x1="194.895"
       y1="153.5576"
       x2="141.0276"
       y2="117.4093"><stop
         offset="0"
         style="stop-color:#871101"
         id="stop3285-8" /><stop
         offset="0"
         style="stop-color:#871101"
         id="stop3287-8" /><stop
         offset="0.99"
         style="stop-color:#911209"
         id="stop3289-6" /><stop
         offset="1"
         style="stop-color:#911209"
         id="stop3291-0" /></linearGradient><linearGradient
       id="XMLID_19_-4"
       gradientUnits="userSpaceOnUse"
       x1="151.79539"
       y1="217.7852"
       x2="97.929703"
       y2="181.638"><stop
         offset="0"
         style="stop-color:#871101"
         id="stop3296-6" /><stop
         offset="0"
         style="stop-color:#871101"
         id="stop3298-7" /><stop
         offset="0.99"
         style="stop-color:#911209"
         id="stop3300-6" /><stop
         offset="1"
         style="stop-color:#911209"
         id="stop3302-0" /></linearGradient><linearGradient
       id="XMLID_20_-9"
       gradientUnits="userSpaceOnUse"
       x1="38.696301"
       y1="127.3906"
       x2="47.046902"
       y2="181.66141"><stop
         offset="0"
         style="stop-color:#FFFFFF"
         id="stop3307-7" /><stop
         offset="0"
         style="stop-color:#FFFFFF"
         id="stop3309-5" /><stop
         offset="0.23"
         style="stop-color:#E57252"
         id="stop3311-9" /><stop
         offset="0.46"
         style="stop-color:#DE3B20"
         id="stop3313-7" /><stop
         offset="0.99"
         style="stop-color:#A60003"
         id="stop3315-8" /><stop
         offset="1"
         style="stop-color:#A60003"
         id="stop3317-5" /></linearGradient><linearGradient
       id="XMLID_21_-3"
       gradientUnits="userSpaceOnUse"
       x1="96.132797"
       y1="76.715302"
       x2="99.209602"
       y2="132.1021"><stop
         offset="0"
         style="stop-color:#FFFFFF"
         id="stop3322-3" /><stop
         offset="0"
         style="stop-color:#FFFFFF"
         id="stop3324-8" /><stop
         offset="0.23"
         style="stop-color:#E4714E"
         id="stop3326-3" /><stop
         offset="0.56"
         style="stop-color:#BE1A0D"
         id="stop3328-7" /><stop
         offset="0.99"
         style="stop-color:#A80D00"
         id="stop3330-9" /><stop
         offset="1"
         style="stop-color:#A80D00"
         id="stop3332-3" /></linearGradient><linearGradient
       id="XMLID_22_-7"
       gradientUnits="userSpaceOnUse"
       x1="147.103"
       y1="25.521"
       x2="156.3141"
       y2="65.216202"><stop
         offset="0"
         style="stop-color:#FFFFFF"
         id="stop3337-8" /><stop
         offset="0"
         style="stop-color:#FFFFFF"
         id="stop3339-7" /><stop
         offset="0.18"
         style="stop-color:#E46342"
         id="stop3341-4" /><stop
         offset="0.4"
         style="stop-color:#C82410"
         id="stop3343-1" /><stop
         offset="0.99"
         style="stop-color:#A80D00"
         id="stop3345-9" /><stop
         offset="1"
         style="stop-color:#A80D00"
         id="stop3347-0" /></linearGradient><linearGradient
       id="XMLID_23_-9"
       gradientUnits="userSpaceOnUse"
       x1="118.9761"
       y1="11.5415"
       x2="158.66859"
       y2="-8.3048"><stop
         offset="0"
         style="stop-color:#FFFFFF"
         id="stop3352-8" /><stop
         offset="0"
         style="stop-color:#FFFFFF"
         id="stop3354-8" /><stop
         offset="0.54"
         style="stop-color:#C81F11"
         id="stop3356-5" /><stop
         offset="0.99"
         style="stop-color:#BF0905"
         id="stop3358-8" /><stop
         offset="1"
         style="stop-color:#BF0905"
         id="stop3360-4" /></linearGradient><linearGradient
       id="XMLID_24_-3"
       gradientUnits="userSpaceOnUse"
       x1="3.9033"
       y1="113.5547"
       x2="7.1701999"
       y2="146.2628"><stop
         offset="0"
         style="stop-color:#FFFFFF"
         id="stop3365-7" /><stop
         offset="0"
         style="stop-color:#FFFFFF"
         id="stop3367-1" /><stop
         offset="0.31"
         style="stop-color:#DE4024"
         id="stop3369-3" /><stop
         offset="0.99"
         style="stop-color:#BF190B"
         id="stop3371-8" /><stop
         offset="1"
         style="stop-color:#BF190B"
         id="stop3373-0" /></linearGradient><linearGradient
       id="XMLID_25_-9"
       gradientUnits="userSpaceOnUse"
       x1="-18.5557"
       y1="155.10451"
       x2="135.0152"
       y2="-2.8092999"><stop
         offset="0"
         style="stop-color:#BD0012"
         id="stop3380-7" /><stop
         offset="0"
         style="stop-color:#BD0012"
         id="stop3382-9" /><stop
         offset="0.07"
         style="stop-color:#FFFFFF"
         id="stop3384-9" /><stop
         offset="0.17"
         style="stop-color:#FFFFFF"
         id="stop3386-3" /><stop
         offset="0.27"
         style="stop-color:#C82F1C"
         id="stop3388-2" /><stop
         offset="0.33"
         style="stop-color:#820C01"
         id="stop3390-4" /><stop
         offset="0.46"
         style="stop-color:#A31601"
         id="stop3392-3" /><stop
         offset="0.72"
         style="stop-color:#B31301"
         id="stop3394-7" /><stop
         offset="0.99"
         style="stop-color:#E82609"
         id="stop3396-1" /><stop
         offset="1"
         style="stop-color:#E82609"
         id="stop3398-2" /></linearGradient><linearGradient
       id="XMLID_26_-2"
       gradientUnits="userSpaceOnUse"
       x1="99.074699"
       y1="171.0332"
       x2="52.817699"
       y2="159.61659"><stop
         offset="0"
         style="stop-color:#8C0C01"
         id="stop3403-0" /><stop
         offset="0"
         style="stop-color:#8C0C01"
         id="stop3405-2" /><stop
         offset="0.54"
         style="stop-color:#990C00"
         id="stop3407-1" /><stop
         offset="0.99"
         style="stop-color:#A80D0E"
         id="stop3409-7" /><stop
         offset="1"
         style="stop-color:#A80D0E"
         id="stop3411-5" /></linearGradient><linearGradient
       id="XMLID_27_-1"
       gradientUnits="userSpaceOnUse"
       x1="178.52589"
       y1="115.5146"
       x2="137.43269"
       y2="78.683998"><stop
         offset="0"
         style="stop-color:#7E110B"
         id="stop3416-7" /><stop
         offset="0"
         style="stop-color:#7E110B"
         id="stop3418-4" /><stop
         offset="0.99"
         style="stop-color:#9E0C00"
         id="stop3420-1" /><stop
         offset="1"
         style="stop-color:#9E0C00"
         id="stop3422-7" /></linearGradient><linearGradient
       id="XMLID_28_-1"
       gradientUnits="userSpaceOnUse"
       x1="193.6235"
       y1="47.937"
       x2="173.15421"
       y2="26.053801"><stop
         offset="0"
         style="stop-color:#79130D"
         id="stop3427-1" /><stop
         offset="0"
         style="stop-color:#79130D"
         id="stop3429-1" /><stop
         offset="0.99"
         style="stop-color:#9E120B"
         id="stop3431-7" /><stop
         offset="1"
         style="stop-color:#9E120B"
         id="stop3433-0" /></linearGradient><radialGradient
       id="XMLID_29_-4"
       cx="143.8315"
       cy="79.388199"
       r="50.357601"
       gradientUnits="userSpaceOnUse"><stop
         offset="0"
         style="stop-color:#A80D00"
         id="stop3440-0" /><stop
         offset="0"
         style="stop-color:#A80D00"
         id="stop3442-8" /><stop
         offset="0.99"
         style="stop-color:#7E0E08"
         id="stop3444-5" /><stop
         offset="1"
         style="stop-color:#7E0E08"
         id="stop3446-1" /></radialGradient><radialGradient
       id="XMLID_30_-6"
       cx="74.0923"
       cy="145.75101"
       r="66.943703"
       gradientUnits="userSpaceOnUse"><stop
         offset="0"
         style="stop-color:#A30C00"
         id="stop3451-6" /><stop
         offset="0"
         style="stop-color:#A30C00"
         id="stop3453-2" /><stop
         offset="0.99"
         style="stop-color:#800E08"
         id="stop3455-1" /><stop
         offset="1"
         style="stop-color:#800E08"
         id="stop3457-9" /></radialGradient><linearGradient
       id="XMLID_31_-6"
       gradientUnits="userSpaceOnUse"
       x1="26.669901"
       y1="197.33591"
       x2="9.9886999"
       y2="140.742"><stop
         offset="0"
         style="stop-color:#8B2114"
         id="stop3462-4" /><stop
         offset="0"
         style="stop-color:#8B2114"
         id="stop3464-8" /><stop
         offset="0.43"
         style="stop-color:#9E100A"
         id="stop3466-0" /><stop
         offset="0.99"
         style="stop-color:#B3100C"
         id="stop3468-8" /><stop
         offset="1"
         style="stop-color:#B3100C"
         id="stop3470-1" /></linearGradient><linearGradient
       id="XMLID_32_-0"
       gradientUnits="userSpaceOnUse"
       x1="154.6411"
       y1="9.7979002"
       x2="192.039"
       y2="26.305901"><stop
         offset="0"
         style="stop-color:#B31000"
         id="stop3475-2" /><stop
         offset="0"
         style="stop-color:#B31000"
         id="stop3477-2" /><stop
         offset="0.44"
         style="stop-color:#910F08"
         id="stop3479-9" /><stop
         offset="0.99"
         style="stop-color:#791C12"
         id="stop3481-7" /><stop
         offset="1"
         style="stop-color:#791C12"
         id="stop3483-5" /></linearGradient></defs><sodipodi:namedview
     pagecolor="#ffffff"
     bordercolor="#666666"
     borderopacity="1"
     objecttolerance="10"
     gridtolerance="10"
     guidetolerance="10"
     inkscape:pageopacity="0"
     inkscape:pageshadow="2"
     inkscape:window-width="1900"
     inkscape:window-height="1028"
     id="namedview3487"
     showgrid="false"
     inkscape:zoom="6.1627907"
     inkscape:cx="90.949057"
     inkscape:cy="32.371698"
     inkscape:window-x="9"
     inkscape:window-y="41"
     inkscape:window-maximized="1"
     inkscape:current-layer="Layer_1"
     inkscape:showpageshadow="0"
     inkscape:pagecheckerboard="0"
     inkscape:deskcolor="#d1d1d1" /><linearGradient
     id="XMLID_17_"
     gradientUnits="userSpaceOnUse"
     x1="174.0737"
     y1="215.5488"
     x2="132.27631"
     y2="141.7533"><stop
       offset="0"
       style="stop-color:#FB7655"
       id="stop3272" /><stop
       offset="0"
       style="stop-color:#FB7655"
       id="stop3274" /><stop
       offset="0.41"
       style="stop-color:#E42B1E"
       id="stop3276" /><stop
       offset="0.99"
       style="stop-color:#990000"
       id="stop3278" /><stop
       offset="1"
       style="stop-color:#990000"
       id="stop3280" /></linearGradient><linearGradient
     id="XMLID_18_"
     gradientUnits="userSpaceOnUse"
     x1="194.895"
     y1="153.5576"
     x2="141.0276"
     y2="117.4093"><stop
       offset="0"
       style="stop-color:#871101"
       id="stop3285" /><stop
       offset="0"
       style="stop-color:#871101"
       id="stop3287" /><stop
       offset="0.99"
       style="stop-color:#911209"
       id="stop3289" /><stop
       offset="1"
       style="stop-color:#911209"
       id="stop3291" /></linearGradient><linearGradient
     id="XMLID_19_"
     gradientUnits="userSpaceOnUse"
     x1="151.79539"
     y1="217.7852"
     x2="97.929703"
     y2="181.638"><stop
       offset="0"
       style="stop-color:#871101"
       id="stop3296" /><stop
       offset="0"
       style="stop-color:#871101"
       id="stop3298" /><stop
       offset="0.99"
       style="stop-color:#911209"
       id="stop3300" /><stop
       offset="1"
       style="stop-color:#911209"
       id="stop3302" /></linearGradient><linearGradient
     id="XMLID_20_"
     gradientUnits="userSpaceOnUse"
     x1="38.696301"
     y1="127.3906"
     x2="47.046902"
     y2="181.66141"><stop
       offset="0"
       style="stop-color:#FFFFFF"
       id="stop3307" /><stop
       offset="0"
       style="stop-color:#FFFFFF"
       id="stop3309" /><stop
       offset="0.23"
       style="stop-color:#E57252"
       id="stop3311" /><stop
       offset="0.46"
       style="stop-color:#DE3B20"
       id="stop3313" /><stop
       offset="0.99"
       style="stop-color:#A60003"
       id="stop3315" /><stop
       offset="1"
       style="stop-color:#A60003"
       id="stop3317" /></linearGradient><linearGradient
     id="XMLID_21_"
     gradientUnits="userSpaceOnUse"
     x1="96.132797"
     y1="76.715302"
     x2="99.209602"
     y2="132.1021"><stop
       offset="0"
       style="stop-color:#FFFFFF"
       id="stop3322" /><stop
       offset="0"
       style="stop-color:#FFFFFF"
       id="stop3324" /><stop
       offset="0.23"
       style="stop-color:#E4714E"
       id="stop3326" /><stop
       offset="0.56"
       style="stop-color:#BE1A0D"
       id="stop3328" /><stop
       offset="0.99"
       style="stop-color:#A80D00"
       id="stop3330" /><stop
       offset="1"
       style="stop-color:#A80D00"
       id="stop3332" /></linearGradient><linearGradient
     id="XMLID_22_"
     gradientUnits="userSpaceOnUse"
     x1="147.103"
     y1="25.521"
     x2="156.3141"
     y2="65.216202"><stop
       offset="0"
       style="stop-color:#FFFFFF"
       id="stop3337" /><stop
       offset="0"
       style="stop-color:#FFFFFF"
       id="stop3339" /><stop
       offset="0.18"
       style="stop-color:#E46342"
       id="stop3341" /><stop
       offset="0.4"
       style="stop-color:#C82410"
       id="stop3343" /><stop
       offset="0.99"
       style="stop-color:#A80D00"
       id="stop3345" /><stop
       offset="1"
       style="stop-color:#A80D00"
       id="stop3347" /></linearGradient><linearGradient
     id="XMLID_23_"
     gradientUnits="userSpaceOnUse"
     x1="118.9761"
     y1="11.5415"
     x2="158.66859"
     y2="-8.3048"><stop
       offset="0"
       style="stop-color:#FFFFFF"
       id="stop3352" /><stop
       offset="0"
       style="stop-color:#FFFFFF"
       id="stop3354" /><stop
       offset="0.54"
       style="stop-color:#C81F11"
       id="stop3356" /><stop
       offset="0.99"
       style="stop-color:#BF0905"
       id="stop3358" /><stop
       offset="1"
       style="stop-color:#BF0905"
       id="stop3360" /></linearGradient><linearGradient
     id="XMLID_24_"
     gradientUnits="userSpaceOnUse"
     x1="3.9033"
     y1="113.5547"
     x2="7.1701999"
     y2="146.2628"><stop
       offset="0"
       style="stop-color:#FFFFFF"
       id="stop3365" /><stop
       offset="0"
       style="stop-color:#FFFFFF"
       id="stop3367" /><stop
       offset="0.31"
       style="stop-color:#DE4024"
       id="stop3369" /><stop
       offset="0.99"
       style="stop-color:#BF190B"
       id="stop3371" /><stop
       offset="1"
       style="stop-color:#BF190B"
       id="stop3373" /></linearGradient><linearGradient
     id="XMLID_25_"
     gradientUnits="userSpaceOnUse"
     x1="-18.5557"
     y1="155.10451"
     x2="135.0152"
     y2="-2.8092999"><stop
       offset="0"
       style="stop-color:#BD0012"
       id="stop3380" /><stop
       offset="0"
       style="stop-color:#BD0012"
       id="stop3382" /><stop
       offset="0.07"
       style="stop-color:#FFFFFF"
       id="stop3384" /><stop
       offset="0.17"
       style="stop-color:#FFFFFF"
       id="stop3386" /><stop
       offset="0.27"
       style="stop-color:#C82F1C"
       id="stop3388" /><stop
       offset="0.33"
       style="stop-color:#820C01"
       id="stop3390" /><stop
       offset="0.46"
       style="stop-color:#A31601"
       id="stop3392" /><stop
       offset="0.72"
       style="stop-color:#B31301"
       id="stop3394" /><stop
       offset="0.99"
       style="stop-color:#E82609"
       id="stop3396" /><stop
       offset="1"
       style="stop-color:#E82609"
       id="stop3398" /></linearGradient><linearGradient
     id="XMLID_26_"
     gradientUnits="userSpaceOnUse"
     x1="99.074699"
     y1="171.0332"
     x2="52.817699"
     y2="159.61659"><stop
       offset="0"
       style="stop-color:#8C0C01"
       id="stop3403" /><stop
       offset="0"
       style="stop-color:#8C0C01"
       id="stop3405" /><stop
       offset="0.54"
       style="stop-color:#990C00"
       id="stop3407" /><stop
       offset="0.99"
       style="stop-color:#A80D0E"
       id="stop3409" /><stop
       offset="1"
       style="stop-color:#A80D0E"
       id="stop3411" /></linearGradient><linearGradient
     id="XMLID_27_"
     gradientUnits="userSpaceOnUse"
     x1="178.52589"
     y1="115.5146"
     x2="137.43269"
     y2="78.683998"><stop
       offset="0"
       style="stop-color:#7E110B"
       id="stop3416" /><stop
       offset="0"
       style="stop-color:#7E110B"
       id="stop3418" /><stop
       offset="0.99"
       style="stop-color:#9E0C00"
       id="stop3420" /><stop
       offset="1"
       style="stop-color:#9E0C00"
       id="stop3422" /></linearGradient><linearGradient
     id="XMLID_28_"
     gradientUnits="userSpaceOnUse"
     x1="193.6235"
     y1="47.937"
     x2="173.15421"
     y2="26.053801"><stop
       offset="0"
       style="stop-color:#79130D"
       id="stop3427" /><stop
       offset="0"
       style="stop-color:#79130D"
       id="stop3429" /><stop
       offset="0.99"
       style="stop-color:#9E120B"
       id="stop3431" /><stop
       offset="1"
       style="stop-color:#9E120B"
       id="stop3433" /></linearGradient><radialGradient
     id="XMLID_29_"
     cx="143.8315"
     cy="79.388199"
     r="50.357601"
     gradientUnits="userSpaceOnUse"><stop
       offset="0"
       style="stop-color:#A80D00"
       id="stop3440" /><stop
       offset="0"
       style="stop-color:#A80D00"
       id="stop3442" /><stop
       offset="0.99"
       style="stop-color:#7E0E08"
       id="stop3444" /><stop
       offset="1"
       style="stop-color:#7E0E08"
       id="stop3446" /></radialGradient><radialGradient
     id="XMLID_30_"
     cx="74.0923"
     cy="145.75101"
     r="66.943703"
     gradientUnits="userSpaceOnUse"><stop
       offset="0"
       style="stop-color:#A30C00"
       id="stop3451" /><stop
       offset="0"
       style="stop-color:#A30C00"
       id="stop3453" /><stop
       offset="0.99"
       style="stop-color:#800E08"
       id="stop3455" /><stop
       offset="1"
       style="stop-color:#800E08"
       id="stop3457" /></radialGradient><linearGradient
     id="XMLID_31_"
     gradientUnits="userSpaceOnUse"
     x1="26.669901"
     y1="197.33591"
     x2="9.9886999"
     y2="140.742"><stop
       offset="0"
       style="stop-color:#8B2114"
       id="stop3462" /><stop
       offset="0"
       style="stop-color:#8B2114"
       id="stop3464" /><stop
       offset="0.43"
       style="stop-color:#9E100A"
       id="stop3466" /><stop
       offset="0.99"
       style="stop-color:#B3100C"
       id="stop3468" /><stop
       offset="1"
       style="stop-color:#B3100C"
       id="stop3470" /></linearGradient><linearGradient
     id="XMLID_32_"
     gradientUnits="userSpaceOnUse"
     x1="154.6411"
     y1="9.7979002"
     x2="192.039"
     y2="26.305901"><stop
       offset="0"
       style="stop-color:#B31000"
       id="stop3475" /><stop
       offset="0"
       style="stop-color:#B31000"
       id="stop3477" /><stop
       offset="0.44"
       style="stop-color:#910F08"
       id="stop3479" /><stop
       offset="0.99"
       style="stop-color:#791C12"
       id="stop3481" /><stop
       offset="1"
       style="stop-color:#791C12"
       id="stop3483" /></linearGradient><g
     id="g4251"
     transform="matrix(0.61969456,0,0,0.6196959,28.879725,12.882192)"><path
       d="M 96.194609,46.695907 H 83.921516 c -2.720242,-4.26238 -5.183435,-7.946444 -7.389559,-11.05221 -2.184759,-3.105743 -4.562269,-6.307881 -7.13253,-9.606426 h -4.658625 v 14.457832 c -2e-5,0.749671 0.117822,1.413659 0.353404,1.991968 0.235602,0.556898 0.738945,0.985277 1.51005,1.285141 0.385522,0.14994 1.06021,0.289159 2.024086,0.417671 0.963835,0.128514 1.777751,0.203484 2.441768,0.224899 v 2.281125 H 51.793 v -2.281125 c 0.514056,-0.04283 1.253002,-0.117801 2.216878,-0.224899 0.985261,-0.107089 1.670662,-0.246316 2.056225,-0.417671 0.64255,-0.278444 1.103062,-0.685406 1.381516,-1.220884 0.299859,-0.53547 0.449799,-1.220877 0.449799,-2.056225 V 7.5312395 c 0,-0.7496174 -0.107129,-1.4136136 -0.321285,-1.991968 C 57.361936,4.9609994 56.858593,4.5219131 56.066103,4.2220126 55.5306,4.0293444 54.834486,3.8579374 53.977739,3.7079564 53.120972,3.5366728 52.392719,3.4295435 51.793,3.3866712 V 1.1055363 h 21.044188 c 1.92767,6.17e-5 3.73758,0.2035663 5.429709,0.6104521 1.692068,0.3855833 3.223524,1.0174407 4.594388,1.8955722 1.327931,0.8568084 2.388182,1.9812961 3.180713,3.3735044 0.792469,1.3708441 1.188724,3.030814 1.188766,4.97991 -4.2e-5,1.756398 -0.267783,3.309274 -0.803224,4.658641 -0.535502,1.349426 -1.328013,2.516762 -2.37751,3.502008 -0.963896,0.921043 -2.120523,1.724256 -3.46988,2.409639 -1.349418,0.664012 -2.838042,1.231617 -4.465853,1.702811 2.248955,2.977262 4.112409,5.483284 5.590362,7.518073 1.499276,2.03482 3.330611,4.508711 5.493966,7.421687 0.942388,1.285147 1.788443,2.238291 2.538163,2.859438 0.771023,0.599737 1.531415,1.092374 2.281114,1.477912 0.556846,0.27845 1.252961,0.49264 2.088364,0.64257 0.83528,0.14994 1.531394,0.235611 2.088343,0.257028 v 2.281125 M 79.29501,12.703937 C 79.294989,9.9409296 78.502479,7.7561905 76.9175,6.1497236 75.332459,4.5219131 73.094175,3.7079975 70.20265,3.7079564 H 64.740802 V 23.274219 h 4.208826 c 2.955803,2.2e-5 5.418975,-0.942412 7.389558,-2.82731 1.970522,-1.906264 2.955803,-4.487252 2.955824,-7.742972"
       style="font-style:normal;font-variant:normal;font-weight:normal;font-stretch:normal;font-size:32px;line-height:125%;font-family:Georgia;-inkscape-font-specification:Georgia;letter-spacing:0px;word-spacing:0px;fill:#333333;fill-opacity:1;stroke:none"
       id="path3206"
       inkscape:connector-curvature="0" /><path
       d="m 131.05406,46.117594 -10.31326,0.706827 -0.48192,-0.449799 v -4.016065 h -0.19267 c -0.5141,0.53548 -1.09241,1.113791 -1.73494,1.73494 -0.64261,0.599735 -1.38156,1.145918 -2.21688,1.638554 -0.96387,0.578314 -1.89559,1.017404 -2.79517,1.31727 -0.89962,0.299865 -2.17405,0.449799 -3.8233,0.449799 -2.80591,0 -4.94779,-0.910308 -6.42571,-2.730924 -1.4565,-1.84203 -2.18473,-4.508695 -2.18473,-8.000001 V 21.603536 c 0,-0.771058 -0.1499,-1.413628 -0.4498,-1.927711 -0.27846,-0.535447 -0.696118,-0.995955 -1.253006,-1.381526 -0.385562,-0.257 -0.86748,-0.439062 -1.445793,-0.546185 -0.578313,-0.128494 -1.188766,-0.21416 -1.831315,-0.257028 v -2.088354 l 10.570274,-0.771084 0.48194,0.449799 v 22.008034 c -3e-5,2.291841 0.51403,4.01607 1.54216,5.172691 1.0281,1.15663 2.25969,1.734942 3.69477,1.734939 1.17804,3e-6 2.22755,-0.182058 3.1486,-0.546184 0.921,-0.364121 1.69209,-0.7925 2.31325,-1.285141 0.57829,-0.449795 1.08164,-0.921012 1.51005,-1.413655 0.44976,-0.51405 0.79247,-0.985267 1.02811,-1.413654 V 21.378636 c -4e-5,-0.7068 -0.14989,-1.327951 -0.4498,-1.863454 -0.2999,-0.556867 -0.71758,-1.028084 -1.25302,-1.413655 -0.38556,-0.256999 -0.96387,-0.406933 -1.73494,-0.449799 -0.74968,-0.06424 -1.59573,-0.11778 -2.53814,-0.160653 v -2.088353 l 11.50201,-0.771085 0.48192,0.4498 v 25.156628 c -4e-5,0.728251 0.14989,1.349404 0.4498,1.863454 0.29983,0.51406 0.71749,0.953148 1.25302,1.317269 0.3855,0.235612 0.84601,0.396255 1.38151,0.481928 0.53544,0.06426 1.12447,0.107108 1.76708,0.128514 v 2.088353"
       style="font-style:normal;font-variant:normal;font-weight:normal;font-stretch:normal;font-size:32px;line-height:125%;font-family:Georgia;-inkscape-font-specification:Georgia;letter-spacing:0px;word-spacing:0px;fill:#333333;fill-opacity:1;stroke:none"
       id="path3208"
       inkscape:connector-curvature="0" /><path
       d="m 167.16651,30.82442 c -4e-5,4.755031 -1.49938,8.749673 -4.49799,11.983936 -2.9987,3.234272 -6.47929,4.851406 -10.44178,4.851406 -1.73496,0 -3.44847,-0.267739 -5.14056,-0.803213 -1.6707,-0.535473 -3.24499,-1.25301 -4.72288,-2.15261 l -2.37751,3.694779 -1.99197,-0.449799 c 0.10713,-1.585006 0.18197,-3.491297 0.22489,-5.718876 0.0428,-2.22757 0.0642,-4.380179 0.0642,-6.457832 V 4.4147837 c 0,-0.7282121 -0.17128,-1.4564447 -0.51405,-2.1847391 -0.32129,-0.7282121 -0.73897,-1.25296068 -1.25301,-1.57430753 -0.40696,-0.2783923 -1.09239,-0.48187633 -2.05622,-0.61043152 -0.94245,-0.14989881 -1.70282,-0.24627407 -2.28114,-0.28916693 V -2.3000864 l 11.63053,-0.7389456 0.4498,0.4819175 V 18.326427 l 0.22491,0.06426 c 1.32795,-1.413626 2.77374,-2.473865 4.33734,-3.180723 1.58498,-0.706794 3.13786,-1.060208 4.65864,-1.060241 3.89823,3.3e-5 7.15392,1.5422 9.76707,4.626506 2.61307,3.084363 3.91964,7.100423 3.91968,12.048194 m -6.71487,0.224899 c -2e-5,-1.584989 -0.17128,-3.202122 -0.51406,-4.851405 -0.34273,-1.649243 -0.87821,-3.084313 -1.60642,-4.305222 -0.72828,-1.242276 -1.68142,-2.248969 -2.85943,-3.02008 -1.17807,-0.771056 -2.59173,-1.156598 -4.24097,-1.156627 -1.49935,2.9e-5 -2.81661,0.299895 -3.95181,0.899599 -1.1138,0.57834 -2.12051,1.370844 -3.02008,2.37751 v 18.441768 c 0.12851,0.514063 0.37483,1.113796 0.73896,1.799197 0.38552,0.685414 0.89958,1.338693 1.54217,1.95984 0.64255,0.599735 1.37078,1.092371 2.18474,1.477911 0.8139,0.364125 1.80987,0.546187 2.98794,0.546185 2.61309,2e-6 4.72286,-1.263719 6.32933,-3.791165 1.60638,-2.527436 2.40961,-5.986602 2.40963,-10.377511"
       style="font-style:normal;font-variant:normal;font-weight:normal;font-stretch:normal;font-size:32px;line-height:125%;font-family:Georgia;-inkscape-font-specification:Georgia;letter-spacing:0px;word-spacing:0px;fill:#333333;fill-opacity:1;stroke:none"
       id="path3210"
       inkscape:connector-curvature="0" /><path
       d="m 169.47976,57.041289 c 0,-1.07096 0.28915,-1.949139 0.86746,-2.634538 0.59974,-0.663996 1.33869,-0.99599 2.21688,-0.995984 0.6854,-6e-6 1.27441,0.128514 1.76706,0.385542 0.49263,0.25702 0.93172,0.589016 1.31728,0.995984 0.32126,0.321277 0.66398,0.760365 1.02811,1.317269 0.3641,0.556885 0.65327,1.017393 0.86746,1.381526 1.07095,-0.578323 2.34537,-2.088362 3.82331,-4.530121 1.49931,-2.441771 2.58097,-4.583668 3.24497,-6.425703 -2.03482,-5.076299 -3.87685,-9.617127 -5.52611,-13.622491 -1.64928,-4.005337 -3.3735,-8.149911 -5.17268,-12.433735 -0.40697,-0.985247 -1.09239,-1.745622 -2.05622,-2.281125 -0.96388,-0.556865 -1.92774,-0.910278 -2.89157,-1.060241 V 15.01719 h 14.45783 v 2.248996 c -0.64259,0.02145 -1.41367,0.160673 -2.31325,0.417671 -0.89962,0.235637 -1.34942,0.567633 -1.3494,0.995984 -2e-5,2.9e-5 0.0535,0.160673 0.16059,0.481928 0.12852,0.321311 0.2356,0.631888 0.32129,0.931726 0.81391,2.120507 2.0562,5.183423 3.7269,9.188756 1.67067,3.98395 2.96652,7.175378 3.88756,9.574298 0.96384,-2.291823 1.95981,-4.658623 2.98795,-7.100402 1.04951,-2.463169 2.21683,-5.365442 3.50202,-8.706828 0.14989,-0.406937 0.36409,-0.963831 0.64257,-1.670683 0.27841,-0.72822 0.41764,-1.349371 0.41766,-1.863454 -2e-5,-0.556867 -0.49268,-1.070923 -1.47792,-1.542169 -0.96387,-0.492607 -1.8849,-0.792473 -2.76305,-0.899598 V 15.01719 h 11.75904 v 1.991968 c -0.64261,0.107129 -1.48865,0.481956 -2.53814,1.124498 -1.04958,0.621179 -1.83136,1.510067 -2.3454,2.666667 -2.54889,5.911667 -4.81929,11.298543 -6.81124,16.160643 -1.97056,4.862121 -3.4699,8.439091 -4.49799,10.730925 -1.34942,2.998657 -2.55959,5.333327 -3.63052,7.004016 -1.04955,1.692093 -2.07767,3.020071 -3.08433,3.983936 -0.9853,0.899586 -1.8849,1.499317 -2.6988,1.799197 -0.79253,0.321271 -1.61716,0.481914 -2.4739,0.481928 -1.67069,-1.4e-5 -2.98797,-0.396265 -3.9518,-1.188755 -0.94245,-0.792517 -1.41366,-1.702822 -1.41366,-2.730924"
       style="font-style:normal;font-variant:normal;font-weight:normal;font-stretch:normal;font-size:32px;line-height:125%;font-family:Georgia;-inkscape-font-specification:Georgia;letter-spacing:0px;word-spacing:0px;fill:#333333;fill-opacity:1;stroke:none"
       id="path3212"
       inkscape:connector-curvature="0" /></g><flowRoot
     xml:space="preserve"
     id="flowRoot3204"
     style="font-style:normal;font-weight:normal;line-height:0.01%;font-family:sans-serif;letter-spacing:0px;word-spacing:0px;fill:#000000;fill-opacity:1;stroke:none"
     transform="matrix(0.62468167,0,0,0.62468302,13.778326,-72.451277)"><flowRegion
       id="flowRegion3206"
       style="font-family:sans-serif"><rect
         id="rect3208"
         width="299.72513"
         height="283.32227"
         x="-87.233429"
         y="-32.805729" /></flowRegion><flowPara
       id="flowPara3210"
       style="font-size:40px;line-height:1.25;font-family:sans-serif"> </flowPara></flowRoot><path
     style="fill:#333333;fill-opacity:1;stroke-width:0.0253689"
     d="M 21.80899,44.270805 C 19.182395,43.932436 17.335346,42.749319 16.280129,40.729319 16.008917,40.210139 15.72321,39.425273 15.59271,38.840917 l -0.04093,-0.183236 1.348839,-2.315609 c 1.461361,-2.50878 1.419825,-2.438534 1.433665,-2.424695 0.0053,0.0053 0.81387,2.309389 1.797014,5.12039 0.983147,2.811004 1.799637,5.14231 1.814432,5.180679 0.02922,0.07585 0.03334,0.07427 -0.136749,0.05236 z m 3.041926,-0.128466 c 0.0076,-0.02442 0.754372,-2.987067 1.659572,-6.583667 0.905201,-3.5966 1.652456,-6.545914 1.66057,-6.554026 0.01233,-0.01234 12.468172,4.777512 12.572491,4.834702 0.05579,0.03058 -1.181819,1.110968 -2.305196,2.012416 -4.339883,3.48254 -8.631575,5.526503 -13.166627,6.270749 -0.465447,0.07638 -0.437926,0.07509 -0.42081,0.01983 z m 7.118349,-0.341408 c 0.0068,-0.0067 0.183928,-0.09 0.393222,-0.184894 2.420154,-1.09737 5.09784,-2.827756 7.636058,-4.934602 0.688228,-0.571261 1.9268,-1.659134 2.476139,-2.174855 l 0.09146,-0.08585 3.358727,2.984024 c 1.847306,1.641211 3.415808,3.017616 3.485576,3.058676 0.06979,0.04106 0.169908,0.08179 0.222544,0.09051 0.05267,0.0087 0.100218,0.02318 0.105751,0.03212 0.0054,0.0089 -3.918989,0.282512 -8.721154,0.607917 -4.802157,0.325407 -8.805404,0.597874 -8.896101,0.605479 -0.09069,0.0076 -0.159184,0.0082 -0.152214,0.0014 z M 21.467179,37.932635 c -1.036821,-2.965356 -1.880666,-5.395222 -1.875208,-5.399704 0.01947,-0.01599 6.85276,-1.540303 6.871864,-1.532913 0.02161,0.0083 -3.072826,12.324172 -3.096571,12.324172 -0.0083,0 -0.863258,-2.4262 -1.900085,-5.391555 z m 29.078387,3.512059 c -0.03988,-0.09694 -0.108947,-0.189492 -0.228321,-0.306066 -0.0941,-0.09191 -1.598109,-1.431762 -3.342228,-2.977458 -1.74412,-1.545696 -3.185235,-2.823187 -3.202481,-2.838865 -0.0242,-0.02198 0.0857,-0.156181 0.47987,-0.586068 2.136123,-2.329695 3.767635,-4.371853 5.107003,-6.392426 0.91944,-1.387061 1.545983,-2.468313 2.234454,-3.856084 0.20074,-0.404637 0.365244,-0.72287 0.365563,-0.707187 4.12e-4,0.01986 -1.110742,14.602055 -1.348956,17.703022 l -0.0077,0.100098 z M 15.276483,31.13623 c 0,-2.621835 0.0045,-4.762215 0.0099,-4.756402 0.0073,0.0079 2.254077,5.337495 2.314444,5.49027 0.0055,0.01395 -0.515216,0.927109 -1.157176,2.029235 l -1.167201,2.003864 z m 20.092228,0.884819 c -3.369635,-1.30209 -6.165355,-2.382463 -6.212715,-2.400831 l -0.08611,-0.03339 4.079873,-3.792629 c 2.243937,-2.085945 4.126891,-3.834349 4.184344,-3.88534 l 0.104464,-0.09271 1.798483,5.496303 c 0.989169,3.022968 1.914911,5.853055 2.057215,6.289085 0.14315,0.438627 0.245849,0.791478 0.229889,0.789865 -0.01583,-0.0015 -2.785811,-1.06826 -6.155444,-2.370346 z m 7.654781,1.621095 c -0.03456,-0.05827 -4.076058,-12.449855 -4.064323,-12.461589 0.01705,-0.01706 11.743695,-0.283531 12.13009,-0.275643 l 0.28352,0.0058 -0.19656,0.507379 c -1.164437,3.005718 -2.898792,5.926938 -5.33483,8.985587 -0.727301,0.913189 -1.218548,1.49216 -2.148126,2.531747 -0.685107,0.766175 -0.653987,0.733337 -0.669771,0.706729 z m -25.431063,-5.981066 -1.400608,-3.333647 2.057033,-3.534932 c 1.131368,-1.944211 2.098415,-3.58267 2.148993,-3.641018 0.11323,-0.130628 7.404183,-6.919562 7.518883,-7.001173 0.107205,-0.07628 6.492706,-2.4199958 6.52601,-2.3952918 0.01392,0.01035 1.214567,0.849319 2.668035,1.8643822 2.603976,1.8185516 2.642334,1.8465596 2.620156,1.9132286 -0.0124,0.03722 -0.611427,1.939605 -1.331217,4.22754 -0.719788,2.287933 -1.317357,4.165872 -1.32792,4.173196 -0.02291,0.01586 -9.654728,8.96372 -9.823678,9.126065 l -0.116671,0.112119 -3.993095,0.895863 c -2.196202,0.492722 -4.027347,0.902937 -4.069205,0.911587 l -0.07611,0.01572 z m 21.339013,-8.170132 c 0.03737,-0.139299 2.194689,-6.971807 2.204393,-6.981511 0.006,-0.0061 2.107431,1.510562 4.669464,3.370527 l 4.658246,3.381756 -0.146018,0.01798 c -0.08031,0.0099 -2.600468,0.06992 -5.600352,0.133418 -2.999876,0.06349 -5.532007,0.118599 -5.62695,0.12246 -0.162823,0.0066 -0.171842,0.0041 -0.158783,-0.04463 z m 8.165536,-4.676504 c -2.723508,-1.977079 -4.952468,-3.600397 -4.953244,-3.607374 -7.61e-4,-0.007 1.359939,-0.769422 3.023796,-1.6943228 l 3.025198,-1.681637 0.17758,0.07055 c 0.262722,0.104379 0.811445,0.388228 1.091145,0.564441 1.447165,0.911721 2.422202,2.2757378 2.856977,3.9967308 0.181934,0.720183 0.249502,1.261124 0.268407,2.148954 0.01545,0.72712 -0.0015,1.004299 -0.109084,1.757868 -0.119115,0.836079 -0.356485,2.043057 -0.401358,2.04084 -0.01515,-7.48e-4 -2.255908,-1.618973 -4.979417,-3.596051 z m -8.538634,-6.1657938 -2.125164,-1.487932 2.412582,-0.0065 c 1.326924,-0.0036 3.491717,-0.0036 4.810658,0 l 2.398068,0.0065 -2.670196,1.484085 c -1.468613,0.816246 -2.677084,1.4858168 -2.685494,1.4879318 -0.0084,0.0022 -0.971611,-0.6657218 -2.140454,-1.4840848 z"
     id="path1616" /></svg>
