<?xml version="1.0" encoding="UTF-8" standalone="no"?>
<svg
   xmlns:dc="http://purl.org/dc/elements/1.1/"
   xmlns:cc="http://creativecommons.org/ns#"
   xmlns:rdf="http://www.w3.org/1999/02/22-rdf-syntax-ns#"
   xmlns:svg="http://www.w3.org/2000/svg"
   xmlns="http://www.w3.org/2000/svg"
   xmlns:sodipodi="http://sodipodi.sourceforge.net/DTD/sodipodi-0.dtd"
   xmlns:inkscape="http://www.inkscape.org/namespaces/inkscape"
   version="1.1"
   x="0px"
   y="0px"
   width="200"
   height="200"
   viewBox="0 0 200 200"
   xml:space="preserve"
   id="svg9"
   sodipodi:docname="logo_about.svg"
   inkscape:version="1.0.1 (3bc2e813f5, 2020-09-07, custom)"><metadata
   id="metadata15"><rdf:RDF><cc:Work
       rdf:about=""><dc:format>image/svg+xml</dc:format><dc:type
         rdf:resource="http://purl.org/dc/dcmitype/StillImage" /><dc:title /></cc:Work></rdf:RDF></metadata><defs
   id="defs13" /><sodipodi:namedview
   pagecolor="#ffffff"
   bordercolor="#666666"
   borderopacity="1"
   objecttolerance="10"
   gridtolerance="10"
   guidetolerance="10"
   inkscape:pageopacity="0"
   inkscape:pageshadow="2"
   inkscape:window-width="640"
   inkscape:window-height="480"
   id="namedview11"
   showgrid="false"
   inkscape:showpageshadow="false"
   inkscape:zoom="2.635"
   inkscape:cx="100"
   inkscape:cy="100"
   inkscape:current-layer="text821"
   inkscape:document-rotation="0" />

<g
   id="Guides"
   style="display:none"
   transform="translate(0,176)">
</g>
<g
   aria-label=""
   style="font-style:normal;font-weight:normal;font-size:203.10093689px;line-height:1.25;font-family:sans-serif;letter-spacing:0px;word-spacing:0px;fill:#000000;fill-opacity:1;stroke:none;stroke-width:5.07752323"
   id="text821"><g
     aria-label=""
     id="text835"
     style="font-size:188.48px;line-height:1.25;font-family:sans-serif;letter-spacing:0px;word-spacing:0px;stroke-width:23.9253"><path
       d="m 184.9125,56.272644 q 4.14656,6.03136 1.8848,13.57056 l -29.02592,94.993916 q -1.8848,6.78528 -8.10464,11.3088 -6.03136,4.52352 -12.81664,4.52352 H 39.782899 q -8.104639,0 -15.643839,-5.46592 -7.35072,-5.46592 -10.3664,-13.75904 -2.63872,-7.16224 -0.18848,-13.57056 0.37696,-4.14656 0.56544,-6.40832 0.18848,-1.13088 -0.18848,-2.45024 -0.37696,-1.31936 -0.37696,-2.07328 0.18848,-1.13088 0.75392,-2.07328 0.75392,-0.9424 1.8848,-2.45024 1.13088,-1.50784 1.69632,-2.63872 6.03136,-9.80096 7.91616,-19.22496 0.37696,-1.13088 0,-3.20416 -0.18848,-2.07328 0,-2.8272 0.37696,-1.13088 1.69632,-3.01568 1.50784,-1.884797 1.8848,-2.261757 2.26176,-3.7696 4.33504,-9.80096 2.26176,-6.03136 2.63872,-9.423999 0,-1.13088 -0.37696,-3.39264 -0.18848,-2.26176 0.18848,-3.01568 0.37696,-1.50784 2.26176,-3.20416 2.073279,-1.69632 2.450239,-2.45024 2.07328,-2.63872 4.52352,-8.85856 2.45024,-6.21984 2.8272,-9.98944 0,-0.75392 -0.37696,-2.63872 -0.37696,-1.8848 -0.18848,-2.8272 0.18848,-0.9424 0.75392,-2.07328 0.75392,-1.13088 1.8848,-2.26176 1.31936,-1.13088 1.8848,-2.26176 1.13088,-1.507839 2.8272,-5.654399 1.69632,-4.14656 3.01568,-6.78528 1.50784,-2.63872 4.712,-4.33504 3.39264,-1.69632 8.10464,-0.18848 v 0 q 4.33504,-0.75392 5.27744,-0.75392 h 80.104001 q 7.72768,0 11.87424,6.03136 4.33504,5.6544 1.8848,13.570559 l -28.64896,95.370876 q -3.7696,12.43968 -7.5392,16.0208 -3.7696,3.58112 -13.57056,3.58112 h -91.4128 q -2.8272,0 -3.95808,1.50784 -1.13088,1.8848 -0.18848,4.52352 2.45024,7.5392 15.266879,7.5392 h 97.067201 q 3.20416,0 5.84288,-1.69632 2.8272,-1.69632 3.58112,-4.33504 L 178.12722,57.403524 q 0.75392,-3.01568 0.56544,-5.6544 4.14656,1.50784 6.21984,4.52352 z m -111.957121,0 q -0.9424,3.39264 2.26176,3.39264 h 63.894721 q 1.31936,0 2.63872,-0.9424 1.50784,-0.9424 1.8848,-2.45024 l 2.26176,-6.78528 q 0.37696,-1.13088 -0.37696,-2.26176 -0.56544,-1.13088 -2.07328,-1.13088 H 79.552179 q -1.31936,0 -2.63872,1.13088 -1.31936,1.13088 -1.69632,2.26176 z m -8.67008,27.141119 q -0.9424,3.01568 2.26176,3.01568 h 63.894721 q 3.58112,0 4.52352,-3.01568 l 2.07328,-6.785279 q 0.9424,-3.39264 -2.26176,-3.39264 H 70.882099 q -1.31936,0 -2.8272,0.9424 -1.31936,0.9424 -1.69632,2.45024 z"
       style="font-style:normal;font-variant:normal;font-weight:normal;font-stretch:normal;font-family:'JetBrainsMonoExtraBold Nerd Font';-inkscape-font-specification:'JetBrainsMonoExtraBold Nerd Font';stroke-width:23.9253"
       id="path837" /></g></g>






</svg>
