<?xml version="1.0" encoding="UTF-8" standalone="no"?>
<svg
   xmlns:dc="http://purl.org/dc/elements/1.1/"
   xmlns:cc="http://creativecommons.org/ns#"
   xmlns:rdf="http://www.w3.org/1999/02/22-rdf-syntax-ns#"
   xmlns:svg="http://www.w3.org/2000/svg"
   xmlns="http://www.w3.org/2000/svg"
   xmlns:sodipodi="http://sodipodi.sourceforge.net/DTD/sodipodi-0.dtd"
   xmlns:inkscape="http://www.inkscape.org/namespaces/inkscape"
   version="1.1"
   x="0px"
   y="0px"
   width="200"
   height="200"
   viewBox="0 0 200 200"
   xml:space="preserve"
   id="svg9"
   sodipodi:docname="logo_rss.svg"
   inkscape:version="1.0.1 (3bc2e813f5, 2020-09-07, custom)"><metadata
   id="metadata15"><rdf:RDF><cc:Work
       rdf:about=""><dc:format>image/svg+xml</dc:format><dc:type
         rdf:resource="http://purl.org/dc/dcmitype/StillImage" /><dc:title /></cc:Work></rdf:RDF></metadata><defs
   id="defs13" /><sodipodi:namedview
   pagecolor="#ffffff"
   bordercolor="#666666"
   borderopacity="1"
   objecttolerance="10"
   gridtolerance="10"
   guidetolerance="10"
   inkscape:pageopacity="0"
   inkscape:pageshadow="2"
   inkscape:window-width="640"
   inkscape:window-height="480"
   id="namedview11"
   showgrid="false"
   inkscape:showpageshadow="false"
   inkscape:zoom="2.635"
   inkscape:cx="100"
   inkscape:cy="100"
   inkscape:current-layer="text821"
   inkscape:document-rotation="0" />

<g
   id="Guides"
   style="display:none"
   transform="translate(0,176)">
</g>
<g
   aria-label=""
   style="font-style:normal;font-weight:normal;font-size:203.10093689px;line-height:1.25;font-family:sans-serif;letter-spacing:0px;word-spacing:0px;fill:#000000;fill-opacity:1;stroke:none;stroke-width:5.07752323"
   id="text821"><g
     aria-label=""
     id="text835"
     style="font-size:207.617px;line-height:1.25;font-family:sans-serif;letter-spacing:0px;word-spacing:0px;stroke-width:26.3545"><path
       d="m 66.05462,155.01851 q 4.359957,-4.35996 4.359957,-10.58847 0,-6.22851 -4.359957,-10.38085 -4.359957,-4.15234 -10.588467,-4.15234 -6.22851,0 -10.588468,4.15234 -4.15234,4.15234 -4.15234,10.38085 0,6.22851 4.15234,10.58847 4.359958,4.35996 10.588468,4.35996 6.22851,0 10.588467,-4.35996 z m 45.05289,0.62285 Q 109.65419,128.65115 90.553426,109.55039 71.660279,90.449621 44.670068,89.203919 q -1.660936,-0.415234 -2.906638,0.830468 -1.038085,1.245702 -1.038085,2.906638 v 14.533195 q 0,3.32187 3.529489,3.7371 17.647446,1.2457 30.312083,14.11796 12.872254,12.87225 14.117956,30.72731 0.415234,3.32188 3.737106,3.32188 H 107.3704 q 1.45332,0 2.69902,-1.24571 1.24571,-1.2457 1.03809,-2.4914 z m 44.43004,0 Q 154.08423,110.38085 121.90359,78.200218 89.722958,46.019582 44.462451,44.77388 42.801515,44.358646 41.76343,45.604348 40.725345,46.85005 40.725345,48.095752 v 14.948425 q 0,3.321872 3.529489,3.737106 36.125359,1.245702 61.869866,26.99021 25.95213,25.744507 27.19783,61.869867 0.20762,1.66094 1.2457,2.69902 1.03809,1.03809 2.49141,1.03809 h 14.7408 q 1.45332,0 2.69902,-1.24571 1.45332,-0.83046 1.03809,-2.4914 z M 188.96389,44.358646 V 155.64136 q 0,14.11796 -9.758,23.66834 -9.758,9.55038 -23.66834,9.55038 H 44.462451 q -13.910339,0 -23.668338,-9.55038 -9.757999,-9.55038 -9.757999,-23.66834 V 44.358646 q 0,-13.702722 9.757999,-23.460721 9.757999,-9.758 23.668338,-9.758 H 155.53755 q 13.91034,0 23.66834,9.758 9.758,9.757999 9.758,23.460721 z"
       style="font-style:normal;font-variant:normal;font-weight:normal;font-stretch:normal;font-family:'JetBrainsMonoExtraBold Nerd Font';-inkscape-font-specification:'JetBrainsMonoExtraBold Nerd Font';stroke-width:26.3545"
       id="path837" /></g></g>






</svg>
