<?xml version="1.0" encoding="UTF-8" standalone="no"?>
<svg
   xmlns:dc="http://purl.org/dc/elements/1.1/"
   xmlns:cc="http://creativecommons.org/ns#"
   xmlns:rdf="http://www.w3.org/1999/02/22-rdf-syntax-ns#"
   xmlns:svg="http://www.w3.org/2000/svg"
   xmlns="http://www.w3.org/2000/svg"
   xmlns:sodipodi="http://sodipodi.sourceforge.net/DTD/sodipodi-0.dtd"
   xmlns:inkscape="http://www.inkscape.org/namespaces/inkscape"
   version="1.1"
   x="0px"
   y="0px"
   width="200"
   height="200"
   viewBox="0 0 200 200"
   xml:space="preserve"
   id="svg9"
   sodipodi:docname="logo_dotfriends.svg"
   inkscape:version="1.0.1 (3bc2e813f5, 2020-09-07, custom)"><metadata
   id="metadata15"><rdf:RDF><cc:Work
       rdf:about=""><dc:format>image/svg+xml</dc:format><dc:type
         rdf:resource="http://purl.org/dc/dcmitype/StillImage" /><dc:title /></cc:Work></rdf:RDF></metadata><defs
   id="defs13" /><sodipodi:namedview
   pagecolor="#ffffff"
   bordercolor="#666666"
   borderopacity="1"
   objecttolerance="10"
   gridtolerance="10"
   guidetolerance="10"
   inkscape:pageopacity="0"
   inkscape:pageshadow="2"
   inkscape:window-width="640"
   inkscape:window-height="480"
   id="namedview11"
   showgrid="false"
   inkscape:showpageshadow="false"
   inkscape:zoom="2.635"
   inkscape:cx="100"
   inkscape:cy="100"
   inkscape:current-layer="text821"
   inkscape:document-rotation="0" />

<g
   id="Guides"
   style="display:none"
   transform="translate(0,176)">
</g>
<g
   aria-label=""
   style="font-style:normal;font-weight:normal;font-size:203.10093689px;line-height:1.25;font-family:sans-serif;letter-spacing:0px;word-spacing:0px;fill:#000000;fill-opacity:1;stroke:none;stroke-width:5.07752323"
   id="text821"><g
     aria-label=""
     id="text835"
     style="font-size:178.542px;line-height:1.25;font-family:sans-serif;letter-spacing:0px;word-spacing:0px;stroke-width:22.6638"><path
       d="m 136.69038,134.10153 q 0,-9.99836 -1.78542,-17.67566 -1.60688,-7.85585 -6.78459,-13.74774 -4.99918,-5.891884 -13.39065,-5.891884 -0.17855,0 -4.28501,2.499588 -3.92793,2.499586 -5.5348,3.392296 -1.60688,0.71417 -4.999181,1.78542 -3.392298,1.07125 -6.24897,1.07125 -2.321046,0 -4.820634,-0.53562 -2.321046,-0.53563 -4.820634,-1.60688 -2.499588,-1.24979 -4.106467,-1.96396 -1.428336,-0.89271 -4.106466,-2.49959 -2.67813,-1.78542 -3.392298,-2.142504 -8.391474,0 -13.569192,5.891884 -4.999177,5.89189 -6.784597,13.74774 -1.606878,7.6773 -1.606878,17.67566 0,7.32022 4.106466,12.14085 4.285009,4.82064 10.355437,4.82064 h 57.311984 q 6.07043,0 10.17689,-4.82064 4.28501,-4.82063 4.28501,-12.14085 z M 111.87304,93.215406 q 7.67731,-7.677307 7.67731,-18.389827 0,-10.712521 -7.67731,-18.211285 -7.49876,-7.677306 -18.211281,-7.677306 -10.71252,0 -18.389827,7.677306 -7.677306,7.498764 -7.677306,18.211285 0,10.71252 7.677306,18.389827 7.677307,7.498764 18.389827,7.498764 10.712521,0 18.211281,-7.498764 z m 71.05972,35.529864 v 19.10399 q 0,1.24979 -1.07125,2.32105 -0.89271,0.89271 -2.1425,0.89271 h -9.64127 v 22.31775 q 0,6.60605 -4.64209,11.24814 -4.6421,4.6421 -11.24815,4.6421 H 32.957477 q -6.606055,0 -11.248147,-4.6421 -4.642092,-4.64209 -4.642092,-11.24814 V 26.619237 q 0,-6.606054 4.642092,-11.248147 4.642092,-4.642092 11.248147,-4.642092 H 154.1875 q 6.60605,0 11.24815,4.642092 4.64209,4.642093 4.64209,11.248147 v 22.317751 h 9.64127 q 1.24979,0 2.1425,1.071252 1.07125,0.89271 1.07125,2.142504 v 19.103995 q 0,1.428336 -1.07125,2.321046 -0.89271,0.89271 -2.1425,0.89271 h -9.64127 v 12.676482 h 9.64127 q 1.24979,0 2.1425,1.071252 1.07125,0.89271 1.07125,2.142505 v 19.103996 q 0,1.42833 -1.07125,2.32104 -0.89271,0.89271 -2.1425,0.89271 h -9.64127 v 12.85503 h 9.64127 q 1.24979,0 2.1425,0.89271 1.07125,0.89271 1.07125,2.32105 z"
       style="font-style:normal;font-variant:normal;font-weight:normal;font-stretch:normal;font-family:'JetBrainsMonoExtraBold Nerd Font';-inkscape-font-specification:'JetBrainsMonoExtraBold Nerd Font';stroke-width:22.6638"
       id="path837" /></g></g>






</svg>
