<?xml version="1.0" encoding="UTF-8" standalone="no"?>
<svg
   xmlns:dc="http://purl.org/dc/elements/1.1/"
   xmlns:cc="http://creativecommons.org/ns#"
   xmlns:rdf="http://www.w3.org/1999/02/22-rdf-syntax-ns#"
   xmlns:svg="http://www.w3.org/2000/svg"
   xmlns="http://www.w3.org/2000/svg"
   xmlns:sodipodi="http://sodipodi.sourceforge.net/DTD/sodipodi-0.dtd"
   xmlns:inkscape="http://www.inkscape.org/namespaces/inkscape"
   version="1.1"
   x="0px"
   y="0px"
   width="200"
   height="200"
   viewBox="0 0 200 200"
   xml:space="preserve"
   id="svg9"
   sodipodi:docname="logo_tags.svg"
   inkscape:version="1.0.1 (3bc2e813f5, 2020-09-07, custom)"><metadata
   id="metadata15"><rdf:RDF><cc:Work
       rdf:about=""><dc:format>image/svg+xml</dc:format><dc:type
         rdf:resource="http://purl.org/dc/dcmitype/StillImage" /><dc:title /></cc:Work></rdf:RDF></metadata><defs
   id="defs13" /><sodipodi:namedview
   pagecolor="#ffffff"
   bordercolor="#666666"
   borderopacity="1"
   objecttolerance="10"
   gridtolerance="10"
   guidetolerance="10"
   inkscape:pageopacity="0"
   inkscape:pageshadow="2"
   inkscape:window-width="640"
   inkscape:window-height="480"
   id="namedview11"
   showgrid="false"
   inkscape:showpageshadow="false"
   inkscape:zoom="2.635"
   inkscape:cx="100"
   inkscape:cy="100"
   inkscape:current-layer="text821"
   inkscape:document-rotation="0" />

<g
   id="Guides"
   style="display:none"
   transform="translate(0,176)">
</g>
<g
   aria-label=""
   style="font-style:normal;font-weight:normal;font-size:203.10093689px;line-height:1.25;font-family:sans-serif;letter-spacing:0px;word-spacing:0px;fill:#000000;fill-opacity:1;stroke:none;stroke-width:5.07752323"
   id="text821"><g
     aria-label=""
     id="text835"
     style="font-size:171.245px;line-height:1.25;font-family:sans-serif;letter-spacing:0px;word-spacing:0px;stroke-width:21.7375"><path
       d="m 48.455256,66.949716 q 3.596145,-3.596145 3.596145,-8.733495 0,-5.13735 -3.596145,-8.733495 -3.4249,-3.596145 -8.56225,-3.596145 -5.137349,0 -8.733494,3.596145 -3.596145,3.596145 -3.596145,8.733495 0,5.13735 3.596145,8.733495 3.596145,3.4249 8.733494,3.4249 5.13735,0 8.56225,-3.4249 z M 153.94217,113.18586 q 0,5.3086 -3.4249,8.7335 l -46.92113,46.92113 q -3.59614,3.59614 -8.73349,3.59614 -4.966105,0 -8.56225,-3.59614 L 17.973647,100.51373 Q 14.377502,96.91759 11.808827,90.924015 9.2401524,84.759195 9.2401524,79.621845 V 39.893006 q 0,-4.966104 3.5961446,-8.562249 3.596145,-3.76739 8.56225,-3.76739 h 39.900084 q 5.13735,0 11.130925,2.568675 6.164819,2.568675 9.760964,6.16482 l 68.32675,68.326748 q 3.4249,3.4249 3.4249,8.56225 z m 36.81768,0 q 0,5.13735 -3.59615,8.7335 l -46.92113,46.92113 q -3.59614,3.59614 -8.73349,3.59614 -5.3086,0 -10.61719,-5.65108 l 44.86619,-44.86619 q 3.59614,-3.59615 3.59614,-8.7335 0,-4.9661 -3.59614,-8.56225 L 97.431325,36.296862 Q 93.83518,32.700717 87.67036,30.132042 81.676785,27.563367 76.539435,27.563367 H 97.94506 q 5.13735,0 11.13092,2.568675 6.16482,2.568675 9.76097,6.16482 l 68.32675,68.326748 q 3.59615,3.59615 3.59615,8.56225 z"
       style="font-style:normal;font-variant:normal;font-weight:normal;font-stretch:normal;font-family:'JetBrainsMonoExtraBold Nerd Font';-inkscape-font-specification:'JetBrainsMonoExtraBold Nerd Font';stroke-width:21.7375"
       id="path837" /></g></g>






</svg>
