<?xml version="1.0" encoding="UTF-8" standalone="no"?>
<svg
   xmlns:dc="http://purl.org/dc/elements/1.1/"
   xmlns:cc="http://creativecommons.org/ns#"
   xmlns:rdf="http://www.w3.org/1999/02/22-rdf-syntax-ns#"
   xmlns:svg="http://www.w3.org/2000/svg"
   xmlns="http://www.w3.org/2000/svg"
   xmlns:sodipodi="http://sodipodi.sourceforge.net/DTD/sodipodi-0.dtd"
   xmlns:inkscape="http://www.inkscape.org/namespaces/inkscape"
   version="1.1"
   x="0px"
   y="0px"
   width="200"
   height="200"
   viewBox="0 0 200 200"
   xml:space="preserve"
   id="svg9"
   sodipodi:docname="logo_tahapan.svg"
   inkscape:version="1.0.1 (3bc2e813f5, 2020-09-07, custom)"><metadata
   id="metadata15"><rdf:RDF><cc:Work
       rdf:about=""><dc:format>image/svg+xml</dc:format><dc:type
         rdf:resource="http://purl.org/dc/dcmitype/StillImage" /><dc:title /></cc:Work></rdf:RDF></metadata><defs
   id="defs13" /><sodipodi:namedview
   pagecolor="#ffffff"
   bordercolor="#666666"
   borderopacity="1"
   objecttolerance="10"
   gridtolerance="10"
   guidetolerance="10"
   inkscape:pageopacity="0"
   inkscape:pageshadow="2"
   inkscape:window-width="640"
   inkscape:window-height="480"
   id="namedview11"
   showgrid="false"
   inkscape:showpageshadow="false"
   inkscape:zoom="2.635"
   inkscape:cx="100"
   inkscape:cy="100"
   inkscape:current-layer="text821"
   inkscape:document-rotation="0" />

<g
   id="Guides"
   style="display:none"
   transform="translate(0,176)">
</g>
<g
   aria-label=""
   style="font-style:normal;font-weight:normal;font-size:203.10093689px;line-height:1.25;font-family:sans-serif;letter-spacing:0px;word-spacing:0px;fill:#000000;fill-opacity:1;stroke:none;stroke-width:5.07752323"
   id="text821"><g
     aria-label=""
     id="text835"
     style="font-size:189.858px;line-height:1.25;font-family:sans-serif;letter-spacing:0px;word-spacing:0px;stroke-width:24.1002"><path
       d="m 194.929,154.24514 c 0,-3.70817 -3.07248,-6.78065 -6.78064,-6.78065 H 11.851642 c -3.708164,0 -6.7806429,3.07248 -6.7806429,6.78065 v 13.56128 c 0,3.70817 3.0724789,6.78065 6.7806429,6.78065 H 188.14836 c 3.70816,0 6.78064,-3.07248 6.78064,-6.78065 z m -40.68386,-40.68386 c 0,-3.70816 -3.07248,-6.78064 -6.78064,-6.78064 H 11.851642 c -3.708164,0 -6.7806429,3.07248 -6.7806429,6.78064 v 13.56129 c 0,3.70816 3.0724789,6.78064 6.7806429,6.78064 H 147.4645 c 3.70816,0 6.78064,-3.07248 6.78064,-6.78064 z m 27.12258,-40.683857 c 0,-3.708164 -3.07248,-6.780643 -6.78065,-6.780643 H 11.851642 c -3.708164,0 -6.7806429,3.072479 -6.7806429,6.780643 v 13.561286 c 0,3.708164 3.0724789,6.780643 6.7806429,6.780643 H 174.58707 c 3.70817,0 6.78065,-3.072479 6.78065,-6.780643 z M 140.68386,32.193565 c 0,-3.708164 -3.07248,-6.780643 -6.78065,-6.780643 H 11.851642 c -3.708164,0 -6.7806429,3.072479 -6.7806429,6.780643 v 13.561286 c 0,3.708164 3.0724789,6.780643 6.7806429,6.780643 H 133.90321 c 3.70817,0 6.78065,-3.072479 6.78065,-6.780643 z"
       style="stroke-width:24.1002"
       id="path837" /></g></g>






</svg>
