<?xml version="1.0" encoding="UTF-8" standalone="no"?>
<svg
   width="181"
   height="48"
   version="1.1"
   id="svg8"
   sodipodi:docname="logo_netlify.svg"
   inkscape:version="1.2.2 (b0a8486541, 2022-12-01)"
   xmlns:inkscape="http://www.inkscape.org/namespaces/inkscape"
   xmlns:sodipodi="http://sodipodi.sourceforge.net/DTD/sodipodi-0.dtd"
   xmlns="http://www.w3.org/2000/svg"
   xmlns:svg="http://www.w3.org/2000/svg">
  <defs
     id="defs12" />
  <sodipodi:namedview
     id="namedview10"
     pagecolor="#ffffff"
     bordercolor="#999999"
     borderopacity="1"
     inkscape:showpageshadow="0"
     inkscape:pageopacity="0"
     inkscape:pagecheckerboard="0"
     inkscape:deskcolor="#d1d1d1"
     showgrid="false"
     inkscape:zoom="5.9"
     inkscape:cx="93.644068"
     inkscape:cy="20.084746"
     inkscape:window-width="1900"
     inkscape:window-height="1028"
     inkscape:window-x="9"
     inkscape:window-y="41"
     inkscape:window-maximized="1"
     inkscape:current-layer="g6" />
  <g
     fill="#0e1e25"
     fill-rule="evenodd"
     id="g6"
     transform="matrix(1.2085859,0,0,1.2085859,1.6680076,-0.34239513)"
     style="fill:#333333;fill-opacity:1">
    <path
       d="m 53.37,12.978 0.123,2.198 c 1.403,-1.7 3.245,-2.55 5.525,-2.55 3.951,0 5.962,2.268 6.032,6.804 V 31.998 H 60.79 V 19.676 c 0,-1.207 -0.26,-2.1 -0.78,-2.681 -0.52,-0.58 -1.371,-0.87 -2.552,-0.87 -1.719,0 -3,0.78 -3.84,2.338 v 13.535 h -4.262 v -19.02 h 4.016 z M 77.748,32.35 c -2.7,0 -4.89,-0.852 -6.567,-2.557 -1.678,-1.705 -2.517,-3.976 -2.517,-6.812 v -0.527 c 0,-1.898 0.365,-3.595 1.096,-5.089 0.73,-1.494 1.757,-2.657 3.078,-3.49 1.321,-0.831 2.794,-1.247 4.42,-1.247 2.583,0 4.58,0.826 5.988,2.478 1.41,1.653 2.114,3.99 2.114,7.014 v 1.723 h -12.4 c 0.13,1.57 0.652,2.812 1.57,3.726 0.918,0.914 2.073,1.371 3.464,1.371 1.952,0 3.542,-0.79 4.77,-2.373 l 2.297,2.198 c -0.76,1.136 -1.774,2.018 -3.042,2.645 -1.269,0.627 -2.692,0.94 -4.27,0.94 z M 77.24,16.056 c -1.17,0 -2.113,0.41 -2.832,1.23 -0.72,0.82 -1.178,1.963 -1.377,3.428 h 8.12 v -0.317 c -0.094,-1.43 -0.474,-2.51 -1.14,-3.243 -0.667,-0.732 -1.59,-1.098 -2.771,-1.098 z m 16.765,-7.7 v 4.623 h 3.35 v 3.164 h -3.35 V 26.76 c 0,0.726 0.144,1.25 0.43,1.573 0.286,0.322 0.798,0.483 1.535,0.483 a 6.55,6.55 0 0 0 1.49,-0.176 v 3.305 c -0.97,0.27 -1.905,0.404 -2.806,0.404 -3.273,0 -4.91,-1.81 -4.91,-5.431 V 16.142 H 86.62 v -3.164 h 3.122 V 8.355 h 4.261 z m 11.137,23.643 h -4.262 v -27 h 4.262 z m 9.172,0 h -4.262 v -19.02 h 4.262 z m -4.525,-23.96 c 0,-0.655 0.207,-1.2 0.622,-1.634 0.416,-0.433 1.009,-0.65 1.78,-0.65 0.772,0 1.368,0.217 1.79,0.65 0.42,0.434 0.63,0.979 0.63,1.635 0,0.644 -0.21,1.18 -0.63,1.608 -0.422,0.428 -1.018,0.642 -1.79,0.642 -0.771,0 -1.364,-0.214 -1.78,-0.642 -0.415,-0.427 -0.622,-0.964 -0.622,-1.608 z m 10.663,23.96 V 16.142 h -2.894 v -3.164 h 2.894 v -1.74 c 0,-2.11 0.584,-3.738 1.753,-4.887 1.17,-1.148 2.806,-1.722 4.91,-1.722 0.749,0 1.544,0.105 2.386,0.316 l -0.105,3.34 a 8.375,8.375 0 0 0 -1.631,-0.14 c -2.035,0 -3.052,1.048 -3.052,3.146 v 1.687 h 3.858 v 3.164 h -3.858 v 15.856 h -4.261 z m 17.87,-6.117 3.858,-12.903 h 4.542 l -7.54,21.903 c -1.158,3.199 -3.122,4.799 -5.893,4.799 -0.62,0 -1.304,-0.106 -2.052,-0.317 v -3.305 l 0.807,0.053 c 1.075,0 1.885,-0.196 2.429,-0.589 0.543,-0.392 0.973,-1.051 1.289,-1.977 l 0.613,-1.635 -6.664,-18.932 h 4.595 z"
       id="path2"
       style="fill:#333333;fill-opacity:1" />
    <path
       fill-rule="nonzero"
       d="M 27.887,14.135 27.873,14.129 C 27.865,14.126 27.857,14.123 27.85,14.116 a 0.11,0.11 0 0 1 -0.028,-0.093 l 0.773,-4.726 3.625,3.626 -3.77,1.604 a 0.083,0.083 0 0 1 -0.033,0.006 h -0.015 c -0.005,-0.003 -0.01,-0.007 -0.02,-0.017 a 1.716,1.716 0 0 0 -0.495,-0.381 z m 5.258,-0.288 3.876,3.876 c 0.805,0.806 1.208,1.208 1.355,1.674 0.022,0.069 0.04,0.138 0.054,0.209 l -9.263,-3.923 a 0.728,0.728 0 0 0 -0.015,-0.006 c -0.037,-0.015 -0.08,-0.032 -0.08,-0.07 0,-0.038 0.044,-0.056 0.081,-0.071 l 0.012,-0.005 z m 5.127,7.003 c -0.2,0.376 -0.59,0.766 -1.25,1.427 L 32.652,26.646 27,25.469 26.97,25.463 c -0.05,-0.008 -0.103,-0.017 -0.103,-0.062 a 1.706,1.706 0 0 0 -0.655,-1.193 c -0.023,-0.023 -0.017,-0.059 -0.01,-0.092 0,-0.005 0,-0.01 0.002,-0.014 l 1.063,-6.526 0.004,-0.022 c 0.006,-0.05 0.015,-0.108 0.06,-0.108 a 1.73,1.73 0 0 0 1.16,-0.665 c 0.009,-0.01 0.015,-0.021 0.027,-0.027 0.032,-0.015 0.07,0 0.103,0.014 l 9.65,4.082 z m -6.625,6.801 -7.186,7.186 1.23,-7.56 0.002,-0.01 c 10e-4,-0.01 0.003,-0.02 0.006,-0.029 0.01,-0.024 0.036,-0.034 0.061,-0.044 l 0.012,-0.005 a 1.85,1.85 0 0 0 0.695,-0.517 c 0.024,-0.028 0.053,-0.055 0.09,-0.06 a 0.09,0.09 0 0 1 0.029,0 l 5.06,1.04 z m -8.707,8.707 -0.81,0.81 -8.955,-12.942 a 0.424,0.424 0 0 0 -0.01,-0.014 c -0.014,-0.019 -0.029,-0.038 -0.026,-0.06 0,-0.016 0.011,-0.03 0.022,-0.042 l 0.01,-0.013 c 0.027,-0.04 0.05,-0.08 0.075,-0.123 l 0.02,-0.035 0.003,-0.003 c 0.014,-0.024 0.027,-0.047 0.051,-0.06 0.021,-0.01 0.05,-0.006 0.073,-0.001 l 9.921,2.046 a 0.164,0.164 0 0 1 0.076,0.033 c 0.013,0.013 0.016,0.027 0.019,0.043 a 1.757,1.757 0 0 0 1.028,1.175 c 0.028,0.014 0.016,0.045 0.003,0.078 a 0.238,0.238 0 0 0 -0.015,0.045 c -0.125,0.76 -1.197,7.298 -1.485,9.063 z m -1.692,1.691 c -0.597,0.591 -0.949,0.904 -1.347,1.03 a 2,2 0 0 1 -1.206,0 c -0.466,-0.148 -0.869,-0.55 -1.674,-1.356 L 8.028,28.73 10.377,25.087 c 0.011,-0.018 0.022,-0.034 0.04,-0.047 0.025,-0.018 0.061,-0.01 0.091,0 a 2.434,2.434 0 0 0 1.638,-0.083 c 0.027,-0.01 0.054,-0.017 0.075,0.002 a 0.19,0.19 0 0 1 0.028,0.032 z M 7.16,27.863 5.098,25.8 9.172,24.062 a 0.084,0.084 0 0 1 0.033,-0.007 c 0.034,0 0.054,0.034 0.072,0.065 a 2.91,2.91 0 0 0 0.13,0.184 L 9.42,24.32 c 0.012,0.017 0.004,0.034 -0.008,0.05 l -2.25,3.493 z M 4.184,24.887 1.574,22.277 C 1.13,21.833 0.808,21.511 0.584,21.234 L 8.52,22.88 a 0.84,0.84 0 0 0 0.03,0.005 c 0.049,0.008 0.103,0.017 0.103,0.063 0,0.05 -0.059,0.073 -0.109,0.092 L 8.521,23.05 Z M 0.13,19.892 a 2,2 0 0 1 0.09,-0.495 c 0.148,-0.466 0.55,-0.868 1.356,-1.674 l 3.34,-3.34 a 2175.525,2175.525 0 0 0 4.626,6.687 c 0.027,0.036 0.057,0.076 0.026,0.106 -0.146,0.161 -0.292,0.337 -0.395,0.528 a 0.16,0.16 0 0 1 -0.05,0.062 C 9.11,21.774 9.096,21.771 9.081,21.768 H 9.079 L 0.129,19.891 Z M 5.81,13.489 10.3,8.998 c 0.423,0.185 1.96,0.834 3.333,1.414 1.04,0.44 1.988,0.84 2.286,0.97 0.03,0.012 0.057,0.024 0.07,0.054 0.008,0.018 0.004,0.041 0,0.06 a 2.003,2.003 0 0 0 0.523,1.828 c 0.03,0.03 0,0.073 -0.026,0.11 l -0.014,0.021 -4.56,7.063 c -0.012,0.02 -0.023,0.037 -0.043,0.05 -0.024,0.015 -0.058,0.008 -0.086,10e-4 A 2.274,2.274 0 0 0 11.24,20.495 c -0.164,0 -0.342,0.03 -0.522,0.063 h -10e-4 c -0.02,0.003 -0.038,0.007 -0.054,-0.005 A 0.21,0.21 0 0 1 10.618,20.502 Z M 11.208,8.091 17.022,2.277 C 17.827,1.472 18.23,1.069 18.696,0.922 a 2,2 0 0 1 1.206,0 c 0.466,0.147 0.869,0.55 1.674,1.355 l 1.26,1.26 L 18.7,9.94 a 0.155,0.155 0 0 1 -0.041,0.048 c -0.025,0.017 -0.06,0.01 -0.09,0 a 2.097,2.097 0 0 0 -1.92,0.37 c -0.027,0.028 -0.067,0.012 -0.101,-0.003 -0.54,-0.235 -4.74,-2.01 -5.341,-2.265 z m 12.506,-3.676 3.818,3.818 -0.92,5.698 v 0.015 a 0.135,0.135 0 0 1 -0.008,0.038 c -0.01,0.02 -0.03,0.024 -0.05,0.03 a 1.83,1.83 0 0 0 -0.548,0.273 0.154,0.154 0 0 0 -0.02,0.017 c -0.011,0.012 -0.022,0.023 -0.04,0.025 A 0.114,0.114 0 0 1 25.903,14.322 L 20.085,11.85 20.074,11.845 C 20.037,11.83 19.993,11.812 19.993,11.774 a 2.198,2.198 0 0 0 -0.31,-0.915 c -0.028,-0.046 -0.059,-0.094 -0.035,-0.141 z m -3.934,8.605 5.454,2.31 c 0.03,0.014 0.063,0.027 0.076,0.058 a 0.106,0.106 0 0 1 0,0.057 c -0.016,0.08 -0.03,0.171 -0.03,0.263 v 0.153 c 0,0.038 -0.039,0.054 -0.075,0.069 l -0.011,0.004 c -0.864,0.369 -12.13,5.173 -12.147,5.173 -0.017,0 -0.035,0 -0.052,-0.017 -0.03,-0.03 0,-0.072 0.027,-0.11 a 0.76,0.76 0 0 0 0.014,-0.02 l 4.482,-6.94 0.008,-0.012 c 0.026,-0.042 0.056,-0.089 0.104,-0.089 l 0.045,0.007 c 0.102,0.014 0.192,0.027 0.283,0.027 0.68,0 1.31,-0.331 1.69,-0.897 a 0.16,0.16 0 0 1 0.034,-0.04 c 0.027,-0.02 0.067,-0.01 0.098,0.004 z m -6.246,9.185 12.28,-5.237 c 0,0 0.018,0 0.035,0.017 0.067,0.067 0.124,0.112 0.179,0.154 l 0.027,0.017 c 0.025,0.014 0.05,0.03 0.052,0.056 0,0.01 0,0.016 -0.002,0.025 L 25.054,23.7 25.05,23.726 c -0.007,0.05 -0.014,0.107 -0.061,0.107 a 1.729,1.729 0 0 0 -1.373,0.847 l -0.005,0.008 c -0.014,0.023 -0.027,0.045 -0.05,0.057 -0.021,0.01 -0.048,0.006 -0.07,10e-4 l -9.793,-2.02 c -0.01,-0.002 -0.152,-0.519 -0.163,-0.52 z"
       id="path4"
       style="fill:#333333;fill-opacity:1" />
  </g>
</svg>
