<?xml version="1.0" encoding="UTF-8" standalone="no"?>
<!-- Created with Inkscape (http://www.inkscape.org/) -->

<svg
   xmlns:dc="http://purl.org/dc/elements/1.1/"
   xmlns:cc="http://creativecommons.org/ns#"
   xmlns:rdf="http://www.w3.org/1999/02/22-rdf-syntax-ns#"
   xmlns:svg="http://www.w3.org/2000/svg"
   xmlns="http://www.w3.org/2000/svg"
   xmlns:sodipodi="http://sodipodi.sourceforge.net/DTD/sodipodi-0.dtd"
   xmlns:inkscape="http://www.inkscape.org/namespaces/inkscape"
   width="200"
   height="200"
   viewBox="0 0 52.916665 52.916668"
   version="1.1"
   id="svg8"
   inkscape:version="0.92.2 2405546, 2018-03-11"
   sodipodi:docname="logo_cal.svg">
  <defs
     id="defs2" />
  <sodipodi:namedview
     id="base"
     pagecolor="#ffffff"
     bordercolor="#666666"
     borderopacity="1.0"
     inkscape:pageopacity="0.0"
     inkscape:pageshadow="2"
     inkscape:zoom="2.815"
     inkscape:cx="100"
     inkscape:cy="100"
     inkscape:document-units="mm"
     inkscape:current-layer="layer1"
     showgrid="false"
     units="px"
     inkscape:showpageshadow="false" />
  <metadata
     id="metadata5">
    <rdf:RDF>
      <cc:Work
         rdf:about="">
        <dc:format>image/svg+xml</dc:format>
        <dc:type
           rdf:resource="http://purl.org/dc/dcmitype/StillImage" />
        <dc:title />
      </cc:Work>
    </rdf:RDF>
  </metadata>
  <g
     inkscape:label="Layer 1"
     inkscape:groupmode="layer"
     id="layer1"
     transform="translate(0,-244.08332)">
    <path
       style="fill:#000000;stroke-width:0.26503295"
       d="M 5.1627278,295.98981 C 4.7462031,295.8649 4.167486,295.54756 3.8766874,295.28436 2.5745273,294.10593 2.6070706,294.64991 2.6081258,274.07897 c 9.548e-4,-18.63739 0.018467,-19.32306 0.5158837,-20.13875 0.7612112,-1.2484 1.4688771,-1.52681 4.2537171,-1.67337 l 2.5178144,-0.13241 0.135793,-2.25596 c 0.107968,-1.79373 0.261883,-2.43302 0.751163,-3.12014 0.939114,-1.31888 2.341306,-1.91233 4.518396,-1.91233 2.134246,0 3.038511,0.2811 4.102204,1.27579 1.095927,1.02467 1.491298,2.16116 1.491298,4.28677 v 1.86914 l 5.499433,-0.0717 5.499437,-0.0717 0.135792,-2.25596 c 0.109246,-1.81471 0.259628,-2.42987 0.768876,-3.14502 0.886276,-1.24468 2.418578,-1.87452 4.577497,-1.88164 2.055541,-0.006 2.967705,0.28111 4.025389,1.26998 1.095289,1.02408 1.491299,2.16097 1.491299,4.28139 v 1.86375 h 2.497477 c 2.327395,0 2.555467,0.0489 3.348951,0.71646 1.626287,1.36841 1.575043,0.67572 1.568673,21.20651 -0.0056,18.00756 -0.02661,18.80509 -0.521115,19.89491 -0.393383,0.86676 -0.783901,1.25726 -1.650635,1.65065 -1.094293,0.49665 -1.877969,0.51469 -21.675394,0.49834 -11.297029,-0.009 -20.8808465,-0.11895 -21.2973723,-0.24385 z m 9.3708882,-7.54596 v -4.108 h -4.10801 -4.1080092 v 4.108 4.108 h 4.1080092 4.10801 z m 10.866351,0 v -4.108 h -4.505559 -4.50556 v 4.108 4.108 h 4.50556 4.505559 z m 11.131384,0 v -4.108 h -4.638074 -4.638079 v 4.108 4.108 h 4.638079 4.638074 z m 10.071252,0 v -4.108 h -4.10801 -4.10801 v 4.108 4.108 h 4.10801 4.10801 z M 14.533616,277.84252 v -4.63806 h -4.10801 -4.1080092 v 4.63806 4.63809 h 4.1080092 4.10801 z m 10.866351,0 v -4.63806 h -4.505559 -4.50556 v 4.63806 4.63809 h 4.50556 4.505559 z m 11.131384,0 v -4.63806 h -4.638074 -4.638079 v 4.63806 4.63809 h 4.638079 4.638074 z m 10.071252,0 v -4.63806 h -4.10801 -4.10801 v 4.63806 4.63809 h 4.10801 4.10801 z M 14.533616,267.24123 v -4.10805 h -4.10801 -4.1080092 v 4.10805 4.10799 h 4.1080092 4.10801 z m 10.866351,0 v -4.10805 h -4.505559 -4.50556 v 4.10805 4.10799 h 4.50556 4.505559 z m 11.131384,0 v -4.10805 h -4.638074 -4.638079 v 4.10805 4.10799 h 4.638079 4.638074 z m 10.071252,0 v -4.10805 h -4.10801 -4.10801 v 4.10805 4.10799 h 4.10801 4.10801 z m -29.709747,-8.97974 c 0.209293,-0.25231 0.281259,-1.79918 0.231236,-4.96938 l -0.07266,-4.60321 -1.412938,-0.0807 c -2.158678,-0.12365 -2.165008,-0.10952 -2.165008,4.76881 0,2.40589 0.118139,4.44625 0.274372,4.73812 0.213268,0.39849 0.560147,0.51266 1.557746,0.51266 0.768551,0 1.40529,-0.14682 1.587268,-0.36616 z m 21.997736,0 c 0.209292,-0.25231 0.281258,-1.79918 0.231236,-4.96938 l -0.07266,-4.60321 -1.412937,-0.0807 c -2.158679,-0.12365 -2.165008,-0.10952 -2.165008,4.76881 0,2.40589 0.118138,4.44625 0.274372,4.73812 0.213267,0.39849 0.560146,0.51266 1.557745,0.51266 0.768548,0 1.40529,-0.14682 1.587268,-0.36616 z"
       id="path971"
       inkscape:connector-curvature="0" />
  </g>
</svg>
