<?xml version="1.0" encoding="UTF-8" standalone="no"?>
<!-- Generator: Adobe Illustrator 22.0.1, SVG Export Plug-In . SVG Version: 6.00 Build 0)  -->

<svg
   xmlns:dc="http://purl.org/dc/elements/1.1/"
   xmlns:cc="http://creativecommons.org/ns#"
   xmlns:rdf="http://www.w3.org/1999/02/22-rdf-syntax-ns#"
   xmlns:svg="http://www.w3.org/2000/svg"
   xmlns="http://www.w3.org/2000/svg"
   xmlns:sodipodi="http://sodipodi.sourceforge.net/DTD/sodipodi-0.dtd"
   xmlns:inkscape="http://www.inkscape.org/namespaces/inkscape"
   version="1.1"
   id="Layer_1"
   x="0px"
   y="0px"
   viewBox="0 0 853.2 347.5"
   style="enable-background:new 0 0 853.2 347.5;"
   xml:space="preserve"
   sodipodi:docname="src_logo_gitlab.svg"
   inkscape:version="0.92.4 5da689c313, 2019-01-14"><metadata
   id="metadata21"><rdf:RDF><cc:Work
       rdf:about=""><dc:format>image/svg+xml</dc:format><dc:type
         rdf:resource="http://purl.org/dc/dcmitype/StillImage" /><dc:title /></cc:Work></rdf:RDF></metadata><defs
   id="defs19" /><sodipodi:namedview
   pagecolor="#ffffff"
   bordercolor="#666666"
   borderopacity="1"
   objecttolerance="10"
   gridtolerance="10"
   guidetolerance="10"
   inkscape:pageopacity="0"
   inkscape:pageshadow="2"
   inkscape:window-width="640"
   inkscape:window-height="480"
   id="namedview17"
   showgrid="false"
   inkscape:zoom="0.53914675"
   inkscape:cx="168.13882"
   inkscape:cy="314.4638"
   inkscape:current-layer="g840" />
<style
   type="text/css"
   id="style2">
	.st0{fill:#69747C;}
	.st1{display:none;}
	.st2{display:inline;}
	.st3{fill:#CC0000;}
</style>

<g
   id="logo-black-red"
   class="st1">
	<g
   id="test-tube_2_"
   class="st2">
		<path
   id="tube_2_"
   d="M698.1,345.5L698.1,345.5c-5,0-9.9-0.9-14.6-2.7c-19.7-7.5-30.1-28.9-24.7-48.7l-0.2-0.1l1.3-3.4L760,30.6    c1.5-3.8,0.8-13,0.1-18.1c-0.2-1.2-0.2-2.3,0.1-3.4l0.1-0.2c0.1-0.2,0.1-0.4,0.2-0.6C762.1,4.1,767,2,775,2c9.6,0,22.9,3,36.5,8.2    c11.4,4.4,21.8,9.9,29.1,15.4c8.6,6.5,12,12.3,10.1,17.3c-0.1,0.2-0.2,0.4-0.3,0.6l-0.1,0.2c-0.5,1-1.2,1.8-2.1,2.5    c-4.4,3.9-10.9,10.5-12,13.5L734.9,323.2l-0.2-0.1C727.6,336.8,713.6,345.5,698.1,345.5z M666.8,292.2l-0.3,0.7    c-6.4,17.2,2.3,36.6,19.5,43.2c3.9,1.5,7.9,2.2,12,2.2c13.9,0,26.2-8.3,31.3-21.3l0.4-0.9l99.6-258.9c2.1-5.6,12-14.5,14-16.3    l0.2-0.2c0.2-0.1,0.3-0.2,0.3-0.3l0.1-0.1c0.1-0.7-0.8-3.8-7.8-9.2c-6.7-5.1-16.4-10.2-27.3-14.4c-12.6-4.9-25.4-7.8-34-7.8    c-5.7,0-7.6,1.2-7.9,1.8v0.1c0,0.1,0,0.2,0,0.4v0.1c0.2,1.5,2.1,14.8-0.5,21.7L666.8,292.2z" />
		<path
   id="liquid_2_"
   class="st3"
   d="M794.9,127.6c0,0-13.8,15.9-26.4,21.6c-12.5,5.6-21.9,4.2-33.2,10.8s-17,15.8-17,15.8    l-46,119.7c-5,13.5,2.4,29.3,16.1,34.6c13.7,5.3,29.2-1.7,34.5-15.1l0,0L794.9,127.6z M748.5,196.7c2.2-1,4.8,0,5.7,2.2    c1,2.2,0,4.8-2.2,5.7c-2.2,1-4.8,0-5.7-2.2C745.3,200.2,746.3,197.6,748.5,196.7z M730.1,177c1.5-0.6,3.2,0,3.8,1.5s0,3.2-1.5,3.8    s-3.2,0-3.8-1.5S728.7,177.6,730.1,177z M709.8,244.7c-2.2,1-4.8,0-5.7-2.2c-1-2.2,0-4.8,2.2-5.7c2.2-1,4.8,0,5.7,2.2    C713,241.2,712,243.7,709.8,244.7z M713.8,229c-1.8-4.1,0-8.9,4.1-10.8c4.1-1.8,8.9,0,10.8,4.1c1.8,4.1,0,8.9-4.1,10.8    C720.4,234.9,715.6,233.1,713.8,229z M724.3,270.5c1.5-0.6,3.2,0,3.8,1.5s0,3.2-1.5,3.8c-1.5,0.6-3.2,0-3.8-1.5    C722.2,272.9,722.8,271.2,724.3,270.5z" />
		
			<ellipse
   id="top_2_"
   transform="matrix(0.359 -0.9333 0.9333 0.359 489.0185 768.7965)"
   cx="804.2"
   cy="28.4"
   rx="7.3"
   ry="27.8" />
	</g>
	<path
   id="jekyll-text_1_"
   class="st2"
   d="M194.9,160.8c4.4,3.5,12.4,1.5,17.8-4.4c5.6-6.2,6.5-14.1,2.1-17.7   c-4.4-3.5-12.4-1.5-17.8,4.7C191.3,149.6,190.4,157.2,194.9,160.8z M181.9,172.3c-1.2,0-3.2,2.1-1.5,2.9c2.4,0.9,3.5,2.9,3.5,5.9   c-2.1,12.1-17.1,26-23.1,30.7c-1.5,1.5,0.6,4.7,2.1,3.5c3.2-2.6,10-7.9,15.6-15c-9.1,20.4-26.9,46.6-33.7,55.8   c-26.6,36.9-67,70.8-94.8,70.8c-22.2,0-41-15-45.1-37.2c-0.3-2.4-3.5-2.9-2.9,0.3c5,30.4,28.4,42.1,56.7,42.1   c31,0,67.4-22.5,87.4-45.4c32.4-37.2,53.5-79.9,47.8-104.1C191.6,173.5,185.4,172,181.9,172.3z M381.1,253.1   c8.5-2.1,15.6-6.8,15.6-14.2c0-0.7-1.5-0.7-1.5,0c0,4.4-5,8-10.6,8.9c-13.2,2.1-39.5-13.5-51.9-29.5c13.2,5,40.4-2.3,53.2-11.4   c11.8-8.5,16.5-18,17.5-25.7c1.5-12.6-12.4-20.1-31.6-12.6c-12.4,5-27.2,15.9-42.5,36.3c16.2-26.9,48.1-70.5,79.4-98.5   c38.1-33.9,60.2-27.4,26,8.5c-14.1,14.7-40.7,33.9-59.1,42.2c-5.6,2.4-2.9,5.6,1.2,3.8c19.5-8.5,45.4-26.3,61.1-41   c46.3-44.5,7.7-78.1-43.7-31c-34.8,32.2-57.6,65.8-77.3,109.4c-6.8,8.2-11.8,15-18.1,20.4c-0.7,0.6-1.3,1.3-1.8,1.9   c-17,14.6-43.8,34.3-60.5,34.6c-11.8,0.3-16.8-8.5-14.7-20.1c3.2-18,21.9-39.2,37.8-46.6c20.7-9.4,32.8,8.8,5.6,23.6   c-10.3,5.3-22.8,8.2-27.8,8.2c-5.9,0-5.3,2.4-0.3,2.6c8.2,0.3,21.6-3.2,30.4-7.4c27.8-13.2,29.5-38-0.6-38.9   c-32.8-1.2-72,26.9-71.7,62c0.3,15.9,13,24.5,30.4,24.5c29-0.3,54.9-22.4,76-41.7c3-2.5,6-5.3,8.9-8.2   c-7.4,18.9-11.2,36.3-9.4,49.2c1.2,9.4,6.5,13.8,10.6,17.3c0.9,0.6,2.6,0,1.5-1.8c-6.2-7.4-4.4-29.3,4.1-50.4   C324.4,241.7,352.1,259.6,381.1,253.1z M346.3,191.6c33.9-30.4,47.2-3.2,25.7,13.2c-11.2,8.5-33.4,15-40.4,10.9l-1.5-0.9   c-0.9-1.5-1.8-2.9-2.4-4.4C333.2,203.7,339.7,197.6,346.3,191.6z M534.6,157.2c13.5,1.5,7.9-15-5.9-10.9   c-6.2,1.8-12.1,13.5-16.5,23.9c-13.5,20.4-36.3,48-52.3,62.5c-14.1,12.1-27.2,15.3-11.2-7.4c6.5-9.1,14.7-18.9,19.5-28.6   c11.2-24.5-12.7-35.4-31.9-20.7c-11.2,8.5-26.3,26.3-38.1,36c-3.2,2.6-2.4,6.5,0.9,3.8c9.4-7.6,26-25.1,40.1-35.4   c11.8-9.1,16.5-3.2,9.7,4.4c-9.4,10.9-26,29.8-30.1,41.9c-5.9,18,1.2,26,12.9,26c16.2,0,40.4-25.4,56.7-45.4   c5.3-6.8,11.2-14.7,16.2-22.4c-14.1,27.4-28.9,55.2-47.2,80.2c-26,35.4-58.5,62-89.2,62c-22.2,0-41.3-15-45.4-37.2   c-0.3-2.4-3.2-2.9-2.9,0.3c5,30.4,28.4,42.1,56.7,42.1c31,0,60.8-18,81.7-40.1c42.2-44.5,47.2-94.7,60.2-122.7   C524.6,157.2,530.2,156.6,534.6,157.2z M706.2,114.2c6.2-10.6,5.9-18.9-8.5-18.9c-10.9,0.3-30.7,7.9-39.8,15   c-2.1,2.1-1.2,3.2,1.5,2.1c1.8-0.6,3.8-1.8,5.9-2.6c10.3-5.6,6.2,6.2,3.8,10.6c-12.4,21.6-34.2,51.9-45.7,67   c-5.5,7.4-11.7,14.8-17.8,21.1c-11.1,10.5-33,29.2-49.5,35.4c-53.8,20.1,14.7-71.4,20.4-78.7c12.7-15.9,41-43.6,49.5-57.5   c6.2-10.6,5.9-18.9-8.5-18.9c-10.9,0.3-30.7,7.9-39.8,15c-2.1,2.1-1.2,3.2,1.5,2.1c1.8-0.6,3.8-1.8,5.9-2.6   c10.3-5.6,6.2,6.2,3.8,10.6c-12.4,21.6-34.2,51.9-45.7,67c-9.4,12.6-21,25.4-29.8,32.4c-3.5,2.9-1.5,5.6,2.1,3.2   c3.2-2.1,7.9-6.8,13.2-12.4c-9.7,19.5-17.8,46.9,7.9,50.1c21.9,3,47.9-19.4,64.7-35.9c1.8-1.8,3.9-3.8,6-6c0.5-0.5,1-1,1.5-1.5   c-9.7,19.5-17.7,46.8,8,50c28.1,3.8,62.9-33.9,76.4-47.7c2.6-2.6,1.8-7.1-2.6-2.6c-7.9,8.2-34.8,32.7-54.4,40.1   c-53.8,20.1,14.7-71.4,20.4-78.7C669.3,155.8,697.7,128.2,706.2,114.2z" />
</g>
<g
   id="g840"><g
     transform="matrix(5.7481205,0,0,5.7481205,-4097.2585,-2208.3447)"
     id="g850"><path
       sodipodi:nodetypes="cssccccccccccccccccccccccccccccccccccccsccccsccccccccccccccccccscccccccccccccccccccccsccccscccccccccccscccscccccccccccccccccccccccccccccccccccccccscccccscc"
       inkscape:connector-curvature="0"
       id="path862"
       d="m 826.9954,426.58462 c -2.8476,-0.28829 -4.4813,-1.99301 -4.68238,-4.88593 -0.15284,-2.19891 0.67778,-4.03789 2.28949,-5.06889 1.50969,-0.96574 4.22034,-1.45597 6.91212,-1.25007 0.87012,0.0665 1.08216,0.0645 1.1349,-0.0112 0.0908,-0.13029 0.006,-1.72786 -0.11615,-2.1801 -0.32947,-1.22248 -1.09433,-1.92456 -2.39947,-2.20251 -0.40093,-0.0854 -0.77309,-0.10467 -1.49705,-0.0776 -1.47368,0.0552 -2.52894,0.33186 -3.90852,1.02475 -0.90345,0.45374 -0.76321,0.52147 -1.44994,-0.70031 l -0.44765,-0.79644 0.20891,-0.17114 c 1.1579,-0.94855 2.83586,-1.70974 4.47224,-2.02878 0.94055,-0.18337 2.67361,-0.21901 3.55086,-0.073 0.73467,0.12227 1.72679,0.46554 2.24485,0.77673 0.91164,0.5476 1.71391,1.59655 2.06166,2.69559 0.32977,1.04226 0.33547,1.18771 0.31586,8.0646 l -0.0185,6.49449 -1.00668,0.0197 c -0.7643,0.015 -1.02544,-0.003 -1.08458,-0.0741 -0.0428,-0.0516 -0.18682,-0.5084 -0.31995,-1.01505 -0.13313,-0.50666 -0.2721,-0.93121 -0.30883,-0.94345 -0.0367,-0.0122 -0.19447,0.15725 -0.35053,0.37666 -0.76404,1.07424 -2.29671,1.84487 -4.03055,2.02659 -0.74426,0.078 -0.79368,0.078 -1.5701,-6.5e-4 z m 2.91075,-2.96546 c 0.30228,-0.0624 0.73532,-0.18899 0.96232,-0.28122 0.49718,-0.20203 1.28529,-0.71725 1.60553,-1.0496 l 0.23304,-0.24187 -0.0189,-2.09572 -0.0189,-2.09572 -0.2141,-0.0614 c -0.39506,-0.11334 -2.60809,-0.15331 -3.35958,-0.0607 -2.05957,0.25385 -3.19365,1.06787 -3.50077,2.51277 -0.29407,1.38346 0.21726,2.61086 1.2928,3.10326 0.82187,0.37626 1.99625,0.48138 3.01864,0.2702 z m -55.01456,2.85906 c -2.30312,-0.35906 -4.17287,-1.26937 -5.638,-2.74494 -2.15166,-2.16699 -3.16319,-5.35536 -3.04303,-9.59165 0.0435,-1.53506 0.18925,-2.61443 0.51649,-3.82615 1.25212,-4.63634 4.69277,-7.37001 9.70086,-7.70753 2.26511,-0.15266 4.24012,0.2238 6.04918,1.15305 0.68629,0.35253 1.84019,1.14065 1.84019,1.25687 0,0.0878 -1.22241,2.18788 -1.30342,2.23924 -0.04,0.0254 -0.28213,-0.0972 -0.53802,-0.27239 -1.40155,-0.95953 -3.1513,-1.45126 -5.16178,-1.45061 -4.24785,10e-4 -6.90692,2.3623 -7.67602,6.81537 -0.17362,1.00528 -0.17362,3.70501 0,4.71029 0.51131,2.96045 1.81475,4.89977 3.97403,5.91274 1.29718,0.60854 2.84775,0.84827 4.52575,0.69971 0.98801,-0.0875 1.87865,-0.2767 2.32107,-0.49313 l 0.25431,-0.1244 0.0172,-1.39168 c 0.009,-0.76542 -0.007,-2.30697 -0.0357,-3.42567 l -0.0529,-2.03399 -2.67631,-0.0357 -2.6763,-0.0357 v -1.39167 -1.39168 l 4.22856,-0.0184 4.22856,-0.0184 v 1.91575 c 0,1.05367 0.0213,3.74683 0.0472,5.98482 l 0.0472,4.06908 -0.56467,0.2156 c -1.1946,0.45612 -2.91545,0.85907 -4.34718,1.01792 -0.89847,0.0997 -3.30261,0.0778 -4.0374,-0.0368 z m 25.87244,0.009 c -1.37884,-0.26157 -2.24385,-0.6803 -3.03212,-1.46781 -0.89063,-0.88976 -1.33341,-1.98874 -1.49603,-3.71319 -0.0521,-0.55285 -0.0706,-3.67429 -0.0566,-9.56332 l 0.0208,-8.74259 1.43526,-0.0193 c 1.13996,-0.0153 1.45181,6.4e-4 1.51569,0.0776 0.0557,0.0671 0.0862,0.9079 0.0991,2.73128 l 0.0187,2.63438 2.49788,0.0357 2.49788,0.0357 v 1.24894 1.24894 l -2.49788,0.0357 -2.49788,0.0357 -0.0198,4.81735 c -0.0137,3.33322 0.005,4.96729 0.0608,5.30406 0.10595,0.6397 0.48193,1.3806 0.89283,1.75935 0.69796,0.64336 1.62392,0.89201 3.11629,0.83681 l 0.98131,-0.0363 v 1.34163 c 0,1.20954 -0.0123,1.34697 -0.1249,1.3958 -0.23658,0.10259 -2.8749,0.10538 -3.41142,0.004 z m 43.07424,0.053 c -0.57706,-0.0564 -1.42923,-0.17968 -1.96263,-0.28384 -0.63815,-0.12461 -1.87876,-0.50206 -2.01637,-0.61347 -0.0711,-0.0576 -0.0857,-2.38326 -0.0714,-11.35749 l 0.0181,-11.28507 1.42224,-0.0194 c 0.78223,-0.0107 1.44586,0.005 1.47474,0.0357 0.0289,0.0303 0.0757,1.55648 0.10415,3.39153 0.0387,2.49975 0.0729,3.33646 0.13645,3.33646 0.0466,0 0.16264,-0.0839 0.25781,-0.18637 0.21666,-0.23339 0.84631,-0.66523 1.3149,-0.90183 1.2637,-0.63805 3.00163,-0.76351 4.6383,-0.33482 2.61122,0.68394 4.35194,2.81059 4.93264,6.02626 0.1599,0.88546 0.1828,3.42683 0.04,4.46051 -0.617,4.47173 -2.78484,6.99401 -6.56709,7.64062 -0.62859,0.10746 -1.10843,0.13594 -2.1412,0.12708 -0.73208,-0.006 -1.44346,-0.0224 -1.58084,-0.0359 z m 3.40022,-2.8817 c 1.90903,-0.48725 3.09335,-1.96632 3.55738,-4.44267 0.28145,-1.50202 0.25287,-3.74873 -0.0635,-4.99207 -0.50442,-1.98227 -1.65137,-2.97643 -3.57505,-3.09878 -1.26814,-0.0807 -2.55625,0.28092 -3.67588,1.03182 l -0.60663,0.40685 -0.0183,5.39729 -0.0183,5.39729 0.19671,0.0792 c 1.04906,0.42236 3.01076,0.52553 4.20356,0.22108 z m -58.76429,-6.33103 0.0181,-8.8318 h 1.46304 1.46305 l 0.0181,8.8318 0.0181,8.8318 h -1.49929 -1.49928 z m 19.62628,-2.74728 0.0181,-11.57986 h 1.49873 1.49873 l 0.0714,10.13426 0.0714,10.13427 4.71029,0.0357 4.71029,0.0357 v 1.39168 1.39168 l -6.29844,0.0182 -6.29845,0.0182 z m -19.59627,-8.5943 c -0.0262,-0.0262 -0.0476,-0.7006 -0.0476,-1.49873 v -1.45115 h 1.49873 1.49873 v 1.49873 1.49873 h -1.45115 c -0.79813,0 -1.47256,-0.0214 -1.49873,-0.0476 z"
       style="fill:#333333;fill-opacity:1;stroke-width:0.07136808" /></g><g
     id="g832"
     inkscape:export-xdpi="96"
     inkscape:export-ydpi="96"><path
       sodipodi:nodetypes="ccccscsscsccsccscsccccc"
       style="fill:#7c7c7c;fill-opacity:1;stroke-width:0.34997365"
       d="M 100.62061,240.78128 C 69.34174,218.04821 43.302397,199.02963 42.755432,198.51781 c -1.71731,-1.60701 -2.480776,-3.46521 -2.467336,-6.00522 0.0098,-1.98534 0.859481,-4.8802 6.671493,-22.74831 3.662682,-11.26041 12.534121,-38.66334 19.714246,-60.89538 7.180115,-22.232094 13.269733,-40.852399 13.532476,-41.378475 1.071575,-2.145744 4.575524,-2.722041 6.419545,-1.055827 0.965752,0.872626 2.291093,4.732737 14.208864,41.383962 7.22906,22.23185 13.3073,40.61858 13.50717,40.8594 0.28737,0.34621 9.4416,0.43791 43.72479,0.43791 h 43.36136 l 0.33689,-0.78744 c 0.18537,-0.43301 6.10688,-18.58363 13.15936,-40.33447 7.05247,-21.750875 13.04229,-39.977459 13.31073,-40.503535 1.09589,-2.147756 4.59224,-2.722774 6.42023,-1.055827 0.95285,0.868853 2.33145,4.907746 14.18552,41.559362 7.22155,22.32831 16.19837,50.08063 19.94849,61.6718 4.63721,14.33298 6.81842,21.56817 6.81842,22.6168 0,2.11471 -0.86121,4.37358 -2.20219,5.77616 -0.61739,0.64578 -4.82351,3.86669 -9.34691,7.15757 -60.61297,44.09756 -105.59862,76.66948 -106.03015,76.77124 -0.2957,0.0697 -26.10338,-18.45486 -57.40756,-41.20625 z"
       id="path908"
       inkscape:connector-curvature="0" /><path
       style="fill:#545454;fill-opacity:1;stroke-width:0.34997365"
       d="M 105.53121,215.58832 53.626139,149.04261 66.677357,108.74473 c 7.178212,-22.163778 13.266212,-40.728229 13.528955,-41.254305 1.071575,-2.145744 4.575523,-2.722041 6.419545,-1.055827 0.965752,0.872626 2.291092,4.732737 14.208863,41.383962 7.22906,22.23185 13.3073,40.61858 13.50717,40.8594 0.28737,0.34621 9.4416,0.43791 43.72479,0.43791 h 43.36136 l 0.33689,-0.78744 c 0.18537,-0.43301 6.10688,-18.58363 13.15936,-40.33447 7.05247,-21.750875 13.04229,-39.977459 13.31073,-40.503535 1.09589,-2.147756 4.59229,-2.722774 6.42013,-1.055827 0.95158,0.867771 2.34538,4.936685 14.17596,41.384352 7.21631,22.23209 13.12218,40.6637 13.12409,40.95915 0.005,0.71841 -103.33057,133.12439 -103.99734,133.25434 -0.33345,0.0648 -19.23813,-23.89457 -52.42639,-66.44412 z"
       id="path912"
       inkscape:connector-curvature="0" /><path
       style="fill:#333333;fill-opacity:1;stroke-width:0.34997365"
       d="m 157.40295,280.79345 c -1.03092,-2.61539 -42.6635,-131.21192 -42.54508,-131.41512 0.22067,-0.37907 85.77272,-0.32906 86.00707,0.05 0.10641,0.17212 -9.41247,29.87091 -21.15271,65.99777 -11.7403,36.1269 -21.34593,65.7515 -21.34593,65.83246 0,0.42614 -0.75602,0.0608 -0.96335,-0.46537 z M 54.074149,148.44249 c 0,-0.49926 25.866872,-80.158336 26.279085,-80.92853 0.477627,-0.892039 2.383966,-2.038837 3.392382,-2.04051 1.247722,-0.0022 3.12906,0.913431 3.569907,1.737171 0.286377,0.535197 24.054627,73.236289 26.405497,80.767819 l 0.24569,0.78745 H 84.02038 c -18.091682,0 -29.946329,-0.12799 -29.946329,-0.32366 z M 202.113,148.31155 c 0,-0.44329 24.6655,-76.703565 25.72932,-79.549376 0.29521,-0.78907 0.90348,-1.779583 1.35222,-2.201214 1.82029,-1.709993 5.23901,-1.097605 6.28361,1.125614 0.72267,1.53808 26.13035,79.833416 26.13035,80.522296 0,0.50504 -2.7773,0.55707 -29.74777,0.55707 -24.15521,0 -29.74773,-0.0853 -29.74773,-0.45458 z"
       id="path914"
       inkscape:connector-curvature="0" /></g></g></svg>