<?xml version="1.0" encoding="UTF-8" standalone="no"?>
<!-- Generator: Adobe Illustrator 22.0.1, SVG Export Plug-In . SVG Version: 6.00 Build 0)  -->

<svg
   xmlns:dc="http://purl.org/dc/elements/1.1/"
   xmlns:cc="http://creativecommons.org/ns#"
   xmlns:rdf="http://www.w3.org/1999/02/22-rdf-syntax-ns#"
   xmlns:svg="http://www.w3.org/2000/svg"
   xmlns="http://www.w3.org/2000/svg"
   xmlns:sodipodi="http://sodipodi.sourceforge.net/DTD/sodipodi-0.dtd"
   xmlns:inkscape="http://www.inkscape.org/namespaces/inkscape"
   version="1.1"
   id="Layer_1"
   x="0px"
   y="0px"
   viewBox="0 0 853.2 347.5"
   style="enable-background:new 0 0 853.2 347.5;"
   xml:space="preserve"
   sodipodi:docname="src_logo_github.svg"
   inkscape:version="0.92.4 5da689c313, 2019-01-14"><metadata
   id="metadata21"><rdf:RDF><cc:Work
       rdf:about=""><dc:format>image/svg+xml</dc:format><dc:type
         rdf:resource="http://purl.org/dc/dcmitype/StillImage" /><dc:title /></cc:Work></rdf:RDF></metadata><defs
   id="defs19" /><sodipodi:namedview
   pagecolor="#ffffff"
   bordercolor="#666666"
   borderopacity="1"
   objecttolerance="10"
   gridtolerance="10"
   guidetolerance="10"
   inkscape:pageopacity="0"
   inkscape:pageshadow="2"
   inkscape:window-width="640"
   inkscape:window-height="480"
   id="namedview17"
   showgrid="false"
   inkscape:zoom="0.53914675"
   inkscape:cx="322.18654"
   inkscape:cy="182.35102"
   inkscape:current-layer="g2137" />
<style
   type="text/css"
   id="style2">
	.st0{fill:#69747C;}
	.st1{display:none;}
	.st2{display:inline;}
	.st3{fill:#CC0000;}
</style>

<g
   id="logo-black-red"
   class="st1">
	<g
   id="test-tube_2_"
   class="st2">
		<path
   id="tube_2_"
   d="M698.1,345.5L698.1,345.5c-5,0-9.9-0.9-14.6-2.7c-19.7-7.5-30.1-28.9-24.7-48.7l-0.2-0.1l1.3-3.4L760,30.6    c1.5-3.8,0.8-13,0.1-18.1c-0.2-1.2-0.2-2.3,0.1-3.4l0.1-0.2c0.1-0.2,0.1-0.4,0.2-0.6C762.1,4.1,767,2,775,2c9.6,0,22.9,3,36.5,8.2    c11.4,4.4,21.8,9.9,29.1,15.4c8.6,6.5,12,12.3,10.1,17.3c-0.1,0.2-0.2,0.4-0.3,0.6l-0.1,0.2c-0.5,1-1.2,1.8-2.1,2.5    c-4.4,3.9-10.9,10.5-12,13.5L734.9,323.2l-0.2-0.1C727.6,336.8,713.6,345.5,698.1,345.5z M666.8,292.2l-0.3,0.7    c-6.4,17.2,2.3,36.6,19.5,43.2c3.9,1.5,7.9,2.2,12,2.2c13.9,0,26.2-8.3,31.3-21.3l0.4-0.9l99.6-258.9c2.1-5.6,12-14.5,14-16.3    l0.2-0.2c0.2-0.1,0.3-0.2,0.3-0.3l0.1-0.1c0.1-0.7-0.8-3.8-7.8-9.2c-6.7-5.1-16.4-10.2-27.3-14.4c-12.6-4.9-25.4-7.8-34-7.8    c-5.7,0-7.6,1.2-7.9,1.8v0.1c0,0.1,0,0.2,0,0.4v0.1c0.2,1.5,2.1,14.8-0.5,21.7L666.8,292.2z" />
		<path
   id="liquid_2_"
   class="st3"
   d="M794.9,127.6c0,0-13.8,15.9-26.4,21.6c-12.5,5.6-21.9,4.2-33.2,10.8s-17,15.8-17,15.8    l-46,119.7c-5,13.5,2.4,29.3,16.1,34.6c13.7,5.3,29.2-1.7,34.5-15.1l0,0L794.9,127.6z M748.5,196.7c2.2-1,4.8,0,5.7,2.2    c1,2.2,0,4.8-2.2,5.7c-2.2,1-4.8,0-5.7-2.2C745.3,200.2,746.3,197.6,748.5,196.7z M730.1,177c1.5-0.6,3.2,0,3.8,1.5s0,3.2-1.5,3.8    s-3.2,0-3.8-1.5S728.7,177.6,730.1,177z M709.8,244.7c-2.2,1-4.8,0-5.7-2.2c-1-2.2,0-4.8,2.2-5.7c2.2-1,4.8,0,5.7,2.2    C713,241.2,712,243.7,709.8,244.7z M713.8,229c-1.8-4.1,0-8.9,4.1-10.8c4.1-1.8,8.9,0,10.8,4.1c1.8,4.1,0,8.9-4.1,10.8    C720.4,234.9,715.6,233.1,713.8,229z M724.3,270.5c1.5-0.6,3.2,0,3.8,1.5s0,3.2-1.5,3.8c-1.5,0.6-3.2,0-3.8-1.5    C722.2,272.9,722.8,271.2,724.3,270.5z" />
		
			<ellipse
   id="top_2_"
   transform="matrix(0.359 -0.9333 0.9333 0.359 489.0185 768.7965)"
   cx="804.2"
   cy="28.4"
   rx="7.3"
   ry="27.8" />
	</g>
	<path
   id="jekyll-text_1_"
   class="st2"
   d="M194.9,160.8c4.4,3.5,12.4,1.5,17.8-4.4c5.6-6.2,6.5-14.1,2.1-17.7   c-4.4-3.5-12.4-1.5-17.8,4.7C191.3,149.6,190.4,157.2,194.9,160.8z M181.9,172.3c-1.2,0-3.2,2.1-1.5,2.9c2.4,0.9,3.5,2.9,3.5,5.9   c-2.1,12.1-17.1,26-23.1,30.7c-1.5,1.5,0.6,4.7,2.1,3.5c3.2-2.6,10-7.9,15.6-15c-9.1,20.4-26.9,46.6-33.7,55.8   c-26.6,36.9-67,70.8-94.8,70.8c-22.2,0-41-15-45.1-37.2c-0.3-2.4-3.5-2.9-2.9,0.3c5,30.4,28.4,42.1,56.7,42.1   c31,0,67.4-22.5,87.4-45.4c32.4-37.2,53.5-79.9,47.8-104.1C191.6,173.5,185.4,172,181.9,172.3z M381.1,253.1   c8.5-2.1,15.6-6.8,15.6-14.2c0-0.7-1.5-0.7-1.5,0c0,4.4-5,8-10.6,8.9c-13.2,2.1-39.5-13.5-51.9-29.5c13.2,5,40.4-2.3,53.2-11.4   c11.8-8.5,16.5-18,17.5-25.7c1.5-12.6-12.4-20.1-31.6-12.6c-12.4,5-27.2,15.9-42.5,36.3c16.2-26.9,48.1-70.5,79.4-98.5   c38.1-33.9,60.2-27.4,26,8.5c-14.1,14.7-40.7,33.9-59.1,42.2c-5.6,2.4-2.9,5.6,1.2,3.8c19.5-8.5,45.4-26.3,61.1-41   c46.3-44.5,7.7-78.1-43.7-31c-34.8,32.2-57.6,65.8-77.3,109.4c-6.8,8.2-11.8,15-18.1,20.4c-0.7,0.6-1.3,1.3-1.8,1.9   c-17,14.6-43.8,34.3-60.5,34.6c-11.8,0.3-16.8-8.5-14.7-20.1c3.2-18,21.9-39.2,37.8-46.6c20.7-9.4,32.8,8.8,5.6,23.6   c-10.3,5.3-22.8,8.2-27.8,8.2c-5.9,0-5.3,2.4-0.3,2.6c8.2,0.3,21.6-3.2,30.4-7.4c27.8-13.2,29.5-38-0.6-38.9   c-32.8-1.2-72,26.9-71.7,62c0.3,15.9,13,24.5,30.4,24.5c29-0.3,54.9-22.4,76-41.7c3-2.5,6-5.3,8.9-8.2   c-7.4,18.9-11.2,36.3-9.4,49.2c1.2,9.4,6.5,13.8,10.6,17.3c0.9,0.6,2.6,0,1.5-1.8c-6.2-7.4-4.4-29.3,4.1-50.4   C324.4,241.7,352.1,259.6,381.1,253.1z M346.3,191.6c33.9-30.4,47.2-3.2,25.7,13.2c-11.2,8.5-33.4,15-40.4,10.9l-1.5-0.9   c-0.9-1.5-1.8-2.9-2.4-4.4C333.2,203.7,339.7,197.6,346.3,191.6z M534.6,157.2c13.5,1.5,7.9-15-5.9-10.9   c-6.2,1.8-12.1,13.5-16.5,23.9c-13.5,20.4-36.3,48-52.3,62.5c-14.1,12.1-27.2,15.3-11.2-7.4c6.5-9.1,14.7-18.9,19.5-28.6   c11.2-24.5-12.7-35.4-31.9-20.7c-11.2,8.5-26.3,26.3-38.1,36c-3.2,2.6-2.4,6.5,0.9,3.8c9.4-7.6,26-25.1,40.1-35.4   c11.8-9.1,16.5-3.2,9.7,4.4c-9.4,10.9-26,29.8-30.1,41.9c-5.9,18,1.2,26,12.9,26c16.2,0,40.4-25.4,56.7-45.4   c5.3-6.8,11.2-14.7,16.2-22.4c-14.1,27.4-28.9,55.2-47.2,80.2c-26,35.4-58.5,62-89.2,62c-22.2,0-41.3-15-45.4-37.2   c-0.3-2.4-3.2-2.9-2.9,0.3c5,30.4,28.4,42.1,56.7,42.1c31,0,60.8-18,81.7-40.1c42.2-44.5,47.2-94.7,60.2-122.7   C524.6,157.2,530.2,156.6,534.6,157.2z M706.2,114.2c6.2-10.6,5.9-18.9-8.5-18.9c-10.9,0.3-30.7,7.9-39.8,15   c-2.1,2.1-1.2,3.2,1.5,2.1c1.8-0.6,3.8-1.8,5.9-2.6c10.3-5.6,6.2,6.2,3.8,10.6c-12.4,21.6-34.2,51.9-45.7,67   c-5.5,7.4-11.7,14.8-17.8,21.1c-11.1,10.5-33,29.2-49.5,35.4c-53.8,20.1,14.7-71.4,20.4-78.7c12.7-15.9,41-43.6,49.5-57.5   c6.2-10.6,5.9-18.9-8.5-18.9c-10.9,0.3-30.7,7.9-39.8,15c-2.1,2.1-1.2,3.2,1.5,2.1c1.8-0.6,3.8-1.8,5.9-2.6   c10.3-5.6,6.2,6.2,3.8,10.6c-12.4,21.6-34.2,51.9-45.7,67c-9.4,12.6-21,25.4-29.8,32.4c-3.5,2.9-1.5,5.6,2.1,3.2   c3.2-2.1,7.9-6.8,13.2-12.4c-9.7,19.5-17.8,46.9,7.9,50.1c21.9,3,47.9-19.4,64.7-35.9c1.8-1.8,3.9-3.8,6-6c0.5-0.5,1-1,1.5-1.5   c-9.7,19.5-17.7,46.8,8,50c28.1,3.8,62.9-33.9,76.4-47.7c2.6-2.6,1.8-7.1-2.6-2.6c-7.9,8.2-34.8,32.7-54.4,40.1   c-53.8,20.1,14.7-71.4,20.4-78.7C669.3,155.8,697.7,128.2,706.2,114.2z" />
</g>
<g
   id="g2137"
   transform="matrix(4.4837968,0,0,4.4837968,-3310.1269,-2014.1173)"><path
     style="fill:#333333;fill-opacity:1;stroke-width:0.31999999"
     d="m 760.8245,511.15313 c -5.24567,-2.58702 -8.97553,-6.31962 -11.52896,-11.53746 -1.95514,-3.99525 -2.51652,-6.5151 -2.49519,-11.2 0.0269,-5.91197 1.62674,-10.73282 5.029,-15.15432 5.25381,-6.82772 12.79139,-10.29757 21.45858,-9.87825 11.51949,0.55732 20.85181,8.51803 23.39702,19.95824 0.41429,1.86214 0.50372,3.35662 0.37799,6.31679 -0.1917,4.51351 -1.03669,7.56444 -3.14141,11.34255 -2.50709,4.50036 -7.91562,9.23662 -12.50956,10.95464 -2.92947,1.09554 -2.95557,1.0553 -3.14747,-4.85336 -0.1418,-4.36599 -0.24189,-5.06485 -0.88,-6.14458 -0.396,-0.67006 -0.72,-1.26547 -0.72,-1.32313 0,-0.0577 0.77212,-0.2013 1.71583,-0.31921 2.17062,-0.2712 5.16436,-1.68081 6.56493,-3.0911 3.23592,-3.2584 4.03725,-10.19266 1.63286,-14.12992 -0.84339,-1.38107 -0.91221,-1.70626 -0.74501,-3.52 0.10462,-1.13486 0.0249,-2.58601 -0.18453,-3.35835 -0.34025,-1.25487 -0.45135,-1.36 -1.43734,-1.36 -1.19337,0 -2.88128,0.63289 -4.62699,1.7349 -1.13847,0.71869 -1.21504,0.72437 -3.72107,0.27615 -2.64777,-0.47357 -7.05302,-0.37642 -9.03022,0.19914 -0.89548,0.26067 -1.35149,0.13472 -3.45722,-0.95495 -2.99757,-1.55118 -4.4909,-1.66603 -4.97873,-0.38293 -0.18241,0.47977 -0.29504,2.04171 -0.25029,3.47097 0.0709,2.26367 -0.009,2.71379 -0.6211,3.49171 -2.18197,2.77391 -2.15814,8.98257 0.0489,12.74864 1.52355,2.59973 4.53301,4.42394 8.10636,4.91372 0.77378,0.10606 1.36309,0.28054 1.30957,0.38774 -0.0535,0.1072 -0.37743,0.94214 -0.71982,1.85542 -0.68827,1.83587 -0.99308,2.00826 -3.563,2.01512 -1.61516,0.004 -3.03941,-0.69582 -3.74982,-1.84335 -0.14666,-0.23691 -0.70499,-0.92998 -1.24073,-1.54015 -0.72887,-0.83014 -1.14505,-1.06167 -1.65333,-0.9198 -0.47339,0.13213 -0.5499,0.0998 -0.25244,-0.10683 0.34373,-0.23872 0.32306,-0.33625 -0.10617,-0.50097 -0.752,-0.28857 -2.01226,-0.25408 -2.20661,0.0604 -0.0901,0.1457 0.46576,0.7911 1.23514,1.43422 0.82466,0.68934 1.73684,1.88374 2.22226,2.90984 1.35406,2.86224 3.23791,3.87669 6.7802,3.65113 l 2.04835,-0.13043 v 2.59117 c 0,3.9269 -0.51588,4.12832 -4.96,1.93662 z m 1.76,-6.57746 c 0,-0.176 0.216,-0.32 0.48,-0.32 0.264,0 0.48,0.144 0.48,0.32 0,0.176 -0.216,0.32 -0.48,0.32 -0.264,0 -0.48,-0.144 -0.48,-0.32 z m -2.01797,-0.20463 c -0.11255,-0.11255 -0.13194,-0.32226 -0.0431,-0.46603 0.19952,-0.32283 1.10105,-0.008 1.10105,0.3849 0,0.32835 -0.753,0.38609 -1.05797,0.0811 z m 3.93797,-0.11537 c 0,-0.176 0.216,-0.32 0.48,-0.32 0.264,0 0.48,0.144 0.48,0.32 0,0.176 -0.216,0.32 -0.48,0.32 -0.264,0 -0.48,-0.144 -0.48,-0.32 z m -5.61316,-0.98129 c -0.11601,-0.18771 -0.13409,-0.41813 -0.0402,-0.51204 0.22923,-0.22922 0.85334,0.17466 0.85334,0.55222 0,0.40895 -0.55245,0.38165 -0.81316,-0.0402 z m 56.17316,-0.41468 c -3.72877,-0.81002 -6.68141,-3.06859 -8.04679,-6.15527 -2.18674,-4.94349 -2.03223,-13.61632 0.32579,-18.28755 1.19407,-2.36543 3.52671,-4.51117 5.82819,-5.36121 2.34398,-0.86573 8.84412,-0.90645 11.55652,-0.0724 1.00304,0.30843 1.89049,0.66884 1.97211,0.8009 0.0816,0.13206 -0.098,1.31817 -0.39912,2.6358 l -0.54751,2.39568 -1.1046,-0.0868 c -0.60753,-0.0478 -2.61659,-0.11976 -4.46459,-0.16 -4.07086,-0.0887 -5.36719,0.4052 -6.73817,2.567 -1.65393,2.60798 -2.00641,8.18388 -0.75729,11.97982 0.58852,1.78845 2.49915,3.6544 4.03636,3.94196 0.5825,0.10897 1.8511,0.15311 2.8191,0.0981 l 1.76,-0.10004 0.0918,-2.94442 0.0918,-2.94443 -2.0118,-0.0956 -2.0118,-0.0956 v -2.72 -2.72 l 5.2,-0.0879 5.2,-0.0879 v 7.84142 7.84142 l -1.31393,0.67032 c -2.82952,1.44351 -7.82435,1.94218 -11.48607,1.14672 z m 31.85148,-0.0152 c -1.88396,-0.52738 -3.48043,-2.09674 -3.98632,-3.91861 -0.18788,-0.67661 -0.3424,-3.42621 -0.34338,-6.11021 l -0.002,-4.88001 h -1.6 -1.6 v -2.24 c 0,-1.57771 0.11827,-2.24053 0.4,-2.24178 0.22,-9.6e-4 0.94,-0.15175 1.6,-0.33504 l 1.2,-0.33326 v -2.86496 -2.86496 h 3.2 3.2 v 2.88 2.88 h 2.25346 2.25347 l -0.0935,2.48 -0.0935,2.48 -2.16,0.0946 -2.16,0.0946 0.005,4.38538 c 0.003,2.41196 0.14005,4.59913 0.30523,4.86037 0.18505,0.29266 1.01228,0.53833 2.1551,0.64 l 1.85477,0.16501 0.0935,2.10964 c 0.0649,1.46556 -0.037,2.21792 -0.33389,2.46431 -0.71486,0.59329 -4.39431,0.74582 -6.1481,0.25487 z m 36.94121,-0.0396 c -1.63677,-0.50461 -2.60912,-1.2981 -3.42928,-2.7985 -0.48718,-0.89126 -0.57694,-2.12397 -0.66339,-9.11072 l -0.1,-8.08 h 3.21997 3.21997 v 6.84455 c 0,6.24775 0.053,6.91002 0.60802,7.59542 0.6928,0.85556 2.50707,0.97794 4.18632,0.28237 l 0.96566,-0.39999 v -7.17277 -7.17276 l 3.12,0.0916 3.12,0.0916 v 9.76 9.76 l -2.1191,0.0937 c -1.89278,0.0837 -2.13699,0.0253 -2.28665,-0.54707 -0.1665,-0.63667 -0.17571,-0.63682 -1.44577,-0.0232 -2.67934,1.29451 -5.7987,1.58647 -8.39578,0.7858 z m 25.34123,0.009 c -0.93833,-0.26338 -2.01437,-0.69483 -2.3912,-0.95877 -0.90049,-0.63074 -1.07488,-0.60684 -1.27943,0.17532 -0.15484,0.59212 -0.38184,0.64605 -2.35732,0.56 l -2.18598,-0.0952 -0.0833,-14.48 -0.0833,-14.48 h 3.20326 3.20326 v 4.8 c 0,2.64 0.12641,4.8 0.28092,4.8 0.15451,0 0.79788,-0.216 1.42972,-0.48 1.67498,-0.69985 5.38189,-0.63024 6.86211,0.12886 3.33514,1.71036 4.70891,5.87477 3.98335,12.07502 -0.66803,5.7087 -2.53154,7.96586 -6.83882,8.28346 -1.27977,0.0944 -2.67163,-0.0278 -3.74335,-0.32867 z m 3.21207,-5.32669 c 0.74326,-0.38048 1.21007,-2.23873 1.21222,-4.8255 0.004,-4.50182 -1.60932,-6.05996 -5.16934,-4.99335 l -1.24538,0.37312 0.0883,4.66688 0.0883,4.66687 1.44,0.36647 c 1.42707,0.36318 2.53264,0.28472 3.586,-0.2545 z m -81.12151,4.96584 c -0.12346,-0.12347 -0.22448,-4.59248 -0.22448,-9.93115 v -9.70667 h 3.20462 3.20462 l -0.0846,9.84 -0.0846,9.84 -2.89551,0.0912 c -1.59253,0.0501 -2.99653,-0.01 -3.12,-0.13334 z m 24.73551,-14.34623 v -14.57159 h 3.2 3.2 v 5.44 5.44 h 4.16 4.16 v -5.44 -5.44 h 3.20326 3.20326 l -0.0833,14.48 -0.0833,14.48 -3.12,0.0916 -3.12,0.0916 v -6.25159 -6.25159 h -4.15309 -4.15309 l -0.0869,6.16 -0.0869,6.16 -3.12,0.0916 -3.12,0.0916 z m -98.39999,13.58841 c -0.10878,-0.176 0.0267,-0.32 0.30111,-0.32 0.27439,0 0.49889,0.144 0.49889,0.32 0,0.176 -0.1355,0.32 -0.30112,0.32 -0.16561,0 -0.39011,-0.144 -0.49888,-0.32 z m 75.1407,-20.94837 c -1.68844,-0.73436 -2.51312,-3.09083 -1.66325,-4.75267 0.63261,-1.23701 1.63751,-1.80432 3.2094,-1.81184 1.30558,-0.006 1.60792,0.13078 2.48,1.12402 1.63046,1.857 1.09047,4.53974 -1.09783,5.45407 -1.32458,0.55344 -1.62783,0.55204 -2.92832,-0.0136 z"
     id="path2141"
     inkscape:connector-curvature="0" /></g></svg>