<?xml version="1.0" encoding="UTF-8" standalone="no"?>
<!-- Generator: Adobe Illustrator 22.0.1, SVG Export Plug-In . SVG Version: 6.00 Build 0)  -->

<svg
   xmlns:dc="http://purl.org/dc/elements/1.1/"
   xmlns:cc="http://creativecommons.org/ns#"
   xmlns:rdf="http://www.w3.org/1999/02/22-rdf-syntax-ns#"
   xmlns:svg="http://www.w3.org/2000/svg"
   xmlns="http://www.w3.org/2000/svg"
   xmlns:sodipodi="http://sodipodi.sourceforge.net/DTD/sodipodi-0.dtd"
   xmlns:inkscape="http://www.inkscape.org/namespaces/inkscape"
   version="1.1"
   id="Layer_1"
   x="0px"
   y="0px"
   viewBox="0 0 853.2 347.5"
   style="enable-background:new 0 0 853.2 347.5;"
   xml:space="preserve"
   sodipodi:docname="src_logo_netlify.svg"
   inkscape:version="0.92.4 5da689c313, 2019-01-14"><metadata
   id="metadata21"><rdf:RDF><cc:Work
       rdf:about=""><dc:format>image/svg+xml</dc:format><dc:type
         rdf:resource="http://purl.org/dc/dcmitype/StillImage" /><dc:title></dc:title></cc:Work></rdf:RDF></metadata><defs
   id="defs19" /><sodipodi:namedview
   pagecolor="#ffffff"
   bordercolor="#666666"
   borderopacity="1"
   objecttolerance="10"
   gridtolerance="10"
   guidetolerance="10"
   inkscape:pageopacity="0"
   inkscape:pageshadow="2"
   inkscape:window-width="640"
   inkscape:window-height="480"
   id="namedview17"
   showgrid="false"
   inkscape:zoom="0.76246865"
   inkscape:cx="322.8896"
   inkscape:cy="61.269375"
   inkscape:current-layer="g905" />
<style
   type="text/css"
   id="style2">
	.st0{fill:#69747C;}
	.st1{display:none;}
	.st2{display:inline;}
	.st3{fill:#CC0000;}
</style>

<g
   id="logo-black-red"
   class="st1">
	<g
   id="test-tube_2_"
   class="st2">
		<path
   id="tube_2_"
   d="M698.1,345.5L698.1,345.5c-5,0-9.9-0.9-14.6-2.7c-19.7-7.5-30.1-28.9-24.7-48.7l-0.2-0.1l1.3-3.4L760,30.6    c1.5-3.8,0.8-13,0.1-18.1c-0.2-1.2-0.2-2.3,0.1-3.4l0.1-0.2c0.1-0.2,0.1-0.4,0.2-0.6C762.1,4.1,767,2,775,2c9.6,0,22.9,3,36.5,8.2    c11.4,4.4,21.8,9.9,29.1,15.4c8.6,6.5,12,12.3,10.1,17.3c-0.1,0.2-0.2,0.4-0.3,0.6l-0.1,0.2c-0.5,1-1.2,1.8-2.1,2.5    c-4.4,3.9-10.9,10.5-12,13.5L734.9,323.2l-0.2-0.1C727.6,336.8,713.6,345.5,698.1,345.5z M666.8,292.2l-0.3,0.7    c-6.4,17.2,2.3,36.6,19.5,43.2c3.9,1.5,7.9,2.2,12,2.2c13.9,0,26.2-8.3,31.3-21.3l0.4-0.9l99.6-258.9c2.1-5.6,12-14.5,14-16.3    l0.2-0.2c0.2-0.1,0.3-0.2,0.3-0.3l0.1-0.1c0.1-0.7-0.8-3.8-7.8-9.2c-6.7-5.1-16.4-10.2-27.3-14.4c-12.6-4.9-25.4-7.8-34-7.8    c-5.7,0-7.6,1.2-7.9,1.8v0.1c0,0.1,0,0.2,0,0.4v0.1c0.2,1.5,2.1,14.8-0.5,21.7L666.8,292.2z" />
		<path
   id="liquid_2_"
   class="st3"
   d="M794.9,127.6c0,0-13.8,15.9-26.4,21.6c-12.5,5.6-21.9,4.2-33.2,10.8s-17,15.8-17,15.8    l-46,119.7c-5,13.5,2.4,29.3,16.1,34.6c13.7,5.3,29.2-1.7,34.5-15.1l0,0L794.9,127.6z M748.5,196.7c2.2-1,4.8,0,5.7,2.2    c1,2.2,0,4.8-2.2,5.7c-2.2,1-4.8,0-5.7-2.2C745.3,200.2,746.3,197.6,748.5,196.7z M730.1,177c1.5-0.6,3.2,0,3.8,1.5s0,3.2-1.5,3.8    s-3.2,0-3.8-1.5S728.7,177.6,730.1,177z M709.8,244.7c-2.2,1-4.8,0-5.7-2.2c-1-2.2,0-4.8,2.2-5.7c2.2-1,4.8,0,5.7,2.2    C713,241.2,712,243.7,709.8,244.7z M713.8,229c-1.8-4.1,0-8.9,4.1-10.8c4.1-1.8,8.9,0,10.8,4.1c1.8,4.1,0,8.9-4.1,10.8    C720.4,234.9,715.6,233.1,713.8,229z M724.3,270.5c1.5-0.6,3.2,0,3.8,1.5s0,3.2-1.5,3.8c-1.5,0.6-3.2,0-3.8-1.5    C722.2,272.9,722.8,271.2,724.3,270.5z" />
		
			<ellipse
   id="top_2_"
   transform="matrix(0.359 -0.9333 0.9333 0.359 489.0185 768.7965)"
   cx="804.2"
   cy="28.4"
   rx="7.3"
   ry="27.8" />
	</g>
	<path
   id="jekyll-text_1_"
   class="st2"
   d="M194.9,160.8c4.4,3.5,12.4,1.5,17.8-4.4c5.6-6.2,6.5-14.1,2.1-17.7   c-4.4-3.5-12.4-1.5-17.8,4.7C191.3,149.6,190.4,157.2,194.9,160.8z M181.9,172.3c-1.2,0-3.2,2.1-1.5,2.9c2.4,0.9,3.5,2.9,3.5,5.9   c-2.1,12.1-17.1,26-23.1,30.7c-1.5,1.5,0.6,4.7,2.1,3.5c3.2-2.6,10-7.9,15.6-15c-9.1,20.4-26.9,46.6-33.7,55.8   c-26.6,36.9-67,70.8-94.8,70.8c-22.2,0-41-15-45.1-37.2c-0.3-2.4-3.5-2.9-2.9,0.3c5,30.4,28.4,42.1,56.7,42.1   c31,0,67.4-22.5,87.4-45.4c32.4-37.2,53.5-79.9,47.8-104.1C191.6,173.5,185.4,172,181.9,172.3z M381.1,253.1   c8.5-2.1,15.6-6.8,15.6-14.2c0-0.7-1.5-0.7-1.5,0c0,4.4-5,8-10.6,8.9c-13.2,2.1-39.5-13.5-51.9-29.5c13.2,5,40.4-2.3,53.2-11.4   c11.8-8.5,16.5-18,17.5-25.7c1.5-12.6-12.4-20.1-31.6-12.6c-12.4,5-27.2,15.9-42.5,36.3c16.2-26.9,48.1-70.5,79.4-98.5   c38.1-33.9,60.2-27.4,26,8.5c-14.1,14.7-40.7,33.9-59.1,42.2c-5.6,2.4-2.9,5.6,1.2,3.8c19.5-8.5,45.4-26.3,61.1-41   c46.3-44.5,7.7-78.1-43.7-31c-34.8,32.2-57.6,65.8-77.3,109.4c-6.8,8.2-11.8,15-18.1,20.4c-0.7,0.6-1.3,1.3-1.8,1.9   c-17,14.6-43.8,34.3-60.5,34.6c-11.8,0.3-16.8-8.5-14.7-20.1c3.2-18,21.9-39.2,37.8-46.6c20.7-9.4,32.8,8.8,5.6,23.6   c-10.3,5.3-22.8,8.2-27.8,8.2c-5.9,0-5.3,2.4-0.3,2.6c8.2,0.3,21.6-3.2,30.4-7.4c27.8-13.2,29.5-38-0.6-38.9   c-32.8-1.2-72,26.9-71.7,62c0.3,15.9,13,24.5,30.4,24.5c29-0.3,54.9-22.4,76-41.7c3-2.5,6-5.3,8.9-8.2   c-7.4,18.9-11.2,36.3-9.4,49.2c1.2,9.4,6.5,13.8,10.6,17.3c0.9,0.6,2.6,0,1.5-1.8c-6.2-7.4-4.4-29.3,4.1-50.4   C324.4,241.7,352.1,259.6,381.1,253.1z M346.3,191.6c33.9-30.4,47.2-3.2,25.7,13.2c-11.2,8.5-33.4,15-40.4,10.9l-1.5-0.9   c-0.9-1.5-1.8-2.9-2.4-4.4C333.2,203.7,339.7,197.6,346.3,191.6z M534.6,157.2c13.5,1.5,7.9-15-5.9-10.9   c-6.2,1.8-12.1,13.5-16.5,23.9c-13.5,20.4-36.3,48-52.3,62.5c-14.1,12.1-27.2,15.3-11.2-7.4c6.5-9.1,14.7-18.9,19.5-28.6   c11.2-24.5-12.7-35.4-31.9-20.7c-11.2,8.5-26.3,26.3-38.1,36c-3.2,2.6-2.4,6.5,0.9,3.8c9.4-7.6,26-25.1,40.1-35.4   c11.8-9.1,16.5-3.2,9.7,4.4c-9.4,10.9-26,29.8-30.1,41.9c-5.9,18,1.2,26,12.9,26c16.2,0,40.4-25.4,56.7-45.4   c5.3-6.8,11.2-14.7,16.2-22.4c-14.1,27.4-28.9,55.2-47.2,80.2c-26,35.4-58.5,62-89.2,62c-22.2,0-41.3-15-45.4-37.2   c-0.3-2.4-3.2-2.9-2.9,0.3c5,30.4,28.4,42.1,56.7,42.1c31,0,60.8-18,81.7-40.1c42.2-44.5,47.2-94.7,60.2-122.7   C524.6,157.2,530.2,156.6,534.6,157.2z M706.2,114.2c6.2-10.6,5.9-18.9-8.5-18.9c-10.9,0.3-30.7,7.9-39.8,15   c-2.1,2.1-1.2,3.2,1.5,2.1c1.8-0.6,3.8-1.8,5.9-2.6c10.3-5.6,6.2,6.2,3.8,10.6c-12.4,21.6-34.2,51.9-45.7,67   c-5.5,7.4-11.7,14.8-17.8,21.1c-11.1,10.5-33,29.2-49.5,35.4c-53.8,20.1,14.7-71.4,20.4-78.7c12.7-15.9,41-43.6,49.5-57.5   c6.2-10.6,5.9-18.9-8.5-18.9c-10.9,0.3-30.7,7.9-39.8,15c-2.1,2.1-1.2,3.2,1.5,2.1c1.8-0.6,3.8-1.8,5.9-2.6   c10.3-5.6,6.2,6.2,3.8,10.6c-12.4,21.6-34.2,51.9-45.7,67c-9.4,12.6-21,25.4-29.8,32.4c-3.5,2.9-1.5,5.6,2.1,3.2   c3.2-2.1,7.9-6.8,13.2-12.4c-9.7,19.5-17.8,46.9,7.9,50.1c21.9,3,47.9-19.4,64.7-35.9c1.8-1.8,3.9-3.8,6-6c0.5-0.5,1-1,1.5-1.5   c-9.7,19.5-17.7,46.8,8,50c28.1,3.8,62.9-33.9,76.4-47.7c2.6-2.6,1.8-7.1-2.6-2.6c-7.9,8.2-34.8,32.7-54.4,40.1   c-53.8,20.1,14.7-71.4,20.4-78.7C669.3,155.8,697.7,128.2,706.2,114.2z" />
</g>
<g
   id="g2137"
   transform="matrix(4.4837968,0,0,4.4837968,-3310.1269,-2014.1173)"><g
     id="g905"
     transform="translate(-38.470695,-101.34753)"><path
       style="fill:#333333;fill-opacity:1;stroke-width:0.0966001"
       d="m 942.72245,612.62376 c -1.23409,-0.23561 -1.10489,0.0247 -1.10489,-2.227 v -1.9626 l 1.27996,-0.047 c 1.97757,-0.0727 2.71933,-0.40571 3.50555,-1.57388 0.34285,-0.5094 1.4349,-3.15906 1.42572,-3.45926 -10e-4,-0.0606 -1.79136,-5.18962 -3.9767,-11.39767 -2.18533,-6.20805 -3.97333,-11.32664 -3.97333,-11.37466 0,-0.0499 1.17285,-0.0873 2.74142,-0.0873 h 2.74141 l 0.24956,0.79696 c 0.13726,0.43832 1.21839,3.91582 2.40255,7.72779 1.18412,3.81195 2.17685,6.93093 2.20608,6.93104 0.0292,10e-5 0.15133,-0.33666 0.27143,-0.74843 0.12005,-0.41175 1.15648,-3.88936 2.30311,-7.72801 l 2.08478,-6.97935 h 2.74977 c 2.57922,0 2.74574,0.0108 2.68473,0.16905 -0.0358,0.0929 -2.10624,6.09843 -4.60102,13.34545 -2.49477,7.24702 -4.68012,13.50905 -4.8563,13.91563 -1.02636,2.3684 -2.80761,4.05955 -4.84341,4.59843 -0.7983,0.2113 -2.44725,0.26185 -3.29042,0.10087 z m -136.58653,-0.50935 c -0.80033,-0.18401 -0.85317,-0.23207 -7.02767,-6.39245 -3.38703,-3.3793 -6.15824,-6.17631 -6.15824,-6.21557 0,-0.0392 0.62503,-1.03915 1.38894,-2.22202 l 1.38894,-2.15065 0.9053,-0.0149 c 0.49793,-0.009 1.00698,-0.031 1.13123,-0.0504 0.20164,-0.0318 0.80157,0.79919 5.58821,7.74067 2.94928,4.27696 5.38727,7.83813 5.41778,7.91372 0.0639,0.15824 -0.7087,0.8832 -1.23379,1.15772 -0.35877,0.18758 -1.07914,0.30792 -1.4007,0.234 z m -1.68326,-10.28503 c -4.9369,-7.13665 -5.40912,-7.85265 -5.27599,-7.99974 0.14873,-0.16437 0.85131,-0.0312 11.71852,2.22278 0.43713,0.0907 0.52698,0.14879 0.63741,0.4123 0.17464,0.41674 0.60419,0.91073 0.94529,1.08712 0.1548,0.08 0.26291,0.1763 0.24023,0.2139 -0.0227,0.0376 -0.44132,2.52439 -0.93033,5.52623 l -0.8891,5.45791 -0.44576,0.45884 c -0.24516,0.25236 -0.47553,0.45885 -0.51191,0.45885 -0.0364,0 -2.50614,-3.52718 -5.48836,-7.83819 z m 8.30037,5.00977 c 0,-0.38516 1.49008,-9.11009 1.56025,-9.13574 0.0512,-0.0187 0.29415,-0.18751 0.53985,-0.37506 l 0.44672,-0.341 3.02529,0.61492 c 1.66391,0.33819 3.0253,0.63756 3.0253,0.66525 0,0.0277 -1.93442,1.98441 -4.2987,4.34825 -2.3643,2.36385 -4.29871,4.26436 -4.29871,4.22338 z m 62.08766,-3.1136 c -3.87424,-0.65135 -6.84548,-3.18107 -8.08631,-6.88472 -0.89948,-2.68477 -0.87459,-6.68117 0.059,-9.48148 1.18193,-3.54503 3.7163,-6.03864 7.04425,-6.93088 0.86008,-0.23061 1.13834,-0.25841 2.65143,-0.26493 1.32414,-0.005 1.85798,0.0315 2.4633,0.17189 3.92303,0.90955 6.27373,3.64583 7.06349,8.22214 0.0871,0.50399 0.17261,1.75941 0.20279,2.97333 l 0.0523,2.10106 h -7.50504 -7.50504 l 0.0621,0.45885 c 0.11099,0.82054 0.42687,1.85268 0.78469,2.56391 0.49806,0.99005 1.59623,2.07322 2.5715,2.53637 1.32141,0.62753 2.90714,0.75604 4.50437,0.36502 1.27148,-0.31126 2.46267,-1.02158 3.3656,-2.00697 l 0.56277,-0.61419 1.3964,1.3285 1.3964,1.3285 -0.54792,0.67818 c -1.46055,1.80768 -3.69232,3.05111 -6.20896,3.4593 -1.06101,0.17209 -3.29232,0.1701 -4.32709,-0.004 z m 6.30521,-14.34806 c 0,-1.81231 -0.95954,-3.78152 -2.19556,-4.50587 -0.99341,-0.58217 -2.59678,-0.78479 -3.75982,-0.47512 -1.5205,0.40485 -2.77073,1.71769 -3.3557,3.52375 -0.21668,0.66902 -0.44553,1.62052 -0.44553,1.85247 0,0.0569 1.85886,0.0919 4.87831,0.0919 h 4.8783 z m 14.42345,14.30754 c -1.58851,-0.43037 -2.63354,-1.24483 -3.25497,-2.53688 -0.69817,-1.45153 -0.67371,-1.1287 -0.71049,-9.37575 l -0.033,-7.41406 h -1.87977 -1.87976 v -1.932 -1.93199 h 1.88371 1.88371 v -2.8014 -2.80141 h 2.55989 2.55992 v 2.80141 2.8014 h 2.02859 2.02861 v 1.93199 1.932 h -2.02861 -2.02859 v 6.61237 c 0,6.89717 0.0215,7.30463 0.41811,7.89305 0.39314,0.5834 0.74717,0.70911 1.99688,0.70911 0.61099,0 1.25306,-0.0317 1.4268,-0.0704 l 0.31591,-0.0704 -0.0261,2.00016 -0.0261,2.00014 -0.7245,0.17904 c -0.49501,0.12236 -1.21411,0.19215 -2.27011,0.22043 -1.31733,0.0353 -1.64817,0.0137 -2.24006,-0.14676 z m -52.77369,-11.69528 v -11.4954 h 2.40153 2.40155 l 0.0609,0.50714 c 0.0336,0.27894 0.062,0.81144 0.0632,1.18335 0.003,0.86801 0.0877,1.01035 0.37235,0.62536 0.66905,-0.90493 2.6946,-2.10731 4.16719,-2.4737 1.09749,-0.27306 3.53962,-0.25075 4.56764,0.0416 2.21682,0.63069 3.6274,1.9844 4.35139,4.17591 0.49562,1.50026 0.48488,1.28638 0.52194,10.40607 l 0.0347,8.52497 h -2.5643 -2.56429 l -7.7e-4,-7.70386 c -4.9e-4,-4.77255 -0.0381,-7.93493 -0.0994,-8.31115 -0.23419,-1.44313 -0.8095,-2.30606 -1.85051,-2.77568 -0.52008,-0.2346 -0.76549,-0.28103 -1.67454,-0.31684 -0.60669,-0.024 -1.29546,0.005 -1.60019,0.0692 -1.21982,0.25323 -2.38851,1.06998 -3.13041,2.1877 l -0.3383,0.50973 v 8.17049 8.1705 h -2.5599 -2.55991 z m 62.21045,-4.82999 v -16.32543 h 2.55992 2.55989 v 16.32543 16.32542 h -2.55989 -2.55992 z m 11.10902,4.82999 v -11.4954 h 2.55991 2.55989 v 11.4954 11.49543 h -2.55989 -2.55991 z m 12.55801,1.93418 v -9.56123 l -1.76294,-0.0263 -1.76296,-0.0263 v -1.88371 -1.88371 l 1.75205,-0.0262 1.75204,-0.0262 0.0475,-2.00232 c 0.0544,-2.29368 0.14823,-2.77943 0.79706,-4.12751 0.9068,-1.88415 2.4499,-3.09911 4.60443,-3.62535 1.46782,-0.35852 3.71786,-0.35449 5.11408,0.01 l 0.34993,0.0911 -0.0412,1.76253 c -0.0227,0.9694 -0.0591,1.85079 -0.0808,1.95864 -0.0376,0.18727 -0.10814,0.19597 -1.5644,0.19321 -1.78528,-0.004 -2.26217,0.11519 -2.97085,0.73905 -0.85629,0.75372 -1.11401,1.60003 -1.11401,3.65811 v 1.34764 h 2.31841 2.3184 v 1.932 1.93201 h -2.3184 -2.31841 v 9.5634 9.56342 h -2.5599 -2.55991 v -9.56124 z m -138.0746,3.29752 -1.23432,-1.23709 2.48093,-1.0499 c 2.33181,-0.98683 2.48864,-1.03939 2.60927,-0.8744 0.11154,0.15258 0.0867,0.24024 -0.19035,0.67067 -0.1753,0.27232 -0.76506,1.19065 -1.31062,2.04073 -0.54555,0.85008 -1.02085,1.57744 -1.05623,1.61633 -0.0353,0.0389 -0.61979,-0.48595 -1.29868,-1.16634 z m 28.44505,-0.93514 c -2.00772,-0.42523 -3.35379,-0.75492 -3.40368,-0.83363 -0.0453,-0.0716 -0.0832,-0.20192 -0.0841,-0.28956 -7.7e-4,-0.0877 -0.15362,-0.38543 -0.33958,-0.66176 -0.18595,-0.27633 -0.3381,-0.58091 -0.3381,-0.67682 0,-0.19402 1.24711,-7.85281 1.28205,-7.87335 0.0122,-0.006 0.22434,-0.0878 0.47158,-0.17943 0.24724,-0.0915 0.56462,-0.27315 0.70532,-0.40353 0.1407,-0.13035 0.31157,-0.23708 0.37974,-0.23708 0.10665,0 11.54754,4.7989 11.635,4.8803 0.1137,0.10569 -0.56698,0.84473 -3.44578,3.74126 -1.78218,1.79313 -3.30807,3.25502 -3.39086,3.24863 -0.0829,-0.006 -1.64506,-0.32815 -3.47168,-0.71503 z m -32.95139,-3.57109 c -1.19499,-1.19595 -2.11817,-2.17447 -2.05154,-2.17447 0.17503,0 9.52946,1.94343 9.5775,1.98977 0.0222,0.0214 0.0222,0.0557 0,0.0762 -0.0295,0.0273 -3.49533,1.50599 -5.25667,2.2426 -0.0532,0.0222 -1.07431,-0.93811 -2.26929,-2.13407 z m 19.42698,0.77272 c -3.56307,-0.73958 -5.76768,-1.23982 -5.8187,-1.32031 -0.0452,-0.0713 -0.0829,-0.22218 -0.0836,-0.33536 -0.001,-0.17958 0.51231,-0.42472 4.03158,-1.92431 2.21818,-0.94517 5.52969,-2.35867 7.3589,-3.14108 2.75946,-1.18032 3.35578,-1.40387 3.50175,-1.31272 0.0968,0.0604 0.17588,0.17548 0.17584,0.25567 -4e-5,0.0803 -0.2826,1.8767 -0.6279,3.99221 -0.34531,2.11551 -0.62783,3.86518 -0.62783,3.88815 0,0.023 -0.076,0.0422 -0.16905,0.0427 -0.32688,10e-4 -1.15661,0.463 -1.36859,0.76068 -0.13359,0.18762 -0.2937,0.29798 -0.42509,0.29303 -0.11586,-0.004 -2.79222,-0.54378 -5.94732,-1.19868 z m -15.85358,-3.29119 c -2.36428,-0.49958 -4.74426,-1.0017 -5.28885,-1.11585 -0.95153,-0.19943 -0.99013,-0.21741 -0.98924,-0.46059 10e-4,-0.53682 0.58829,-1.24337 3.15738,-3.80448 l 2.59347,-2.58541 2.81613,4.07343 2.81613,4.07343 -0.29857,0.37154 c -0.16421,0.20435 -0.34565,0.3681 -0.40315,0.36389 -0.0575,-0.004 -2.03901,-0.41638 -4.4033,-0.91596 z m 9.27361,0.0477 c 0,-0.0829 4.14038,-6.55778 5.13831,-8.03555 l 0.3751,-0.55544 0.50355,-9.8e-4 c 0.62664,-10e-4 1.37544,-0.33323 1.74688,-0.77465 0.32496,-0.38621 -0.10734,-0.51752 3.92477,1.19247 l 3.0429,1.29052 0.0292,0.34151 c 0.0183,0.21388 -0.0178,0.36012 -0.0967,0.39128 -0.0692,0.0273 -3.08181,1.30974 -6.69464,2.84974 -3.61285,1.54001 -6.88397,2.93399 -7.26916,3.09775 -0.38519,0.16374 -0.70035,0.25525 -0.70035,0.20332 z m -5.81403,-4.85629 -2.9045,-4.24105 2.71109,-2.7111 2.71111,-2.71111 2.83151,1.19415 c 4.42313,1.86537 4.05961,1.6768 3.98623,2.06784 -0.0749,0.40004 0.16023,1.27567 0.43746,1.62812 0.1072,0.1363 0.19494,0.29399 0.19494,0.35043 0,0.0564 -1.24163,2.02747 -2.75919,4.38007 l -2.7592,4.27745 -0.77246,0.003 -0.77247,0.003 -2.90452,-4.24106 z m 30.84855,0.75016 c -3.04668,-1.29007 -5.56431,-2.37048 -5.59476,-2.40093 -0.0304,-0.0304 -0.0373,-0.0734 -0.015,-0.0954 0.0222,-0.0221 1.12701,-0.50096 2.45525,-1.06424 l 2.41501,-1.02414 2.95715,2.97209 c 2.70964,2.72333 3.46447,3.5978 3.35165,3.88294 -0.0164,0.0414 -2.52253,-0.98021 -5.56922,-2.27028 z m -6.67622,-3.92122 c -0.12561,-0.10183 -0.29371,-0.2215 -0.37355,-0.26617 -0.12628,-0.0707 -0.0854,-0.45056 0.31427,-2.91831 0.25268,-1.56039 0.47874,-2.85681 0.50233,-2.88095 0.0482,-0.0493 4.28607,4.16104 4.28607,4.25827 0,0.0547 -0.58942,0.31726 -3.77182,1.67997 -0.72487,0.3104 -0.73018,0.31109 -0.9573,0.12723 z m -6.38666,-1.58745 -3.53266,-1.50286 -0.17203,-0.49962 c -0.0945,-0.27479 -0.1785,-0.60854 -0.18643,-0.74167 -0.01,-0.1669 0.73565,-1.40416 2.4006,-3.98365 l 2.41499,-3.74158 2.30162,2.30074 2.3016,2.30075 -0.55922,3.48489 -0.55922,3.48489 -0.41672,0.20245 c -0.22919,0.1114 -0.42644,0.20157 -0.43829,0.20048 -0.0122,-10e-4 -1.61126,-0.67826 -3.55424,-1.50482 z m -10.88489,-4.61349 c -1.76657,-0.7479 -3.21195,-1.38457 -3.21195,-1.41482 0,-0.0302 1.90181,-1.94969 4.22625,-4.26541 4.59376,-4.57653 4.46769,-4.47536 5.55431,-4.45652 0.42052,0.006 0.66597,0.0744 1.01148,0.27701 0.53333,0.31255 3.13863,2.82652 3.09783,2.98923 -0.0153,0.0609 -1.13332,1.82424 -2.48458,3.91858 l -2.45681,3.80788 -0.82759,-1.8e-4 c -0.7168,-1.9e-4 -0.88577,0.0335 -1.26228,0.25192 l -0.43471,0.25211 -3.21195,-1.35982 z m 117.81386,1.16081 c -1.05915,-0.23569 -1.79508,-0.98713 -2.01789,-2.06045 -0.28294,-1.36288 0.51004,-2.7965 1.75057,-3.16491 0.66234,-0.1967 1.58048,-0.19263 2.20719,0.01 2.32392,0.75055 2.39896,4.36242 0.1058,5.09748 -0.65311,0.20936 -1.43328,0.25441 -2.04578,0.11817 z"
       id="path909"
       inkscape:connector-curvature="0" /></g></g></svg>